<svg width="148" height="186" viewBox="0 0 148 186" fill="none" xmlns="http://www.w3.org/2000/svg">
<g clip-path="url(#clip0_1_1451)">
<path d="M96.5303 5.65653C108.649 5.65653 120.783 5.65653 132.902 5.65653C133.535 5.65653 134.182 5.71671 134.784 5.86715C138.202 6.72464 140.4 9.64314 140.4 13.3138C140.4 19.7225 140.4 26.1462 140.4 32.5548V52.5932C140.4 54.2781 141.559 55.4515 143.185 55.4364C143.998 55.4364 144.675 55.1356 145.157 54.6391C145.639 54.1427 145.925 53.4356 145.925 52.6082C145.94 44.8757 145.955 37.1432 145.97 29.3956C145.97 24.3861 145.97 19.3915 145.97 14.3819C145.97 13.4793 145.97 12.5767 145.879 11.6741C145.338 5.25035 139.677 0.0752869 133.203 0.0752869H104.795C101.935 0.0752869 99.0896 0.0752869 96.2292 0.0752869C94.8292 0.0752869 93.685 1.09826 93.5194 2.46725C93.4893 2.69291 93.4893 2.90352 93.5194 3.11413C93.6398 4.58842 94.8442 5.65653 96.5303 5.65653V5.65653Z" fill="#E0E0E0"/>
<path d="M96.5305 5.65653C108.649 5.65653 120.784 5.65653 132.903 5.65653C133.535 5.65653 134.182 5.71671 134.784 5.86715C138.202 6.72464 140.4 9.64314 140.4 13.3138C140.4 19.7225 140.4 26.1462 140.4 32.5548V52.5932C140.4 54.2781 141.559 55.4515 143.185 55.4364C143.998 55.4364 144.675 55.1356 145.157 54.6391C145.639 54.1427 145.925 53.4356 145.925 52.6082C145.94 44.8757 145.955 37.1432 145.97 29.3956C145.97 24.3861 145.97 19.3915 145.97 14.3819C145.97 13.4793 145.97 12.5767 145.88 11.6741C145.338 5.25035 139.677 0.0752869 133.204 0.0752869H104.795C101.935 0.0752869 99.0898 0.0752869 96.2294 0.0752869C94.8293 0.0752869 93.6852 1.09826 93.5196 2.46725C93.4895 2.69291 93.4895 2.90352 93.5196 3.11413C93.64 4.58842 94.8444 5.65653 96.5305 5.65653Z" fill="#E0E0E0"/>
<path d="M111.736 127.496C112.338 127.045 112.88 126.473 113.377 125.901C121.596 116.273 125.631 105.081 125.706 92.444C125.706 91.5865 125.721 90.729 125.706 89.8715C125.601 86.5017 125.149 83.177 124.457 79.8824C122.56 70.8561 118.179 63.1537 112.112 56.3389C111.224 55.346 110.004 55.331 109.026 56.2336C107.806 57.3468 107.806 58.9114 109.086 60.3255C112.037 63.6201 114.491 67.2456 116.372 71.2473C120.362 79.7019 121.762 88.5777 120.603 97.8447C119.459 107.052 115.921 115.235 109.884 122.306C109.312 122.968 108.785 123.675 108.348 124.427C107.806 125.36 108.047 126.232 108.905 127.015C109.899 127.932 110.862 128.128 111.751 127.481L111.736 127.496Z" fill="#E0E0E0"/>
<path d="M100.324 109.805C98.879 111.866 97.1628 113.731 95.5519 115.672C95.1003 116.228 94.7691 116.83 94.7841 117.793C94.7841 118.59 95.2057 119.312 96.0939 119.779C97.3434 120.441 98.7285 120.08 99.978 118.771C102.101 116.529 104.058 114.182 105.684 111.55C110.05 104.449 111.916 96.7316 111.179 88.4275C110.501 80.8755 107.867 74.0757 103.109 68.1635C101.995 66.7794 100.776 65.4857 99.5264 64.222C98.4274 63.1088 96.5606 63.0787 95.5218 64.0716C94.468 65.0795 94.4981 66.4034 95.6573 67.7573C96.666 68.9458 97.765 70.059 98.7285 71.2775C104.088 77.9419 106.406 85.6143 105.925 94.114C105.593 99.8758 103.636 105.111 100.324 109.805V109.805Z" fill="#E0E0E0"/>
<path d="M95.868 91.9777C95.8077 91.1503 95.7475 89.9318 95.6421 88.7433C94.9948 82.0188 92.4506 76.0915 88.0546 70.9766C87.603 70.4501 87.076 70.1041 86.3685 70.074C85.3598 70.0289 84.577 70.4952 84.0501 71.3226C83.4629 72.2704 83.5834 73.2783 84.1404 74.196C84.5318 74.8429 85.0136 75.4597 85.4803 76.0765C89.4848 81.3418 91.4268 87.2239 90.8397 93.8883C90.3881 99.0483 88.6568 103.682 85.3899 107.729C84.7727 108.481 84.1705 109.308 83.8092 110.181C83.3575 111.264 83.9296 112.513 84.9533 113.129C85.8265 113.656 86.8954 113.49 87.7686 112.648C88.0395 112.392 88.2804 112.106 88.5213 111.821C93.2936 106.209 95.7325 99.7253 95.868 91.9777V91.9777Z" fill="#E0E0E0"/>
<path d="M143.185 93.2865C141.529 93.2865 140.415 94.49 140.415 96.2351C140.415 108.33 140.385 120.441 140.43 132.536C140.445 137.29 136.696 140.374 132.707 140.343C120.753 140.253 108.8 140.313 96.8315 140.313H96.7863C96.5906 140.313 96.3949 140.313 96.1992 140.313C94.3475 140.449 93.0979 142.179 93.6098 143.894C94.0012 145.188 95.0701 145.925 96.5755 145.925C108.785 145.925 121.009 145.925 133.219 145.925C133.264 145.925 133.294 145.925 133.339 145.925C133.911 145.925 134.483 145.849 135.04 145.759C135.146 145.744 135.266 145.729 135.371 145.714C141.574 144.556 145.97 139.245 145.97 132.927V114.874V114.348C145.97 108.24 145.97 102.132 145.97 96.0245C145.97 94.4599 144.765 93.2865 143.215 93.2865H143.185Z" fill="#E0E0E0"/>
<path d="M60.1584 33.9237C55.5818 27.3797 51.7127 20.0233 50.9901 12.0802C50.975 11.8695 50.96 11.6589 50.9449 11.4483L21.5281 11.2678C18.8033 11.2528 15.8074 11.328 13.7599 13.1182C11.306 15.2394 11.1404 18.9251 11.1555 22.1595C11.2007 32.4795 11.2609 42.7996 11.306 53.1196C11.306 54.3532 11.306 55.647 10.7641 56.7602C10.2221 57.8735 8.97257 58.746 7.7682 58.4451C6.03691 57.9938 5.69066 55.7372 5.69066 53.947C5.66055 43.642 5.64549 33.3521 5.61538 23.0471C5.61538 18.2331 5.79604 12.8925 9.12312 9.41741C11.6824 6.73962 15.416 5.88212 19.2097 5.62638C26.8424 5.62638 34.4601 5.62638 42.0928 5.62638C43.8843 5.62638 45.6608 5.64142 47.4523 5.65646C47.6931 5.65646 47.8888 5.65646 48.0695 5.62638H49.4696C51.1406 5.62638 52.345 4.55827 52.4805 3.09902C52.4956 2.88841 52.4805 2.67779 52.4805 2.45214C52.3149 1.08315 51.1858 0.0752189 49.7707 0.0601752C49.3793 0.0601752 49.0029 0.0601752 48.6115 0.0601752C48.4308 0.0451314 48.22 0.0300876 47.9641 0.0300876L18.4118 0C17.2978 0 16.1386 0.0150438 14.9944 0.0752189H12.7814C10.4931 0.0752189 8.31017 0.737146 6.41328 1.85039C4.5465 2.70788 2.9206 3.95652 1.80656 5.76177C0.752733 7.47676 0.316148 9.46254 0.135492 11.4784C0.135492 11.5536 0.105383 11.6288 0.105383 11.7191C0.0451639 12.4412 0.0301093 13.1633 0.0150546 13.8854C0 14.427 0 14.9686 0 15.5101C0 17.0897 0 18.6844 0 20.264C0 23.3179 0 26.3868 0 29.4407C0 34.014 0.0150546 38.5873 0.0301093 43.1606C0.0451639 59.769 0.0602186 76.3924 0.0752732 93.0007C0.0752732 93.1211 0.0451639 93.2414 0.0451639 93.3768C0.0301093 101.109 0.0150546 108.842 0 116.589C0 121.599 0 126.593 0 131.603C0 132.506 0 133.408 0.0903279 134.311C0.64735 140.78 6.29284 145.955 12.7663 145.955H14.8589C15.988 146 17.1021 146.015 18.186 146.015C25.1112 146 32.0513 145.97 38.9765 145.955H41.1594C44.0198 145.955 46.8651 145.955 49.7255 145.955C51.1256 145.955 52.2697 144.932 52.4353 143.563C52.4655 143.337 52.4655 143.127 52.4353 142.916C52.3149 141.442 51.1105 140.389 49.4244 140.389C38.0431 140.389 26.6467 140.389 15.2654 140.389C13.0223 139.877 10.9297 138.99 9.28872 137.38C6.62405 134.762 5.79604 131.016 5.54011 127.18C5.54011 122.607 5.54011 118.049 5.54011 113.475C5.54011 107.774 5.54011 102.072 5.54011 96.3856V92.3237C5.55517 90.8043 5.75088 88.984 7.10579 88.307C8.35533 87.6752 9.95112 88.5327 10.6286 89.7512C11.306 90.9698 11.306 92.4441 11.306 93.8432C11.2458 103.907 11.1705 113.972 11.1103 124.036C11.0802 127.857 11.4566 132.415 14.7837 134.311C16.4096 135.229 18.3667 135.259 20.2334 135.259C32.5482 135.259 44.8478 135.259 57.1625 135.259C57.84 135.259 58.5626 135.244 59.0895 134.822C59.6164 134.401 59.8121 133.679 59.9025 133.017C61.0617 125.3 55.5215 117.251 58.3067 109.955C59.24 107.533 61.0165 104.78 59.5863 102.614C58.939 101.636 57.8098 101.139 56.7109 100.733C51.4568 98.8377 45.721 98.3412 40.6325 96.0396C39.9249 95.7236 39.1571 95.2723 39.0066 94.5051C38.7808 93.3467 40.1056 92.5343 41.2196 92.0981C47.3017 89.7212 53.3838 87.3292 59.4809 84.9523C60.2336 84.6514 61.0165 84.3355 61.5585 83.7337C63.0037 82.124 61.9499 79.4914 60.3842 77.987C58.8185 76.4826 56.756 75.3543 55.8527 73.3986C55.6269 72.9022 55.4764 72.3155 55.7173 71.8341C55.9431 71.3677 56.4399 71.127 56.9066 70.9014C62.9435 68.1183 69.2514 65.5157 74.0087 60.8822C74.8969 60.0247 75.755 59.0168 75.9356 57.7982C76.1464 56.3841 75.3937 55.0151 74.641 53.7966C70.3203 46.8313 64.8103 40.6784 60.1283 33.9689L60.1584 33.9237Z" fill="#E0E0E0"/>
</g>
<circle cx="76.5" cy="144.5" r="41.5" fill="white"/>
<circle opacity="0.2" cx="76.9109" cy="144.911" r="36.9802" fill="#1BB80E"/>
<path d="M76.9109 174.495C84.7575 174.495 92.2813 171.379 97.8313 165.831C103.378 160.282 106.495 152.757 106.495 144.911C106.495 137.064 103.379 129.54 97.8313 123.991C92.2815 118.443 84.7575 115.327 76.9109 115.327C69.0643 115.327 61.5404 118.443 55.9905 123.991C50.4433 129.54 47.3267 137.064 47.3267 144.911C47.3267 152.757 50.4432 160.281 55.9905 165.831C61.5402 171.378 69.0643 174.495 76.9109 174.495ZM61.5527 145.69C62.6016 144.649 64.296 144.649 65.345 145.69L71.5326 151.878L87.1051 136.305C88.1716 135.39 89.7627 135.453 90.7561 136.446C91.7496 137.44 91.81 139.028 90.8973 140.097L73.4161 157.579H73.4136C72.3646 158.622 70.6702 158.622 69.6213 157.579L61.5527 149.51C61.0433 149.006 60.7584 148.317 60.7584 147.601C60.7584 146.883 61.0433 146.197 61.5527 145.69L61.5527 145.69Z" fill="#1BB80E"/>
<mask id="path-11-outside-1_1_1451" maskUnits="userSpaceOnUse" x="0.776245" y="6.00003" width="148" height="146" fill="black">
<rect fill="white" x="0.776245" y="6.00003" width="148" height="146"/>
<path fill-rule="evenodd" clip-rule="evenodd" d="M14.1822 7.00003H51.1166C52.3123 7.00003 53.2906 7.96151 53.2906 9.15262C53.2906 10.3437 52.3123 11.3052 51.1166 11.3052H14.1822C9.73301 11.3124 6.13157 14.8784 6.12415 19.2767V58.6034C6.12415 59.7945 5.15313 60.756 3.9502 60.756C2.74726 60.756 1.77625 59.7945 1.77625 58.6034V19.2767C1.78349 12.5034 7.33422 7.00719 14.182 7.00003H14.1822ZM97.6596 7.00003H134.594H134.594C141.442 7.00719 146.993 12.5034 147 19.2767V58.6034C147 59.7945 146.029 60.756 144.826 60.756C143.623 60.756 142.652 59.7945 142.652 58.6034V19.2767C142.645 14.8784 139.043 11.3124 134.594 11.3052H97.6596C96.4639 11.3052 95.4857 10.3437 95.4857 9.15262C95.4857 7.96151 96.464 7.00003 97.6596 7.00003ZM53.5114 148.348C53.5114 149.539 52.5331 150.5 51.3375 150.5H14.4028C7.55505 150.493 2.00432 144.997 1.99707 138.224V101.645C1.99707 100.461 2.96809 99.4922 4.17103 99.4922C5.37396 99.4922 6.34498 100.461 6.34498 101.645V138.224C6.3524 142.622 9.95383 146.188 14.403 146.195H51.3375C52.5332 146.195 53.5114 147.157 53.5114 148.348ZM142.652 101.647C142.652 100.463 143.623 99.4947 144.826 99.4946C146.029 99.4946 147 100.463 147 101.647V138.226C146.993 144.999 141.442 150.495 134.594 150.503H97.6596C96.4639 150.503 95.4857 149.541 95.4857 148.35C95.4857 147.159 96.464 146.197 97.6596 146.197H134.594C139.043 146.19 142.645 142.624 142.652 138.226V101.647Z"/>
</mask>
<path fill-rule="evenodd" clip-rule="evenodd" d="M14.1822 7.00003H51.1166C52.3123 7.00003 53.2906 7.96151 53.2906 9.15262C53.2906 10.3437 52.3123 11.3052 51.1166 11.3052H14.1822C9.73301 11.3124 6.13157 14.8784 6.12415 19.2767V58.6034C6.12415 59.7945 5.15313 60.756 3.9502 60.756C2.74726 60.756 1.77625 59.7945 1.77625 58.6034V19.2767C1.78349 12.5034 7.33422 7.00719 14.182 7.00003H14.1822ZM97.6596 7.00003H134.594H134.594C141.442 7.00719 146.993 12.5034 147 19.2767V58.6034C147 59.7945 146.029 60.756 144.826 60.756C143.623 60.756 142.652 59.7945 142.652 58.6034V19.2767C142.645 14.8784 139.043 11.3124 134.594 11.3052H97.6596C96.4639 11.3052 95.4857 10.3437 95.4857 9.15262C95.4857 7.96151 96.464 7.00003 97.6596 7.00003ZM53.5114 148.348C53.5114 149.539 52.5331 150.5 51.3375 150.5H14.4028C7.55505 150.493 2.00432 144.997 1.99707 138.224V101.645C1.99707 100.461 2.96809 99.4922 4.17103 99.4922C5.37396 99.4922 6.34498 100.461 6.34498 101.645V138.224C6.3524 142.622 9.95383 146.188 14.403 146.195H51.3375C52.5332 146.195 53.5114 147.157 53.5114 148.348ZM142.652 101.647C142.652 100.463 143.623 99.4947 144.826 99.4946C146.029 99.4946 147 100.463 147 101.647V138.226C146.993 144.999 141.442 150.495 134.594 150.503H97.6596C96.4639 150.503 95.4857 149.541 95.4857 148.35C95.4857 147.159 96.464 146.197 97.6596 146.197H134.594C139.043 146.19 142.645 142.624 142.652 138.226V101.647Z" fill="#1BB80E"/>
<path d="M14.1822 11.3052L14.1822 10.3052L14.1806 10.3052L14.1822 11.3052ZM6.12415 19.2767L5.12415 19.275V19.2767H6.12415ZM1.77625 19.2767L0.776245 19.2757V19.2767H1.77625ZM14.182 7.00003L14.182 6.00003L14.181 6.00003L14.182 7.00003ZM134.594 7.00003L134.595 6.00003H134.594V7.00003ZM147 19.2767L148 19.2767L148 19.2756L147 19.2767ZM142.652 19.2767L143.652 19.2767L143.652 19.275L142.652 19.2767ZM134.594 11.3052L134.596 10.3052H134.594V11.3052ZM14.4028 150.5L14.4018 151.5H14.4028V150.5ZM1.99707 138.224L0.997071 138.224L0.997072 138.225L1.99707 138.224ZM6.34498 138.224L5.34498 138.224L5.34499 138.225L6.34498 138.224ZM14.403 146.195L14.4014 147.195H14.403V146.195ZM144.826 99.4946L144.826 98.4946L144.826 98.4946L144.826 99.4946ZM147 138.226L148 138.227V138.226H147ZM134.594 150.503V151.503L134.595 151.503L134.594 150.503ZM134.594 146.197V147.197L134.596 147.197L134.594 146.197ZM142.652 138.226L143.652 138.228V138.226H142.652ZM51.1166 6.00003H14.1822V8.00003H51.1166V6.00003ZM54.2906 9.15262C54.2906 7.39776 52.853 6.00003 51.1166 6.00003V8.00003C51.7715 8.00003 52.2906 8.52525 52.2906 9.15262H54.2906ZM51.1166 12.3052C52.8531 12.3052 54.2906 10.9075 54.2906 9.15262H52.2906C52.2906 9.78001 51.7716 10.3052 51.1166 10.3052V12.3052ZM14.1822 12.3052H51.1166V10.3052H14.1822V12.3052ZM7.12415 19.2784C7.13062 15.4409 10.2758 12.3115 14.1838 12.3052L14.1806 10.3052C9.19025 10.3133 5.13251 14.3159 5.12415 19.275L7.12415 19.2784ZM7.12415 58.6034V19.2767H5.12415V58.6034H7.12415ZM3.9502 61.756C5.6961 61.756 7.12415 60.3561 7.12415 58.6034H5.12415C5.12415 59.2329 4.61017 59.756 3.9502 59.756V61.756ZM0.776245 58.6034C0.776245 60.3561 2.20431 61.756 3.9502 61.756V59.756C3.29021 59.756 2.77625 59.233 2.77625 58.6034H0.776245ZM0.776245 19.2767V58.6034H2.77625V19.2767H0.776245ZM14.181 6.00003C6.7914 6.00776 0.784091 11.9412 0.776246 19.2757L2.77624 19.2778C2.78289 13.0655 7.87704 8.00663 14.1831 8.00003L14.181 6.00003ZM14.1822 6.00003H14.182V8.00003H14.1822V6.00003ZM134.594 6.00003H97.6596V8.00003H134.594V6.00003ZM134.594 6.00003H134.594V8.00003H134.594V6.00003ZM148 19.2756C147.992 11.9412 141.985 6.00776 134.595 6.00003L134.593 8.00003C140.899 8.00663 145.993 13.0655 146 19.2778L148 19.2756ZM148 58.6034V19.2767H146V58.6034H148ZM144.826 61.756C146.572 61.756 148 60.3561 148 58.6034H146C146 59.233 145.486 59.756 144.826 59.756V61.756ZM141.652 58.6034C141.652 60.3561 143.08 61.756 144.826 61.756V59.756C144.166 59.756 143.652 59.2329 143.652 58.6034H141.652ZM141.652 19.2767V58.6034H143.652V19.2767H141.652ZM134.592 12.3052C138.5 12.3115 141.646 15.4409 141.652 19.2784L143.652 19.275C143.644 14.3159 139.586 10.3133 134.596 10.3052L134.592 12.3052ZM97.6596 12.3052H134.594V10.3052H97.6596V12.3052ZM94.4857 9.15262C94.4857 10.9075 95.9231 12.3052 97.6596 12.3052V10.3052C97.0047 10.3052 96.4857 9.78001 96.4857 9.15262H94.4857ZM97.6596 6.00003C95.9232 6.00003 94.4857 7.39776 94.4857 9.15262H96.4857C96.4857 8.52525 97.0047 8.00003 97.6596 8.00003V6.00003ZM51.3375 151.5C53.0739 151.5 54.5114 150.103 54.5114 148.348H52.5114C52.5114 148.975 51.9924 149.5 51.3375 149.5V151.5ZM14.4028 151.5H51.3375V149.5H14.4028V151.5ZM0.997072 138.225C1.00492 145.559 7.01223 151.493 14.4018 151.5L14.4039 149.5C8.09787 149.494 3.00372 144.435 2.99707 138.223L0.997072 138.225ZM0.997071 101.645V138.224H2.99707V101.645H0.997071ZM4.17103 98.4922C2.42296 98.4922 0.997071 99.9014 0.997071 101.645H2.99707C2.99707 101.02 3.51322 100.492 4.17103 100.492V98.4922ZM7.34498 101.645C7.34498 99.9015 5.91911 98.4922 4.17103 98.4922V100.492C4.82882 100.492 5.34498 101.02 5.34498 101.645H7.34498ZM7.34498 138.224V101.645H5.34498V138.224H7.34498ZM14.4046 145.195C10.4966 145.189 7.35146 142.059 7.34498 138.222L5.34499 138.225C5.35335 143.184 9.41108 147.187 14.4014 147.195L14.4046 145.195ZM51.3375 145.195H14.403V147.195H51.3375V145.195ZM54.5114 148.348C54.5114 146.593 53.0739 145.195 51.3375 145.195V147.195C51.9924 147.195 52.5114 147.72 52.5114 148.348H54.5114ZM144.826 98.4946C143.078 98.4947 141.652 99.9039 141.652 101.647H143.652C143.652 101.023 144.168 100.495 144.826 100.495L144.826 98.4946ZM148 101.647C148 99.9039 146.574 98.4946 144.826 98.4946V100.495C145.484 100.495 146 101.023 146 101.647H148ZM148 138.226V101.647H146V138.226H148ZM134.595 151.503C141.985 151.495 147.992 145.561 148 138.227L146 138.225C145.993 144.437 140.899 149.496 134.593 149.503L134.595 151.503ZM97.6596 151.503H134.594V149.503H97.6596V151.503ZM94.4857 148.35C94.4857 150.105 95.9231 151.503 97.6596 151.503V149.503C97.0047 149.503 96.4857 148.977 96.4857 148.35H94.4857ZM97.6596 145.197C95.9232 145.197 94.4857 146.595 94.4857 148.35H96.4857C96.4857 147.723 97.0047 147.197 97.6596 147.197V145.197ZM134.594 145.197H97.6596V147.197H134.594V145.197ZM141.652 138.224C141.646 142.062 138.501 145.191 134.592 145.197L134.596 147.197C139.586 147.189 143.644 143.187 143.652 138.228L141.652 138.224ZM141.652 101.647V138.226H143.652V101.647H141.652Z" fill="#1BB80E" mask="url(#path-11-outside-1_1_1451)"/>
<defs>
<clipPath id="clip0_1_1451">
<rect width="146" height="146" fill="white"/>
</clipPath>
</defs>
</svg>
