<svg width="148" height="187" viewBox="0 0 148 187" fill="none" xmlns="http://www.w3.org/2000/svg">
<g clip-path="url(#clip0_148_1628)">
<path d="M97.5303 6.65653C109.649 6.65653 121.783 6.65653 133.902 6.65653C134.535 6.65653 135.182 6.71671 135.784 6.86715C139.202 7.72464 141.4 10.6431 141.4 14.3138C141.4 20.7225 141.4 27.1462 141.4 33.5548V53.5932C141.4 55.2781 142.559 56.4515 144.185 56.4364C144.998 56.4364 145.675 56.1356 146.157 55.6391C146.639 55.1427 146.925 54.4356 146.925 53.6082C146.94 45.8757 146.955 38.1432 146.97 30.3956C146.97 25.3861 146.97 20.3915 146.97 15.3819C146.97 14.4793 146.97 13.5767 146.879 12.6741C146.338 6.25035 140.677 1.07529 134.203 1.07529H105.795C102.935 1.07529 100.09 1.07529 97.2292 1.07529C95.8292 1.07529 94.685 2.09826 94.5194 3.46725C94.4893 3.69291 94.4893 3.90352 94.5194 4.11413C94.6398 5.58842 95.8442 6.65653 97.5303 6.65653Z" fill="#E0E0E0"/>
<path d="M97.5303 6.65653C109.649 6.65653 121.783 6.65653 133.902 6.65653C134.535 6.65653 135.182 6.71671 135.784 6.86715C139.202 7.72464 141.4 10.6431 141.4 14.3138C141.4 20.7225 141.4 27.1462 141.4 33.5548V53.5932C141.4 55.2781 142.559 56.4515 144.185 56.4364C144.998 56.4364 145.675 56.1356 146.157 55.6391C146.639 55.1427 146.925 54.4356 146.925 53.6082C146.94 45.8757 146.955 38.1432 146.97 30.3956C146.97 25.3861 146.97 20.3915 146.97 15.3819C146.97 14.4793 146.97 13.5767 146.879 12.6741C146.338 6.25035 140.677 1.07529 134.203 1.07529H105.795C102.935 1.07529 100.09 1.07529 97.2292 1.07529C95.8292 1.07529 94.685 2.09826 94.5194 3.46725C94.4893 3.69291 94.4893 3.90352 94.5194 4.11413C94.6398 5.58842 95.8442 6.65653 97.5303 6.65653Z" fill="#E0E0E0"/>
<path d="M112.735 128.496C113.338 128.045 113.88 127.473 114.376 126.901C122.596 117.273 126.631 106.081 126.706 93.444C126.706 92.5865 126.721 91.729 126.706 90.8715C126.601 87.5017 126.149 84.177 125.457 80.8825C123.56 71.8562 119.179 64.1538 113.112 57.3389C112.224 56.346 111.004 56.331 110.026 57.2336C108.806 58.3469 108.806 59.9114 110.086 61.3255C113.037 64.6201 115.49 68.2457 117.372 72.2473C121.362 80.7019 122.762 89.5778 121.603 98.8447C120.458 108.052 116.921 116.235 110.884 123.306C110.312 123.968 109.785 124.675 109.348 125.427C108.806 126.36 109.047 127.232 109.905 128.015C110.899 128.932 111.862 129.128 112.75 128.481L112.735 128.496Z" fill="#E0E0E0"/>
<path d="M101.324 110.805C99.879 112.866 98.1628 114.731 96.552 116.672C96.1003 117.228 95.7691 117.83 95.7842 118.793C95.7842 119.59 96.2057 120.312 97.0939 120.779C98.3435 121.441 99.7285 121.08 100.978 119.771C103.101 117.529 105.058 115.182 106.684 112.55C111.05 105.449 112.916 97.7316 112.179 89.4275C111.501 81.8755 108.867 75.0757 104.109 69.1635C102.995 67.7794 101.776 66.4857 100.526 65.222C99.4274 64.1088 97.5606 64.0787 96.5218 65.0716C95.468 66.0795 95.4981 67.4034 96.6573 68.7573C97.666 69.9458 98.765 71.059 99.7285 72.2775C105.088 78.9419 107.406 86.6143 106.925 95.114C106.593 100.876 104.636 106.111 101.324 110.805Z" fill="#E0E0E0"/>
<path d="M96.8678 92.9777C96.8076 92.1503 96.7474 90.9318 96.642 89.7433C95.9947 83.0188 93.4504 77.0915 89.0545 71.9766C88.6028 71.4501 88.0759 71.1041 87.3684 71.074C86.3597 71.0289 85.5769 71.4952 85.0499 72.3226C84.4628 73.2704 84.5832 74.2783 85.1403 75.196C85.5317 75.8429 86.0134 76.4597 86.4801 77.0765C90.4847 82.3418 92.4267 88.2239 91.8396 94.8883C91.3879 100.048 89.6567 104.682 86.3898 108.729C85.7726 109.481 85.1704 110.308 84.8091 111.181C84.3574 112.264 84.9295 113.513 85.9532 114.129C86.8264 114.656 87.8953 114.49 88.7684 113.648C89.0394 113.392 89.2803 113.106 89.5212 112.821C94.2935 107.209 96.7324 100.725 96.8678 92.9777Z" fill="#E0E0E0"/>
<path d="M144.185 94.2865C142.529 94.2865 141.415 95.49 141.415 97.2351C141.415 109.33 141.385 121.441 141.43 133.536C141.445 138.29 137.696 141.374 133.707 141.343C121.753 141.253 109.8 141.313 97.8315 141.313H97.7863C97.5906 141.313 97.3949 141.313 97.1992 141.313C95.3475 141.449 94.0979 143.179 94.6098 144.894C95.0012 146.188 96.0701 146.925 97.5755 146.925C109.785 146.925 122.009 146.925 134.219 146.925C134.264 146.925 134.294 146.925 134.339 146.925C134.911 146.925 135.483 146.849 136.04 146.759C136.146 146.744 136.266 146.729 136.371 146.714C142.574 145.556 146.97 140.245 146.97 133.927V115.874V115.348C146.97 109.24 146.97 103.132 146.97 97.0245C146.97 95.4599 145.765 94.2865 144.215 94.2865H144.185Z" fill="#E0E0E0"/>
<path d="M61.1584 34.9237C56.5818 28.3797 52.7127 21.0233 51.9901 13.0802C51.975 12.8695 51.96 12.6589 51.9449 12.4483L22.5281 12.2678C19.8033 12.2528 16.8074 12.328 14.7599 14.1182C12.306 16.2394 12.1404 19.9251 12.1555 23.1595C12.2007 33.4795 12.2609 43.7996 12.306 54.1196C12.306 55.3532 12.306 56.647 11.7641 57.7602C11.2221 58.8735 9.97257 59.746 8.7682 59.4451C7.03691 58.9938 6.69066 56.7372 6.69066 54.947C6.66055 44.642 6.64549 34.3521 6.61538 24.0471C6.61538 19.2331 6.79604 13.8925 10.1231 10.4174C12.6824 7.73962 16.416 6.88212 20.2097 6.62638C27.8424 6.62638 35.4601 6.62638 43.0928 6.62638C44.8843 6.62638 46.6608 6.64142 48.4523 6.65646C48.6931 6.65646 48.8888 6.65646 49.0695 6.62638H50.4696C52.1406 6.62638 53.345 5.55827 53.4805 4.09902C53.4956 3.88841 53.4805 3.67779 53.4805 3.45214C53.3149 2.08315 52.1858 1.07522 50.7707 1.06018C50.3792 1.06018 50.0029 1.06018 49.6115 1.06018C49.4308 1.04513 49.22 1.03009 48.9641 1.03009L19.4118 1C18.2978 1 17.1386 1.01504 15.9944 1.07522H13.7814C11.4931 1.07522 9.31017 1.73715 7.41328 2.85039C5.5465 3.70788 3.9206 4.95652 2.80656 6.76177C1.75273 8.47676 1.31615 10.4625 1.13549 12.4784C1.13549 12.5536 1.10538 12.6288 1.10538 12.7191C1.04516 13.4412 1.03011 14.1633 1.01505 14.8854C1 15.427 1 15.9686 1 16.5101C1 18.0897 1 19.6844 1 21.264C1 24.3179 1 27.3868 1 30.4407C1 35.014 1.01505 39.5873 1.03011 44.1606C1.04516 60.769 1.06022 77.3924 1.07527 94.0007C1.07527 94.1211 1.04516 94.2414 1.04516 94.3768C1.03011 102.109 1.01505 109.842 1 117.589C1 122.599 1 127.593 1 132.603C1 133.506 1 134.408 1.09033 135.311C1.64735 141.78 7.29284 146.955 13.7663 146.955H15.8589C16.988 147 18.1021 147.015 19.186 147.015C26.1112 147 33.0513 146.97 39.9765 146.955H42.1594C45.0198 146.955 47.8651 146.955 50.7255 146.955C52.1256 146.955 53.2697 145.932 53.4353 144.563C53.4655 144.337 53.4655 144.127 53.4353 143.916C53.3149 142.442 52.1105 141.389 50.4244 141.389C39.0431 141.389 27.6467 141.389 16.2654 141.389C14.0223 140.877 11.9297 139.99 10.2887 138.38C7.62405 135.762 6.79604 132.016 6.54011 128.18C6.54011 123.607 6.54011 119.049 6.54011 114.475C6.54011 108.774 6.54011 103.072 6.54011 97.3856V93.3237C6.55517 91.8043 6.75088 89.984 8.10579 89.307C9.35533 88.6752 10.9511 89.5327 11.6286 90.7512C12.306 91.9698 12.306 93.4441 12.306 94.8432C12.2458 104.907 12.1705 114.972 12.1103 125.036C12.0802 128.857 12.4566 133.415 15.7837 135.311C17.4096 136.229 19.3667 136.259 21.2334 136.259C33.5482 136.259 45.8478 136.259 58.1625 136.259C58.84 136.259 59.5626 136.244 60.0895 135.822C60.6164 135.401 60.8121 134.679 60.9025 134.017C62.0617 126.3 56.5215 118.251 59.3067 110.955C60.24 108.533 62.0165 105.78 60.5863 103.614C59.939 102.636 58.8098 102.139 57.7109 101.733C52.4568 99.8377 46.721 99.3412 41.6325 97.0396C40.9249 96.7236 40.1571 96.2723 40.0066 95.5051C39.7808 94.3467 41.1056 93.5343 42.2196 93.0981C48.3017 90.7212 54.3838 88.3292 60.4809 85.9523C61.2337 85.6514 62.0165 85.3355 62.5585 84.7337C64.0037 83.124 62.9499 80.4914 61.3842 78.987C59.8185 77.4826 57.756 76.3543 56.8527 74.3987C56.6269 73.9022 56.4764 73.3155 56.7173 72.8341C56.9431 72.3677 57.4399 72.127 57.9066 71.9014C63.9435 69.1183 70.2514 66.5157 75.0087 61.8822C75.8969 61.0247 76.755 60.0168 76.9356 58.7982C77.1464 57.3841 76.3937 56.0151 75.641 54.7966C71.3203 47.8313 65.8103 41.6784 61.1283 34.9689L61.1584 34.9237Z" fill="#E0E0E0"/>
</g>
<mask id="path-8-outside-1_148_1628" maskUnits="userSpaceOnUse" x="0.776367" y="0.575684" width="148" height="147" fill="black">
<rect fill="white" x="0.776367" y="0.575684" width="148" height="147"/>
<path fill-rule="evenodd" clip-rule="evenodd" d="M14.1823 1.57568H51.1168C52.3124 1.57568 53.2907 2.5467 53.2907 3.74964C53.2907 4.95258 52.3125 5.9236 51.1168 5.9236H14.1823C9.73313 5.93084 6.13169 9.53226 6.12427 13.9742V53.6913C6.12427 54.8942 5.15326 55.8652 3.95032 55.8652C2.74738 55.8652 1.77637 54.8942 1.77637 53.6913V13.9742C1.78361 7.13366 7.33434 1.58292 14.1821 1.57568H14.1823ZM97.6597 1.57568H134.594H134.594C141.442 1.58292 146.993 7.13366 147 13.9742V53.6913C147 54.8942 146.029 55.8652 144.826 55.8652C143.623 55.8652 142.652 54.8942 142.652 53.6913V13.9742C142.645 9.53226 139.043 5.93084 134.594 5.9236H97.6597C96.464 5.9236 95.4858 4.95258 95.4858 3.74964C95.4858 2.5467 96.4641 1.57568 97.6597 1.57568ZM53.5115 144.326C53.5115 145.529 52.5332 146.5 51.3376 146.5H14.403C7.55518 146.493 2.00445 140.942 1.9972 134.102V97.1598C1.9972 95.9641 2.96822 94.9859 4.17116 94.9859C5.3741 94.9859 6.34511 95.9642 6.34511 97.1598V134.102C6.35253 138.544 9.95397 142.145 14.4032 142.152H51.3376C52.5333 142.152 53.5115 143.123 53.5115 144.326ZM142.652 97.1622C142.652 95.9666 143.623 94.9884 144.826 94.9883C146.029 94.9883 147 95.9666 147 97.1622V134.104C146.993 140.945 141.442 146.495 134.594 146.503H97.6597C96.464 146.503 95.4858 145.532 95.4858 144.329C95.4858 143.126 96.4641 142.155 97.6597 142.155H134.594C139.044 142.147 142.645 138.546 142.652 134.104V97.1622Z"/>
</mask>
<path fill-rule="evenodd" clip-rule="evenodd" d="M14.1823 1.57568H51.1168C52.3124 1.57568 53.2907 2.5467 53.2907 3.74964C53.2907 4.95258 52.3125 5.9236 51.1168 5.9236H14.1823C9.73313 5.93084 6.13169 9.53226 6.12427 13.9742V53.6913C6.12427 54.8942 5.15326 55.8652 3.95032 55.8652C2.74738 55.8652 1.77637 54.8942 1.77637 53.6913V13.9742C1.78361 7.13366 7.33434 1.58292 14.1821 1.57568H14.1823ZM97.6597 1.57568H134.594H134.594C141.442 1.58292 146.993 7.13366 147 13.9742V53.6913C147 54.8942 146.029 55.8652 144.826 55.8652C143.623 55.8652 142.652 54.8942 142.652 53.6913V13.9742C142.645 9.53226 139.043 5.93084 134.594 5.9236H97.6597C96.464 5.9236 95.4858 4.95258 95.4858 3.74964C95.4858 2.5467 96.4641 1.57568 97.6597 1.57568ZM53.5115 144.326C53.5115 145.529 52.5332 146.5 51.3376 146.5H14.403C7.55518 146.493 2.00445 140.942 1.9972 134.102V97.1598C1.9972 95.9641 2.96822 94.9859 4.17116 94.9859C5.3741 94.9859 6.34511 95.9642 6.34511 97.1598V134.102C6.35253 138.544 9.95397 142.145 14.4032 142.152H51.3376C52.5333 142.152 53.5115 143.123 53.5115 144.326ZM142.652 97.1622C142.652 95.9666 143.623 94.9884 144.826 94.9883C146.029 94.9883 147 95.9666 147 97.1622V134.104C146.993 140.945 141.442 146.495 134.594 146.503H97.6597C96.464 146.503 95.4858 145.532 95.4858 144.329C95.4858 143.126 96.4641 142.155 97.6597 142.155H134.594C139.044 142.147 142.645 138.546 142.652 134.104V97.1622Z" fill="#BC0000"/>
<path d="M14.1823 5.9236V4.92359L14.1807 4.9236L14.1823 5.9236ZM6.12427 13.9742L5.12427 13.9726V13.9742H6.12427ZM1.77637 13.9742L0.776367 13.9732V13.9742H1.77637ZM14.1821 1.57568V0.575683L14.1811 0.575684L14.1821 1.57568ZM134.594 1.57568L134.595 0.575684H134.594V1.57568ZM147 13.9742H148V13.9732L147 13.9742ZM142.652 13.9742H143.652V13.9726L142.652 13.9742ZM134.594 5.9236L134.596 4.9236H134.594V5.9236ZM14.403 146.5L14.4019 147.5H14.403V146.5ZM1.9972 134.102H0.997202L0.997203 134.103L1.9972 134.102ZM6.34511 134.102H5.34511L5.34512 134.103L6.34511 134.102ZM14.4032 142.152L14.4015 143.152H14.4032V142.152ZM144.826 94.9883V93.9883H144.826L144.826 94.9883ZM147 134.104L148 134.105V134.104H147ZM134.594 146.503V147.503H134.595L134.594 146.503ZM134.594 142.155V143.155H134.596L134.594 142.155ZM142.652 134.104L143.652 134.106V134.104H142.652ZM51.1168 0.575684H14.1823V2.57568H51.1168V0.575684ZM54.2907 3.74964C54.2907 1.99224 52.8625 0.575684 51.1168 0.575684V2.57568C51.7623 2.57568 52.2907 3.10117 52.2907 3.74964H54.2907ZM51.1168 6.9236C52.8626 6.9236 54.2907 5.50703 54.2907 3.74964H52.2907C52.2907 4.39813 51.7623 4.9236 51.1168 4.9236V6.9236ZM14.1823 6.9236H51.1168V4.9236H14.1823V6.9236ZM7.12427 13.9759C7.13077 10.0855 10.2852 6.92994 14.184 6.92359L14.1807 4.9236C9.18106 4.93174 5.13261 8.97903 5.12427 13.9726L7.12427 13.9759ZM7.12427 53.6913V13.9742H5.12427V53.6913H7.12427ZM3.95032 56.8652C5.70555 56.8652 7.12427 55.4464 7.12427 53.6913H5.12427C5.12427 54.3419 4.60096 54.8652 3.95032 54.8652V56.8652ZM0.776367 53.6913C0.776367 55.4465 2.1951 56.8652 3.95032 56.8652V54.8652C3.29966 54.8652 2.77637 54.3419 2.77637 53.6913H0.776367ZM0.776367 13.9742V53.6913H2.77637V13.9742H0.776367ZM14.1811 0.575684C6.7822 0.583501 0.784197 6.58076 0.776368 13.9732L2.77637 13.9753C2.78303 7.68655 7.88648 2.58234 14.1832 2.57568L14.1811 0.575684ZM14.1823 0.575684H14.1821V2.57568H14.1823V0.575684ZM134.594 0.575684H97.6597V2.57568H134.594V0.575684ZM134.594 0.575684H134.594V2.57568H134.594V0.575684ZM148 13.9732C147.992 6.58076 141.994 0.583501 134.595 0.575684L134.593 2.57568C140.89 2.58234 145.993 7.68655 146 13.9753L148 13.9732ZM148 53.6913V13.9742H146V53.6913H148ZM144.826 56.8652C146.581 56.8652 148 55.4465 148 53.6913H146C146 54.3419 145.477 54.8652 144.826 54.8652V56.8652ZM141.652 53.6913C141.652 55.4464 143.071 56.8652 144.826 56.8652V54.8652C144.176 54.8652 143.652 54.3419 143.652 53.6913H141.652ZM141.652 13.9742V53.6913H143.652V13.9742H141.652ZM134.593 6.92359C138.491 6.92994 141.646 10.0855 141.652 13.9759L143.652 13.9726C143.644 8.97903 139.595 4.93174 134.596 4.9236L134.593 6.92359ZM97.6597 6.9236H134.594V4.9236H97.6597V6.9236ZM94.4858 3.74964C94.4858 5.50703 95.9139 6.9236 97.6597 6.9236V4.9236C97.0142 4.9236 96.4858 4.39813 96.4858 3.74964H94.4858ZM97.6597 0.575684C95.914 0.575684 94.4858 1.99224 94.4858 3.74964H96.4858C96.4858 3.10117 97.0142 2.57568 97.6597 2.57568V0.575684ZM51.3376 147.5C53.0833 147.5 54.5115 146.084 54.5115 144.326H52.5115C52.5115 144.975 51.9831 145.5 51.3376 145.5V147.5ZM14.403 147.5H51.3376V145.5H14.403V147.5ZM0.997203 134.103C1.00503 141.495 7.00304 147.492 14.4019 147.5L14.404 145.5C8.10731 145.494 3.00386 140.389 2.9972 134.101L0.997203 134.103ZM0.997202 97.1598V134.102H2.9972V97.1598H0.997202ZM4.17116 93.9859C2.41377 93.9859 0.997202 95.414 0.997202 97.1598H2.9972C2.9972 96.5142 3.52267 95.9859 4.17116 95.9859V93.9859ZM7.34511 97.1598C7.34511 95.4141 5.92856 93.9859 4.17116 93.9859V95.9859C4.81963 95.9859 5.34511 96.5143 5.34511 97.1598H7.34511ZM7.34511 134.102V97.1598H5.34511V134.102H7.34511ZM14.4048 141.152C10.506 141.146 7.35161 137.99 7.34511 134.1L5.34512 134.103C5.35346 139.097 9.4019 143.144 14.4015 143.152L14.4048 141.152ZM51.3376 141.152H14.4032V143.152H51.3376V141.152ZM54.5115 144.326C54.5115 142.569 53.0834 141.152 51.3376 141.152V143.152C51.9832 143.152 52.5115 143.678 52.5115 144.326H54.5115ZM144.826 93.9883C143.069 93.9884 141.652 95.4165 141.652 97.1622H143.652C143.652 96.5167 144.178 95.9883 144.826 95.9883L144.826 93.9883ZM148 97.1622C148 95.4165 146.583 93.9883 144.826 93.9883V95.9883C145.474 95.9883 146 96.5167 146 97.1622H148ZM148 134.104V97.1622H146V134.104H148ZM134.595 147.503C141.994 147.495 147.992 141.498 148 134.105L146 134.103C145.993 140.392 140.89 145.496 134.593 145.503L134.595 147.503ZM97.6597 147.503H134.594V145.503H97.6597V147.503ZM94.4858 144.329C94.4858 146.086 95.9139 147.503 97.6597 147.503V145.503C97.0141 145.503 96.4858 144.977 96.4858 144.329H94.4858ZM97.6597 141.155C95.914 141.155 94.4858 142.571 94.4858 144.329H96.4858C96.4858 143.68 97.0142 143.155 97.6597 143.155V141.155ZM134.594 141.155H97.6597V143.155H134.594V141.155ZM141.652 134.102C141.646 137.993 138.492 141.148 134.593 141.155L134.596 143.155C139.596 143.147 143.644 139.099 143.652 134.106L141.652 134.102ZM141.652 97.1622V134.104H143.652V97.1622H141.652Z" fill="#BC0000" mask="url(#path-8-outside-1_148_1628)"/>
<circle cx="77.5" cy="145.5" r="41.5" fill="white"/>
<circle opacity="0.2" cx="77.9109" cy="145.911" r="36.9802" fill="#BC0000"/>
<g clip-path="url(#clip1_148_1628)">
<path d="M77.585 175C69.7379 175 62.2126 171.882 56.6654 166.335C51.1183 160.787 48 153.262 48 145.415C48 137.568 51.118 130.043 56.6654 124.495C62.2129 118.948 69.7385 115.83 77.585 115.83C85.4315 115.83 92.9574 118.948 98.5046 124.495C104.052 130.043 107.17 137.568 107.17 145.415C107.17 153.262 104.052 160.787 98.5046 166.335C92.9571 171.882 85.4315 175 77.585 175V175ZM88.49 137.131C89.0563 136.56 89.0563 135.643 88.49 135.072L87.9399 134.522C87.369 133.955 86.4515 133.955 85.8805 134.522L77.5967 142.805L69.3129 134.522C68.7443 133.955 67.8244 133.955 67.2535 134.522L66.7034 135.072C66.1371 135.643 66.1371 136.56 66.7034 137.131L74.9872 145.415L66.7034 153.699C66.1371 154.27 66.1371 155.187 66.7034 155.758L67.2535 156.308C67.8244 156.875 68.7443 156.875 69.3129 156.308L77.5967 148.025L85.8805 156.308C86.4514 156.875 87.369 156.875 87.9399 156.308L88.49 155.758C89.0563 155.187 89.0563 154.27 88.49 153.699L80.2062 145.415L88.49 137.131Z" fill="#BC0000"/>
</g>
<defs>
<clipPath id="clip0_148_1628">
<rect width="146" height="146" fill="white" transform="translate(1 1)"/>
</clipPath>
<clipPath id="clip1_148_1628">
<rect width="59.17" height="59.17" fill="white" transform="matrix(1 0 0 -1 48 175)"/>
</clipPath>
</defs>
</svg>
