<svg width="146" height="146" viewBox="0 0 146 146" fill="none" xmlns="http://www.w3.org/2000/svg">
    <g clip-path="url(#clip0_355_1528)">
        <path fill-rule="evenodd" clip-rule="evenodd" d="M50.9902 12.0801C51.7128 20.0232 55.5819 27.3796 60.1585 33.9236L60.1284 33.9688C62.0439 36.7137 64.098 39.3655 66.1525 42.0179C69.1198 45.8488 72.0881 49.6808 74.6412 53.7965C75.3939 55.015 76.1466 56.384 75.9359 57.7981C75.7551 59.0167 74.897 60.0246 74.0089 60.8821C69.7271 65.0524 64.1892 67.5776 58.7233 70.0699C58.1163 70.3467 57.5102 70.6231 56.9067 70.9013C56.44 71.1269 55.9432 71.3676 55.7174 71.834C55.4765 72.3154 55.627 72.9021 55.8529 73.3985C56.4798 74.7559 57.6652 75.7147 58.8554 76.6774C59.3799 77.1017 59.9054 77.5267 60.3843 77.9869C61.95 79.4913 63.0038 82.1239 61.5586 83.7336C61.0166 84.3354 60.2338 84.6513 59.481 84.9522C55.9358 86.3343 52.3957 87.7214 48.8576 89.1078C46.3109 90.1057 43.7653 91.1032 41.2197 92.098C40.1057 92.5342 38.7809 93.3466 39.0067 94.505C39.1572 95.2722 39.925 95.7235 40.6326 96.0395C43.5034 97.338 46.5802 98.0619 49.6603 98.7867C52.0397 99.3465 54.4211 99.9069 56.711 100.733C57.81 101.139 58.9391 101.636 59.5864 102.614C60.7431 104.366 59.8025 106.501 58.9066 108.535C58.6947 109.016 58.4854 109.492 58.3068 109.955C56.7703 113.98 57.7677 118.234 58.7762 122.536C59.5956 126.031 60.4223 129.557 59.9026 133.017C59.8122 133.679 59.6165 134.401 59.0896 134.822C58.5627 135.244 57.8401 135.259 57.1626 135.259H20.2336C18.3668 135.259 16.4097 135.229 14.7838 134.311C11.4567 132.415 11.0803 127.857 11.1104 124.036C11.1405 119.021 11.1742 114.005 11.208 108.989C11.242 103.94 11.2759 98.8916 11.3061 93.8431C11.3061 92.444 11.3061 90.9697 10.6287 89.7511C9.95127 88.5326 8.35548 87.6751 7.10594 88.3069C5.75102 88.9839 5.55531 90.8042 5.54026 92.3236V127.18C5.79619 131.016 6.62419 134.762 9.28887 137.38C10.9298 138.99 13.0224 139.877 15.2655 140.389H49.4245C51.1106 140.389 52.315 141.442 52.4355 142.916C52.4656 143.127 52.4656 143.337 52.4355 143.563C52.2709 144.924 50.9156 145.988 49.524 146H12.6001C5.65523 146 0.0226392 140.381 0.000214075 133.441C0.00083019 132.643 0.00064286 132.439 0.000420186 132.197C0.00028961 132.055 0.00014688 131.899 0.00014688 131.603V133.4C0.00014688 133.414 0.00016929 133.428 0.000214075 133.441C9.02377e-05 133.602 -6.60582e-05 133.786 -0.00026105 134C-0.00026105 139.5 4.99974 146 12.4997 146H14.9997C15.4897 146 16.0042 146.004 16.5291 146.007C17.0756 146.011 17.6333 146.015 18.1861 146.015C21.6487 146.007 25.1209 146.011 28.593 146.015C32.0651 146.019 35.5372 146.022 38.9997 146.015L40.9997 146H49.4997C49.5078 146 49.5159 146 49.524 146H133.4L133.428 146H133.531C134.5 146 133.5 146 134 146C134.252 145.982 134.502 145.958 134.75 145.928C135.487 145.85 136.205 145.708 136.899 145.508C141.53 144.228 144.873 140.715 145.783 135.742C145.835 135.464 145.878 135.183 145.912 134.899C145.988 134.286 146.028 133.652 146.031 133V114.5C146.031 111.452 146.024 108.367 146.016 105.281L146.016 105.262C146.009 102.17 146.002 99.078 146.002 96.0245C146.002 95.9934 146.001 95.9625 146 95.9317V52.5216C146.007 48.7273 146.004 44.9616 146 41.1944V12.5999C146 12.4709 145.998 12.3423 145.994 12.2142C145.996 12.1447 145.998 12.0733 146 11.9997C145.695 6.63845 142.391 2.1473 137.215 0.587767C136.012 0.205906 134.73 -0.000111933 133.4 -0.000111933H133.162L133.093 -0.000264522H96L95.9715 -0.000111933H48.5199C48.5132 -0.000145799 48.5066 -0.000163022 48.5 -0.000163022C48.3861 -0.00964341 48.2931 -0.0071547 48.1758 -0.00401742C48.1069 -0.00217636 48.0298 -0.000111941 47.9351 -0.000111941H18.4119C18.4065 -0.000111941 18.4011 -0.000111938 18.3957 -0.000111933H15.2816C15.1854 -0.000121246 15.0913 -0.000132435 14.9997 -0.000145787L12.5 -0.000111941C10.2117 -0.000111941 7.99996 0.619566 6.49996 1.49989C4.99996 2.38021 3.49996 3.62627 1.99996 5.62627C0.946134 7.34126 0.180395 9.48414 -0.00026105 11.5C-0.00026105 11.7248 0.0025259 11.9656 0.0059999 12.2121C0.00210722 12.3409 0.00014688 12.4702 0.00014688 12.5999V15.51L2.97106e-05 29.5C2.97106e-05 31.0405 -0.00170519 32.5561 -0.00343078 34.0635C-0.00682788 37.0311 -0.0101889 39.9672 -0.000205426 43C-8.51182e-05 43.1327 3.2302e-05 43.2655 0.00014688 43.3982V67.1591C2.04574e-05 67.4394 -0.000106393 67.7197 -0.000233244 68.0001C-0.00401082 76.348 -0.0077884 84.6959 -0.00026105 93C-0.00026105 93.0584 -0.000141702 93.146 -1.88518e-05 93.2362C3.97954e-05 93.2792 9.92403e-05 93.3229 0.00014688 93.3642V93.5511C-0.00721609 97.3829 -0.00355897 101.185 0.00014688 104.988V116.589C0.00767541 112.715 0.00393404 108.875 0.000194464 105.037C0.000178603 105.021 0.000162741 105.005 0.00014688 104.988V93.5511C0.000179583 93.534 0.000212504 93.517 0.000245643 93.5C0.000245643 93.4617 0.000205067 93.4146 0.00014688 93.3642V67.1591C0.00372512 59.225 0.00696044 51.2922 0.00014688 43.3982V15.51C0.00014688 14.9685 0.000146876 14.4269 0.0152015 13.8853C0.0243007 13.4488 0.0167519 12.9403 0.00935553 12.4421C0.00821269 12.3651 0.00707349 12.2883 0.0059999 12.2121C0.210926 5.43274 5.77108 -0.000111933 12.6001 -0.000111933H15.2816C15.9211 -5.00432e-05 16.6547 -7.10944e-05 17.3736 -9.17246e-05C17.7218 -0.000101719 18.0666 -0.000111614 18.3957 -0.000111933H48.5199C48.7105 0.000855471 48.923 0.0154028 49.1354 0.0299501C49.3553 0.0450066 49.5751 0.0600632 49.7708 0.0600632C51.1859 0.0751069 52.315 1.08304 52.4806 2.45203C52.4806 2.52839 52.4824 2.60304 52.4841 2.67654C52.4874 2.82023 52.4906 2.95957 52.4806 3.09891C52.3451 4.55816 51.1408 5.62627 49.4697 5.62627H48.0696C47.8889 5.65635 47.6932 5.65635 47.4524 5.65635L47.4082 5.65598C45.6317 5.64106 43.8697 5.62627 42.0929 5.62627H19.2098C15.4161 5.88201 11.6825 6.73951 9.12326 9.4173C5.79619 12.8924 5.61553 18.233 5.61553 23.047C5.63059 28.2012 5.64188 33.3516 5.65318 38.5021C5.66447 43.6491 5.67575 48.7961 5.6908 53.9469C5.6908 55.7371 6.03706 57.9937 7.76835 58.445C8.97272 58.7459 10.2222 57.8734 10.7642 56.7601C11.3061 55.6469 11.3061 54.3531 11.3061 53.1195C11.2835 47.9423 11.2571 42.7651 11.2307 37.5879C11.2044 32.4451 11.1782 27.3022 11.1556 22.1594C11.1405 18.925 11.3061 15.2393 13.7601 13.1181C15.8075 11.3279 18.8034 11.2527 21.5283 11.2677L50.945 11.4482L50.9902 12.0801ZM95.9715 -0.000111933H133.162C134.611 0.0062569 135.968 0.211841 137.215 0.587767C142.192 2.16706 145.83 6.75408 145.994 12.2142C145.982 12.7659 145.987 13.1981 145.993 13.6517C145.997 13.9175 146 14.1908 146 14.4997V29.4997C145.993 33.3742 145.996 37.215 146 41.054L146 41.1944V52.5216L146 52.5931C146 53.4205 145.639 54.1426 145.157 54.639C144.675 55.1355 143.998 55.4363 143.185 55.4363C141.559 55.4514 140.4 54.278 140.4 52.5931V13.3137C140.4 9.64303 138.202 6.72453 134.784 5.86704C134.182 5.7166 133.535 5.65642 132.902 5.65642H96.5306C94.8445 5.65642 93.6401 4.58831 93.5197 3.11402C93.4896 2.90341 93.4896 2.6928 93.5197 2.46714C93.6841 1.10747 94.5875 0.0147099 95.9715 -0.000111933ZM146 95.9317C145.954 94.4137 144.767 93.2865 143.247 93.2865H143.217C141.561 93.2865 140.447 94.49 140.447 96.2351C140.447 99.6896 140.444 103.145 140.442 106.602V106.604C140.436 115.248 140.429 123.896 140.462 132.536C140.477 137.29 136.728 140.374 132.739 140.344C124.21 140.279 115.682 140.291 107.148 140.304H107.145C103.719 140.309 100.292 140.314 96.8631 140.314H96.2308C94.3791 140.449 93.1296 142.179 93.6414 143.894C94.0328 145.188 95.0254 146 96.5309 146H133.428C133.875 145.999 134.315 145.975 134.75 145.928C135.492 145.839 136.21 145.698 136.899 145.508C141.423 144.203 144.902 140.43 145.783 135.742C145.833 135.465 145.877 135.184 145.912 134.899C145.97 134.407 146 133.907 146 133.4V95.9317ZM113.377 125.901C112.88 126.473 112.338 127.045 111.736 127.496L111.751 127.481C110.862 128.128 109.899 127.932 108.905 127.015C108.047 126.232 107.806 125.36 108.348 124.427C108.785 123.675 109.312 122.968 109.884 122.306C115.921 115.235 119.459 107.052 120.603 97.8446C121.762 88.5776 120.362 79.7018 116.372 71.2472C114.491 67.2455 112.037 63.62 109.086 60.3254C107.806 58.9113 107.806 57.3467 109.026 56.2335C110.004 55.3309 111.224 55.3459 112.112 56.3388C118.179 63.1536 122.56 70.856 124.457 79.8823C125.149 83.1769 125.601 86.5016 125.706 89.8714C125.716 90.4431 125.713 91.0147 125.709 91.5864C125.708 91.8722 125.706 92.1581 125.706 92.4439C125.631 105.081 121.596 116.273 113.377 125.901ZM96.9204 114.055C96.4615 114.592 96.0027 115.129 95.5521 115.672C95.1004 116.228 94.7692 116.83 94.7843 117.793C94.7843 118.59 95.2058 119.312 96.094 119.779C97.3436 120.441 98.7286 120.08 99.9781 118.771C102.101 116.529 104.058 114.182 105.684 111.55C110.049 104.449 111.916 96.7315 111.179 88.4274C110.501 80.8754 107.867 74.0756 103.109 68.1634C101.995 66.7793 100.776 65.4856 99.5265 64.2219C98.4275 63.1087 96.5607 63.0786 95.522 64.0715C94.4681 65.0794 94.4982 66.4033 95.6574 67.7572C96.0679 68.2409 96.4933 68.7121 96.9185 69.183C97.538 69.8691 98.1572 70.5549 98.7286 71.2774C104.088 77.9418 106.406 85.6142 105.925 94.1139C105.593 99.8757 103.636 105.111 100.324 109.805C99.2833 111.289 98.1018 112.672 96.9204 114.055ZM95.8045 91.0074C95.8269 91.3654 95.8475 91.6944 95.8682 91.9776C95.7327 99.7252 93.2939 106.209 88.5215 111.821L88.5118 111.832C88.2743 112.113 88.0361 112.395 87.7688 112.648C86.8956 113.49 85.8267 113.656 84.9536 113.129C83.9299 112.513 83.3578 111.264 83.8094 110.181C84.1707 109.308 84.7729 108.481 85.3902 107.729C88.657 103.682 90.3883 99.0482 90.8399 93.8882C91.4271 87.2238 89.485 81.3417 85.4805 76.0764C85.4255 76.0038 85.3704 75.9312 85.3152 75.8586C84.9016 75.314 84.4859 74.7667 84.1406 74.1959C83.5836 73.2782 83.4632 72.2703 84.0503 71.3225C84.5772 70.4951 85.3601 70.0288 86.3687 70.0739C87.0763 70.104 87.6032 70.45 88.0548 70.9765C92.4508 76.0914 94.995 82.0187 95.6424 88.7432C95.7117 89.5249 95.7615 90.3196 95.8045 91.0074Z" fill="white"/>
    </g>
    <defs>
        <clipPath id="clip0_355_1528">
            <rect width="146" height="146" rx="14" fill="white"/>
        </clipPath>
    </defs>
</svg>
