<svg width="124" height="34" viewBox="0 0 124 34" fill="none" xmlns="http://www.w3.org/2000/svg">
    <g clip-path="url(#clip0_1_51)">
        <path d="M62.0503 17.402L66.3488 17.3801L66.923 15.7203C67.2593 14.7442 68.1781 14.1508 69.2062 14.2301C70.2343 14.3121 71.0437 15.0532 71.2214 16.0703L73.439 28.8397C73.4499 28.8972 73.4527 28.9409 73.5648 28.9464C73.6741 28.9436 73.6796 28.8944 73.6878 28.837L76.991 6.63088C77.1523 5.53986 78.0355 4.75782 79.1402 4.73325C80.223 4.71685 81.1636 5.44417 81.3769 6.527L84.7375 23.4719C84.7484 23.5211 84.7566 23.5731 84.8605 23.5731H84.8632C84.9644 23.5731 84.9753 23.5211 84.9863 23.4719L87.2968 12.5015C87.5211 11.4351 88.4371 10.7023 89.5308 10.7351C90.6218 10.7625 91.5023 11.5336 91.6746 12.6109L94.6277 31.2099C94.6387 31.2701 94.6633 31.3111 94.7562 31.3166C94.8656 31.3138 94.8738 31.2674 94.8793 31.2045L98.2289 2.96364C98.3629 1.82614 99.2598 1.01679 100.406 1.00034C101.543 0.981205 102.473 1.76048 102.642 2.89525L105.855 24.1767C105.863 24.2368 105.877 24.2806 105.984 24.2833C106.093 24.2806 106.101 24.2341 106.109 24.1712L107.646 11.5873C107.78 10.4935 108.641 9.68965 109.741 9.63491C110.84 9.58295 111.781 10.2884 112.027 11.3603L113.654 18.4394C113.664 18.4886 113.673 18.5242 113.779 18.5378C113.883 18.5351 113.891 18.4859 113.902 18.4339L114.307 16.3065C114.49 15.344 115.237 14.6413 116.21 14.5155C117.181 14.3925 118.083 14.8792 118.504 15.7624L119.311 17.4058L122.95 17.4003C123.53 17.4003 124 17.8706 124 18.4503C124 19.03 123.53 19.5003 122.95 19.5003H119.319C118.502 19.5003 117.747 19.0245 117.394 18.2862L116.618 16.662C116.601 16.6292 116.582 16.5745 116.486 16.5909C116.396 16.6018 116.385 16.6565 116.377 16.6921L115.972 18.8194C115.773 19.864 114.889 20.6105 113.826 20.6296C112.776 20.6597 111.852 19.9405 111.614 18.9014L109.987 11.8223C109.976 11.7704 109.97 11.7184 109.855 11.7239C109.749 11.7293 109.743 11.7813 109.735 11.836L108.198 24.4199C108.059 25.5547 107.162 26.3613 106.019 26.3777C104.882 26.3695 103.957 25.6149 103.785 24.4828L100.575 3.2042C100.567 3.14404 100.548 3.09209 100.446 3.09756C100.334 3.1003 100.329 3.14678 100.323 3.20967L96.9737 31.4505C96.8397 32.5853 95.9484 33.3919 94.8053 33.4138H94.7561C93.6377 33.4138 92.7382 32.6481 92.5604 31.5353L89.6073 12.9363C89.5991 12.8816 89.5909 12.8324 89.4842 12.8296C89.3694 12.8132 89.3694 12.8761 89.3557 12.9308L87.0451 23.9012C86.8264 24.943 85.9295 25.6676 84.8658 25.6676H84.8522C83.7831 25.6621 82.8889 24.9238 82.681 23.8738L79.3205 6.92891C79.3095 6.87422 79.2986 6.83867 79.192 6.82774C79.0853 6.83047 79.0771 6.88242 79.0689 6.93711L75.763 29.1432C75.599 30.2479 74.7048 31.0299 73.5865 31.0436H73.5564C72.4544 31.0436 71.5548 30.2889 71.3634 29.1979L69.1458 16.4285C69.1376 16.3848 69.1294 16.3301 69.031 16.3246C68.9326 16.3137 68.9161 16.3683 68.8997 16.4094L68.3255 18.0691C68.0275 18.9277 67.2181 19.5047 66.3103 19.5047L62.0502 19.502C61.4705 19.502 61.0002 19.0316 61.0002 18.452C61.0002 17.8723 61.4707 17.402 62.0503 17.402Z" fill="#1DB6E7"/>
        <path d="M61.95 17.402L57.6516 17.3801L57.0773 15.7203C56.741 14.7442 55.8222 14.1508 54.7942 14.2301C53.766 14.3121 52.9566 15.0532 52.7789 16.0703L50.5613 28.8397C50.5504 28.8972 50.5476 28.9409 50.4355 28.9464C50.3262 28.9436 50.3207 28.8944 50.3125 28.837L47.0093 6.63088C46.848 5.53986 45.9648 4.75782 44.8601 4.73325C43.7773 4.71685 42.8367 5.44417 42.6234 6.527L39.2628 23.4719C39.2519 23.5211 39.2437 23.5731 39.1398 23.5731H39.1371C39.0359 23.5731 39.025 23.5211 39.014 23.4719L36.7035 12.5015C36.4792 11.4351 35.5632 10.7023 34.4695 10.7351C33.3785 10.7625 32.498 11.5336 32.3257 12.6109L29.3726 31.2099C29.3616 31.2701 29.337 31.3111 29.2441 31.3166C29.1347 31.3138 29.1265 31.2674 29.121 31.2045L25.7714 2.96364C25.6374 1.82614 24.7405 1.01679 23.5948 1.00034C22.4573 0.981205 21.5276 1.76048 21.3581 2.89525L18.1452 24.1767C18.137 24.2368 18.1233 24.2806 18.0167 24.2833C17.9073 24.2806 17.8991 24.2341 17.8909 24.1712L16.3542 11.5873C16.2202 10.4935 15.3589 9.68965 14.2597 9.63491C13.1605 9.58295 12.2198 10.2884 11.9738 11.3603L10.3468 18.4394C10.3359 18.4886 10.3277 18.5242 10.221 18.5378C10.1171 18.5351 10.1089 18.4859 10.098 18.4339L9.6933 16.3065C9.5101 15.344 8.7636 14.6413 7.7901 14.5155C6.8195 14.3925 5.9171 14.8792 5.496 15.7624L4.6894 17.4058L1.05 17.4003C0.470299 17.4003 0 17.8706 0 18.4503C0 19.03 0.470299 19.5003 1.05 19.5003H4.6812C5.4988 19.5003 6.2535 19.0245 6.6062 18.2862L7.3828 16.662C7.3992 16.6292 7.4184 16.5745 7.5141 16.5909C7.6043 16.6018 7.6152 16.6565 7.6234 16.6921L8.0281 18.8194C8.2277 19.864 9.111 20.6105 10.1746 20.6296C11.2246 20.6597 12.1488 19.9405 12.3867 18.9014L14.0137 11.8223C14.0246 11.7704 14.0301 11.7184 14.1449 11.7239C14.2516 11.7293 14.257 11.7813 14.2652 11.836L15.802 24.4199C15.9414 25.5547 16.8383 26.3613 17.9813 26.3777C19.1188 26.3695 20.043 25.6149 20.2152 24.4828L23.4254 3.2042C23.4336 3.14404 23.4527 3.09209 23.5539 3.09756C23.666 3.1003 23.6715 3.14678 23.6769 3.20967L27.0266 31.4505C27.1606 32.5853 28.0519 33.3919 29.195 33.4138H29.2442C30.3626 33.4138 31.2621 32.6481 31.4399 31.5353L34.393 12.9363C34.4012 12.8816 34.4094 12.8324 34.5161 12.8296C34.6309 12.8132 34.6309 12.8761 34.6446 12.9308L36.9552 23.9012C37.1739 24.943 38.0708 25.6676 39.1345 25.6676H39.1481C40.2172 25.6621 41.1114 24.9238 41.3193 23.8738L44.6798 6.92891C44.6908 6.87422 44.7017 6.83867 44.8083 6.82774C44.915 6.83047 44.9232 6.88242 44.9314 6.93711L48.2373 29.1432C48.4013 30.2479 49.2955 31.0299 50.4138 31.0436H50.4439C51.5459 31.0436 52.4455 30.2889 52.6369 29.1979L54.8545 16.4285C54.8627 16.3848 54.8709 16.3301 54.9693 16.3246C55.0678 16.3137 55.0842 16.3683 55.1006 16.4094L55.6748 18.0691C55.9728 18.9277 56.7822 19.5047 57.69 19.5047L61.9502 19.502C62.5298 19.502 63.0002 19.0316 63.0002 18.452C63.0002 17.8723 62.5297 17.402 61.95 17.402Z" fill="#1DB6E7"/>
    </g>
    <defs>
        <clipPath id="clip0_1_51">
            <rect width="124" height="34" fill="white"/>
        </clipPath>
    </defs>
</svg>
