<svg width="71" height="52" viewBox="0 0 71 52" fill="none" xmlns="http://www.w3.org/2000/svg">
<path fill-rule="evenodd" clip-rule="evenodd" d="M11.7496 37.4872V45.5688C11.7496 47.1688 12.5153 48.672 13.809 49.6126L13.9559 49.7189C16.8465 51.8189 20.634 52.2189 23.8999 50.7689L35.4999 45.6126L47.0999 50.7689H47.103C50.3655 52.2189 54.153 51.8189 57.0438 49.7189L57.1907 49.6126C58.4844 48.672 59.25 47.1688 59.25 45.5688V37.4872L52 38.8248C41.0904 40.8341 29.9096 40.8341 19 38.8248L11.7496 37.4872ZM16.1247 42.4872L27.9999 44.3623L19.2495 48.1123L16.1247 42.4872ZM54.8751 42.4872L51.7501 48.1122L42.9997 44.3622L54.8751 42.4872Z" fill="white"/>
<path fill-rule="evenodd" clip-rule="evenodd" d="M23.184 0.368812C21.7527 0.309437 20.3684 1.22505 19.9621 2.72193L14.3528 20.7059H56.828L51.0373 2.72193C50.4842 0.737531 48.2092 -0.212469 46.3998 0.787531L40.3311 4.47505C37.328 6.13753 33.6749 6.13753 30.6719 4.47505L24.6032 0.768812C24.1501 0.518812 23.6657 0.387564 23.1876 0.368812H23.184Z" fill="white"/>
<path fill-rule="evenodd" clip-rule="evenodd" d="M13.5752 23.1968L11.7189 29.1406H1.68455L1.68767 29.1374C1.34705 29.1281 1.0158 29.2531 0.772072 29.4874C0.525199 29.7218 0.387695 30.0468 0.387695 30.3843C0.387695 30.7218 0.525199 31.0468 0.772072 31.2812C1.01582 31.5156 1.34707 31.6406 1.68767 31.6281H69.3157H69.3126C69.6532 31.6406 69.9844 31.5156 70.2282 31.2812C70.475 31.0468 70.6125 30.7218 70.6125 30.3843C70.6125 30.0468 70.475 29.7218 70.2282 29.4874C69.9844 29.2531 69.6532 29.1281 69.3126 29.1374H59.5406L57.625 23.1937L13.5752 23.1968Z" fill="white"/>
</svg>
