<svg width="219" height="176" viewBox="0 0 219 176" fill="none" xmlns="http://www.w3.org/2000/svg">
    <path d="M159.449 4.06718C181.07 -6.6895 204.565 7.40149 213.61 15.7916C214.356 27.277 216.322 52.3494 218.215 60.7553C220.581 71.2627 198.341 78.7242 192.461 88.0217C186.581 97.3192 73.965 139.238 67.297 145.033C60.628 150.828 29.686 133.262 22.592 126.273C16.916 120.681 12.673 99.4749 11.26 89.5706L27.674 64.4074C44.759 62.1959 82.687 55.9451 97.7236 48.6337C116.519 39.4945 132.423 17.513 159.449 4.06718Z" fill="#1DEEDA"/>
    <path d="M162.22 30.9044C185.422 24.2052 206.004 42.2863 213.396 52.1643C212.067 63.5971 209.499 88.6149 209.851 97.2241C210.292 107.986 187.073 111.332 179.619 119.422C172.165 127.513 53.853 148.527 46.252 153.031C38.651 157.534 11.366 134.697 5.64202 126.547C1.06302 120.027 0.697016 98.4035 1.08602 88.4066L21.752 66.6001C38.956 67.4925 77.39 68.1542 93.4952 63.662C113.627 58.0467 133.219 39.2784 162.22 30.9044Z" fill="#37B8E1"/>
    <path d="M164.656 57.7132C188.111 51.9689 207.937 70.8771 214.918 81.0492C213.123 92.4181 209.533 117.31 209.533 125.926C209.533 136.697 186.197 139.09 178.418 146.869C170.639 154.648 51.566 170.803 43.787 174.992C36.008 179.18 9.68002 155.246 4.29502 146.869C-0.0129839 140.167 0.505012 118.546 1.30301 108.574L22.844 87.6312C39.997 89.2268 78.372 91.4607 94.6475 87.6312C114.992 82.8443 135.336 64.8935 164.656 57.7132Z" fill="#7853FD"/>
</svg>
