<svg width="154" height="123" viewBox="0 0 154 123" fill="none" xmlns="http://www.w3.org/2000/svg">
<path d="M67.3654 5.34283L76.8086 0.690145C76.8086 0.690145 79.1179 -0.281642 82.1623 1.20641C85.2067 2.69445 115.818 17.7344 115.818 17.7344C115.818 17.7344 119.877 18.92 119.877 24.8937C119.877 30.8674 119.877 56.8209 119.877 56.8209C119.877 56.8209 119.98 59.8211 116.957 61.4078C113.934 62.9946 109.56 65.2304 109.56 65.2304C109.56 65.2304 111.396 63.1464 111.487 57.7484C111.492 51.0978 111.487 31.8189 111.487 31.8189V27.5649C111.487 27.5649 111.792 24.2016 106.88 21.8025C101.968 19.4046 77.6665 7.41926 77.6665 7.41926C77.6665 7.41926 72.2078 4.0294 67.3654 5.34283Z" fill="url(#paint0_linear_148_565)"/>
<path d="M34 22.5238L43.4433 17.8711C43.4433 17.8711 45.7525 16.8994 48.797 18.3874C51.8414 19.8755 82.4527 34.9154 82.4527 34.9154C82.4527 34.9154 86.5119 36.101 86.5119 42.0747C86.5119 48.0484 86.5119 74.0019 86.5119 74.0019C86.5119 74.0019 86.6144 77.0021 83.5915 78.5888C80.5698 80.1743 76.1943 82.4114 76.1943 82.4114C76.1943 82.4114 78.0303 80.3274 78.1214 74.9294C78.1264 68.2788 78.1214 49 78.1214 49V44.7459C78.1214 44.7459 78.4263 41.3826 73.5143 38.9835C68.6022 36.5856 44.3012 24.6003 44.3012 24.6003C44.3012 24.6003 38.8425 21.2104 34 22.5238H34Z" fill="url(#paint1_linear_148_565)"/>
<path d="M98.5607 26.0224C96.4804 25 67.9633 10.9888 65.0302 9.55519C61.9858 8.06714 59.6766 9.03893 59.6766 9.03893L50.2333 13.6916C55.0758 12.3782 60.5345 15.768 60.5345 15.768C60.5345 15.768 84.8355 27.7521 89.7475 30.1512C89.9082 30.2297 90.0626 30.3094 90.2119 30.3891C91.6898 29.597 96.7854 26.9461 98.5607 26.0237V26.0224Z" fill="url(#paint2_linear_148_565)"/>
<path d="M102.744 33.2425C102.744 32.9553 102.732 32.6833 102.714 32.4175L94.3539 36.6033V40.1665C94.3539 40.1665 94.3589 59.4466 94.3539 66.096C94.2628 71.494 92.4268 73.578 92.4268 73.578C92.4268 73.578 96.8023 71.3421 99.824 69.7554C102.846 68.1699 102.744 65.1685 102.744 65.1685C102.744 65.1685 102.744 39.2137 102.744 33.2413V33.2425Z" fill="url(#paint3_linear_148_565)"/>
<path d="M64.8324 43.1171C64.8324 43.1171 67.0088 44.161 68.178 45.8629C68.9511 47.1308 69.1649 48.8593 69.1649 51.471V75.1494L43.9516 62.9021L40.9932 61.3963C40.9932 61.3963 39.8101 60.5814 39.5545 60.3651C39.2989 60.1487 37.3883 59.1794 37.4136 55.3935C37.4389 51.6076 37.4136 29.6513 37.4136 29.6513L64.8324 43.1159V43.1171Z" fill="url(#paint4_linear_148_565)"/>
<path d="M8.9981 118.098C7.9121 118.098 6.90859 117.92 5.98755 117.562C5.06651 117.191 4.26919 116.676 3.5956 116.016C2.922 115.356 2.39275 114.579 2.00784 113.686C1.63667 112.792 1.45109 111.816 1.45109 110.758C1.45109 109.699 1.63667 108.723 2.00784 107.83C2.39275 106.936 2.922 106.159 3.5956 105.499C4.28294 104.84 5.08713 104.331 6.00817 103.974C6.92921 103.602 7.93272 103.417 9.01872 103.417C10.0635 103.417 11.0464 103.596 11.9674 103.953C12.8885 104.297 13.6652 104.819 14.2975 105.52L13.3284 106.489C12.7372 105.884 12.0843 105.451 11.3694 105.19C10.6546 104.915 9.88478 104.778 9.05997 104.778C8.19391 104.778 7.38972 104.929 6.6474 105.231C5.90507 105.52 5.25896 105.939 4.70909 106.489C4.15922 107.025 3.72619 107.658 3.41001 108.386C3.10758 109.101 2.95637 109.892 2.95637 110.758C2.95637 111.624 3.10758 112.421 3.41001 113.15C3.72619 113.864 4.15922 114.497 4.70909 115.047C5.25896 115.583 5.90507 116.002 6.6474 116.304C7.38972 116.593 8.19391 116.737 9.05997 116.737C9.88478 116.737 10.6546 116.6 11.3694 116.325C12.0843 116.05 12.7372 115.61 13.3284 115.005L14.2975 115.975C13.6652 116.676 12.8885 117.205 11.9674 117.562C11.0464 117.92 10.0566 118.098 8.9981 118.098ZM23.5581 118.098C22.4721 118.098 21.4617 117.92 20.5269 117.562C19.6059 117.191 18.8017 116.676 18.1144 116.016C17.4408 115.342 16.9115 114.565 16.5266 113.686C16.1554 112.792 15.9698 111.816 15.9698 110.758C15.9698 109.699 16.1554 108.73 16.5266 107.85C16.9115 106.957 17.4408 106.18 18.1144 105.52C18.8017 104.846 19.6059 104.331 20.5269 103.974C21.448 103.602 22.4584 103.417 23.5581 103.417C24.6441 103.417 25.6476 103.602 26.5687 103.974C27.4897 104.331 28.287 104.84 28.9606 105.499C29.6479 106.159 30.1772 106.936 30.5484 107.83C30.9333 108.723 31.1257 109.699 31.1257 110.758C31.1257 111.816 30.9333 112.792 30.5484 113.686C30.1772 114.579 29.6479 115.356 28.9606 116.016C28.287 116.676 27.4897 117.191 26.5687 117.562C25.6476 117.92 24.6441 118.098 23.5581 118.098ZM23.5581 116.737C24.4241 116.737 25.2215 116.593 25.95 116.304C26.6924 116.002 27.3316 115.583 27.8677 115.047C28.4176 114.497 28.8438 113.864 29.1462 113.15C29.4486 112.421 29.5998 111.624 29.5998 110.758C29.5998 109.892 29.4486 109.101 29.1462 108.386C28.8438 107.658 28.4176 107.025 27.8677 106.489C27.3316 105.939 26.6924 105.52 25.95 105.231C25.2215 104.929 24.4241 104.778 23.5581 104.778C22.692 104.778 21.8879 104.929 21.1455 105.231C20.4032 105.52 19.7571 105.939 19.2072 106.489C18.6711 107.025 18.2449 107.658 17.9288 108.386C17.6263 109.101 17.4751 109.892 17.4751 110.758C17.4751 111.61 17.6263 112.4 17.9288 113.129C18.2449 113.858 18.6711 114.497 19.2072 115.047C19.7571 115.583 20.4032 116.002 21.1455 116.304C21.8879 116.593 22.692 116.737 23.5581 116.737ZM34.546 117.975V103.541H39.9485C41.1719 103.541 42.2236 103.74 43.1034 104.139C43.9832 104.523 44.6568 105.087 45.1241 105.829C45.6053 106.558 45.8459 107.445 45.8459 108.489C45.8459 109.507 45.6053 110.386 45.1241 111.129C44.6568 111.857 43.9832 112.421 43.1034 112.82C42.2236 113.205 41.1719 113.397 39.9485 113.397H35.3914L36.0719 112.696V117.975H34.546ZM44.4024 117.975L40.6908 112.737H42.3404L46.0727 117.975H44.4024ZM36.0719 112.82L35.3914 112.098H39.9072C41.3506 112.098 42.4435 111.782 43.1858 111.149C43.9419 110.517 44.32 109.63 44.32 108.489C44.32 107.335 43.9419 106.441 43.1858 105.809C42.4435 105.176 41.3506 104.86 39.9072 104.86H35.3914L36.0719 104.139V112.82ZM53.427 118.098C52.3548 118.098 51.3238 117.927 50.334 117.583C49.358 117.225 48.6019 116.772 48.0658 116.222L48.6637 115.047C49.1724 115.542 49.8528 115.961 50.7051 116.304C51.5712 116.634 52.4785 116.799 53.427 116.799C54.3343 116.799 55.0698 116.689 55.6334 116.469C56.2108 116.236 56.63 115.926 56.8912 115.542C57.1662 115.157 57.3036 114.73 57.3036 114.263C57.3036 113.699 57.1387 113.246 56.8087 112.902C56.4926 112.558 56.0733 112.29 55.5509 112.098C55.0285 111.892 54.4512 111.713 53.8188 111.562C53.1865 111.411 52.5541 111.252 51.9217 111.088C51.2894 110.909 50.7051 110.675 50.169 110.386C49.6466 110.098 49.2205 109.72 48.8906 109.252C48.5744 108.771 48.4163 108.146 48.4163 107.376C48.4163 106.661 48.6019 106.008 48.973 105.417C49.358 104.812 49.9422 104.331 50.7258 103.974C51.5093 103.602 52.5129 103.417 53.7363 103.417C54.5474 103.417 55.3516 103.534 56.1489 103.767C56.9462 103.987 57.6336 104.297 58.2109 104.695L57.6954 105.912C57.0768 105.499 56.417 105.197 55.7159 105.005C55.0285 104.812 54.3618 104.716 53.7157 104.716C52.8497 104.716 52.1348 104.833 51.5712 105.066C51.0076 105.3 50.5883 105.616 50.3134 106.015C50.0522 106.4 49.9216 106.84 49.9216 107.335C49.9216 107.898 50.0797 108.352 50.3958 108.696C50.7258 109.039 51.1519 109.307 51.6743 109.5C52.2104 109.692 52.7947 109.864 53.427 110.015C54.0594 110.166 54.6849 110.331 55.3035 110.51C55.9358 110.689 56.5132 110.923 57.0356 111.211C57.5717 111.486 57.9978 111.857 58.314 112.325C58.6439 112.792 58.8089 113.404 58.8089 114.16C58.8089 114.861 58.6165 115.514 58.2315 116.119C57.8466 116.71 57.2555 117.191 56.4582 117.562C55.6746 117.92 54.6642 118.098 53.427 118.098ZM68.4434 118.098C67.3574 118.098 66.347 117.92 65.4122 117.562C64.4912 117.191 63.687 116.676 62.9997 116.016C62.3261 115.342 61.7968 114.565 61.4119 113.686C61.0407 112.792 60.8551 111.816 60.8551 110.758C60.8551 109.699 61.0407 108.73 61.4119 107.85C61.7968 106.957 62.3261 106.18 62.9997 105.52C63.687 104.846 64.4912 104.331 65.4122 103.974C66.3333 103.602 67.3437 103.417 68.4434 103.417C69.5294 103.417 70.5329 103.602 71.454 103.974C72.375 104.331 73.1723 104.84 73.8459 105.499C74.5332 106.159 75.0625 106.936 75.4337 107.83C75.8186 108.723 76.011 109.699 76.011 110.758C76.011 111.816 75.8186 112.792 75.4337 113.686C75.0625 114.579 74.5332 115.356 73.8459 116.016C73.1723 116.676 72.375 117.191 71.454 117.562C70.5329 117.92 69.5294 118.098 68.4434 118.098ZM68.4434 116.737C69.3094 116.737 70.1068 116.593 70.8353 116.304C71.5777 116.002 72.2169 115.583 72.753 115.047C73.3029 114.497 73.7291 113.864 74.0315 113.15C74.3339 112.421 74.4851 111.624 74.4851 110.758C74.4851 109.892 74.3339 109.101 74.0315 108.386C73.7291 107.658 73.3029 107.025 72.753 106.489C72.2169 105.939 71.5777 105.52 70.8353 105.231C70.1068 104.929 69.3094 104.778 68.4434 104.778C67.5773 104.778 66.7732 104.929 66.0308 105.231C65.2885 105.52 64.6424 105.939 64.0925 106.489C63.5564 107.025 63.1302 107.658 62.8141 108.386C62.5116 109.101 62.3604 109.892 62.3604 110.758C62.3604 111.61 62.5116 112.4 62.8141 113.129C63.1302 113.858 63.5564 114.497 64.0925 115.047C64.6424 115.583 65.2885 116.002 66.0308 116.304C66.7732 116.593 67.5773 116.737 68.4434 116.737ZM85.2462 118.098C83.4041 118.098 81.9538 117.569 80.8953 116.511C79.8368 115.452 79.3075 113.885 79.3075 111.809V103.541H80.8334V111.747C80.8334 113.452 81.2183 114.71 81.9882 115.521C82.758 116.332 83.844 116.737 85.2462 116.737C86.6621 116.737 87.755 116.332 88.5248 115.521C89.2946 114.71 89.6795 113.452 89.6795 111.747V103.541H91.1642V111.809C91.1642 113.885 90.6349 115.452 89.5764 116.511C88.5317 117.569 87.0882 118.098 85.2462 118.098ZM95.7623 117.975V103.541H97.0202L106.98 116.078H106.32V103.541H107.825V117.975H106.567L96.6284 105.438H97.2882V117.975H95.7623ZM112.536 117.975V103.541H118.413C119.953 103.541 121.3 103.85 122.455 104.468C123.623 105.073 124.531 105.919 125.177 107.005C125.823 108.091 126.146 109.342 126.146 110.758C126.146 112.174 125.823 113.424 125.177 114.51C124.531 115.596 123.623 116.449 122.455 117.067C121.3 117.672 119.953 117.975 118.413 117.975H112.536ZM114.062 116.655H118.331C119.609 116.655 120.716 116.408 121.651 115.913C122.599 115.404 123.335 114.71 123.857 113.83C124.379 112.936 124.641 111.912 124.641 110.758C124.641 109.589 124.379 108.565 123.857 107.685C123.335 106.805 122.599 106.118 121.651 105.623C120.716 105.115 119.609 104.86 118.331 104.86H114.062V116.655ZM132.66 117.975L139.258 103.541H140.763L147.362 117.975H145.753L139.691 104.427H140.31L134.247 117.975H132.66ZM135.258 114.119L135.711 112.881H144.104L144.557 114.119H135.258ZM149.75 117.975V103.541H151.275V117.975H149.75Z" fill="#101010"/>
<defs>
<linearGradient id="paint0_linear_148_565" x1="81.8991" y1="22.0252" x2="126.336" y2="50.007" gradientUnits="userSpaceOnUse">
<stop stop-color="#37B2B9"/>
<stop offset="1" stop-color="#69C28E"/>
</linearGradient>
<linearGradient id="paint1_linear_148_565" x1="60.7191" y1="15.3911" x2="59.8814" y2="74.8523" gradientUnits="userSpaceOnUse">
<stop offset="0.09" stop-color="#3DC3D8"/>
<stop offset="1" stop-color="#592C7D"/>
</linearGradient>
<linearGradient id="paint2_linear_148_565" x1="96.1882" y1="27.7876" x2="47.7254" y2="7.46103" gradientUnits="userSpaceOnUse">
<stop stop-color="#6AC28B"/>
<stop offset="1" stop-color="#5FC199"/>
</linearGradient>
<linearGradient id="paint3_linear_148_565" x1="97.5868" y1="74.9016" x2="97.5868" y2="22.3479" gradientUnits="userSpaceOnUse">
<stop stop-color="#6FC493"/>
<stop offset="1" stop-color="#47BEA7"/>
</linearGradient>
<linearGradient id="paint4_linear_148_565" x1="53.5139" y1="36.445" x2="52.6762" y2="95.9061" gradientUnits="userSpaceOnUse">
<stop stop-color="#3DC3D8"/>
<stop offset="0.5" stop-color="#592C7D"/>
</linearGradient>
</defs>
</svg>
