<?xml version="1.0" encoding="UTF-8" standalone="no" ?>
<!DOCTYPE svg PUBLIC "-//W3C//DTD SVG 1.1//EN" "http://www.w3.org/Graphics/SVG/1.1/DTD/svg11.dtd">
<svg xmlns="http://www.w3.org/2000/svg" xmlns:xlink="http://www.w3.org/1999/xlink" version="1.1" width="1280" height="1024" viewBox="0 0 1280 1024" xml:space="preserve">
<desc>Created with Fabric.js 3.6.3</desc>
<defs>
</defs>
<g transform="matrix(1.9692780337941629 0 0 1.9692780337941629 640.0153846153846 512.012312418764)" id="background-logo"  >
<rect style="stroke: none; stroke-width: 1; stroke-dasharray: none; stroke-linecap: butt; stroke-dashoffset: 0; stroke-linejoin: miter; stroke-miterlimit: 4; fill: rgb(255,255,255); fill-rule: nonzero; opacity: 1;"  paint-order="stroke"  x="-325" y="-260" rx="0" ry="0" width="650" height="520" />
</g>
<g transform="matrix(1.9692780337941629 0 0 1.9692780337941629 592.7516103942519 423.39480089802674)" id="logo-logo"  >
<g style=""  paint-order="stroke"   >
		<g transform="matrix(2.237185514552351 0 0 -2.237185514552351 -67.37314461467514 37.05553715107956)"  >
<linearGradient id="SVGID_29321" gradientUnits="userSpaceOnUse" gradientTransform="matrix(1 0 0 1 112.51999999999997 78.32500000000002)"  x1="0" y1="0" x2="0" y2="69">
<stop offset="0%" style="stop-color:rgb(91,36,122);stop-opacity: 1"/>
<stop offset="100%" style="stop-color:rgb(27,206,223);stop-opacity: 1"/>
</linearGradient>
<path style="stroke: none; stroke-width: 1; stroke-dasharray: none; stroke-linecap: butt; stroke-dashoffset: 0; stroke-linejoin: miter; stroke-miterlimit: 4; fill: url(#SVGID_29321); fill-rule: nonzero; opacity: 1;"  paint-order="stroke"  transform=" translate(-132.95549999999997, -112.98350000000002)" d="m 112.52 107.633 c 0 -3.532 1.886 -6.796 4.943 -8.561 v 0 l 35.928 -20.747 v 40.011 c 0 3.53 -1.885 6.795 -4.943 8.56 v 0 l -35.928 20.746 z" stroke-linecap="round" />
</g>
		<g transform="matrix(2.237185514552351 0 0 -2.237185514552351 -48.28392850654319 29.195271694789966)"  >
<linearGradient id="SVGID_29322" gradientUnits="userSpaceOnUse" gradientTransform="matrix(1 0 0 1 106.214 67.57300000000004)"  x1="0" y1="0" x2="0" y2="84">
<stop offset="0%" style="stop-color:rgb(91,36,122);stop-opacity: 1"/>
<stop offset="100%" style="stop-color:rgb(27,206,223);stop-opacity: 1"/>
</linearGradient>
<path style="stroke: none; stroke-width: 1; stroke-dasharray: none; stroke-linecap: butt; stroke-dashoffset: 0; stroke-linejoin: miter; stroke-miterlimit: 4; fill: url(#SVGID_29322); fill-rule: nonzero; opacity: 1;"  paint-order="stroke"  transform=" translate(-140.7015, -116.92100000000002)" d="m 117.113 164.945 l -2.697 -1.559 l -8.202 -4.981 c 2.001 1.156 4.306 1.554 6.513 1.194 v 0 c 1.172 -0.186 2.316 -0.583 3.374 -1.194 v 0 l 43.247 -24.969 c 3.057 -1.766 4.942 -5.03 4.942 -8.562 v 0 v -49.938 c 0 -0.687 -0.071 -1.368 -0.207 -2.027 v 0 c -0.289 -1.373 -0.866 -2.665 -1.69 -3.788 v 0 c -0.109 -0.152 -0.223 -0.305 -0.348 -0.452 v 0 l -0.005 -0.006 c -0.131 -0.168 -0.279 -0.332 -0.432 -0.49 v 0 c -0.189 -0.207 -0.391 -0.408 -0.61 -0.6 v 0 l 9.248 5.341 c 0.6 0.343 1.151 0.747 1.651 1.199 v 0 c 0.218 0.191 0.421 0.393 0.61 0.6 v 0 c 0.159 0.157 0.3 0.326 0.437 0.495 v 0 c 0.125 0.147 0.239 0.3 0.349 0.452 v 0 c 1.215 1.663 1.896 3.69 1.896 5.815 v 0 v 49.939 c 0 3.531 -1.885 6.796 -4.943 8.561 v 0 L 127 164.945 c -1.529 0.883 -3.236 1.324 -4.943 1.324 v 0 c -1.707 0 -3.414 -0.441 -4.944 -1.324" stroke-linecap="round" />
</g>
		<g transform="matrix(2.237185514552351 0 0 -2.237185514552351 -6.736811094726761 -75.23396936734343)"  >
<linearGradient id="SVGID_29323" gradientUnits="userSpaceOnUse" gradientTransform="matrix(1 0 0 1 128.012 146.86899999999997)"  x1="0" y1="0" x2="0" y2="84">
<stop offset="0%" style="stop-color:rgb(66,230,149);stop-opacity: 1"/>
<stop offset="100%" style="stop-color:rgb(59,178,184);stop-opacity: 1"/>
</linearGradient>
<path style="stroke: none; stroke-width: 1; stroke-dasharray: none; stroke-linecap: butt; stroke-dashoffset: 0; stroke-linejoin: miter; stroke-miterlimit: 4; fill: url(#SVGID_29323); fill-rule: nonzero; opacity: 1;"  paint-order="stroke"  transform=" translate(-159.638, -163.1085)" d="m 138.912 178.024 l -10.9 -6.54 c 3.059 1.766 6.83 1.766 9.886 0 v 0 l 42.631 -24.615 l 10.735 6.638 l -42.467 24.517 c -1.528 0.882 -3.235 1.324 -4.942 1.324 v 0 c -1.707 0 -3.414 -0.442 -4.943 -1.324" stroke-linecap="round" />
</g>
		<g transform="matrix(2.237185514552351 0 0 -2.237185514552351 61.75978788151127 37.05553715107956)"  >
<linearGradient id="SVGID_29324" gradientUnits="userSpaceOnUse" gradientTransform="matrix(1 0 0 1 183.843 81.74799999999999)"  x1="0" y1="0" x2="0" y2="84">
<stop offset="0%" style="stop-color:rgb(66,230,149);stop-opacity: 1"/>
<stop offset="100%" style="stop-color:rgb(59,178,184);stop-opacity: 1"/>
</linearGradient>
<path style="stroke: none; stroke-width: 1; stroke-dasharray: none; stroke-linecap: butt; stroke-dashoffset: 0; stroke-linejoin: miter; stroke-miterlimit: 4; fill: url(#SVGID_29324); fill-rule: nonzero; opacity: 1;"  paint-order="stroke"  transform=" translate(-190.41549999999998, -112.987)" d="M 186.088 137.49 V 88.015 c 0 -2.322 -0.811 -4.529 -2.245 -6.267 v 0 l 10.462 6.043 c 1.701 1.809 2.683 4.218 2.683 6.763 v 0 v 49.672 z" stroke-linecap="round" />
</g>
		<g transform="matrix(2.237185514552351 0 0 -2.237185514552351 48.28504709930053 -29.195271694789994)"  >
<linearGradient id="SVGID_29325" gradientUnits="userSpaceOnUse" gradientTransform="matrix(1 0 0 1 149.811 93.73100000000002)"  x1="0" y1="0" x2="0" y2="84">
<stop offset="0%" style="stop-color:rgb(66,230,149);stop-opacity: 1"/>
<stop offset="100%" style="stop-color:rgb(59,178,184);stop-opacity: 1"/>
</linearGradient>
<path style="stroke: none; stroke-width: 1; stroke-dasharray: none; stroke-linecap: butt; stroke-dashoffset: 0; stroke-linejoin: miter; stroke-miterlimit: 4; fill: url(#SVGID_29325); fill-rule: nonzero; opacity: 1;"  paint-order="stroke"  transform=" translate(-184.298, -143.079)" d="m 160.71 191.102 l -10.899 -6.539 c 3.058 1.766 6.829 1.766 9.885 0 v 0 l 43.248 -24.97 c 3.057 -1.765 4.942 -5.03 4.942 -8.56 v 0 v -49.94 c 0 -2.838 -1.221 -5.509 -3.292 -7.362 v 0 l 9.249 5.341 c 3.056 1.765 4.942 5.029 4.942 8.561 v 0 v 49.939 c 0 3.531 -1.886 6.795 -4.942 8.561 v 0 l -43.247 24.969 c -1.529 0.883 -3.237 1.325 -4.944 1.325 v 0 c -1.707 0 -3.414 -0.442 -4.942 -1.325" stroke-linecap="round" />
</g>
</g>
</g>
<g transform="matrix(1.9692780337941629 0 0 1.9692780337941629 639.8076873227579 793.0753785372572)" id="text-logo-path"  >
<linearGradient id="SVGID_30_14_14_15_16_17_18_19_20_29327" gradientUnits="userSpaceOnUse" gradientTransform="matrix(1 0 0 1 3.5200000000000102 -52.91)"  x1="0" y1="0" x2="0" y2="84">
<stop offset="0%" style="stop-color:rgb(91,36,122);stop-opacity: 1"/>
<stop offset="100%" style="stop-color:rgb(27,206,223);stop-opacity: 1"/>
</linearGradient>
<path style="stroke: none; stroke-width: 0; stroke-dasharray: none; stroke-linecap: butt; stroke-dashoffset: 0; stroke-linejoin: miter; stroke-miterlimit: 4; fill: url(#SVGID_30_14_14_15_16_17_18_19_20_29327); fill-rule: nonzero; opacity: 1;"  paint-order="stroke"  transform=" translate(-146.20000000000002, 25.979999999999997)" d="M 3.52 -24.33 L 3.52 -24.33 Q 3.52 -30.83 5.1 -35.88 Q 6.68 -40.92 9.44 -43.96 Q 12.2 -47 15.7 -48.55 Q 19.2 -50.1 23.27 -50.1 L 23.27 -50.1 Q 31.01 -50.1 35.81 -45.93 Q 40.61 -41.77 40.61 -36.07 L 40.61 -36.07 Q 40.61 -31.75 36.28 -31.75 L 36.28 -31.75 Q 34.95 -31.75 33.12 -32.17 L 33.12 -32.17 Q 33.12 -32.45 33.12 -32.7 L 33.12 -32.7 Q 33.12 -34.59 32.7 -36.35 L 32.7 -36.35 Q 32.2 -38.32 31.1 -40.08 Q 29.99 -41.84 27.93 -42.87 Q 25.88 -43.91 23.1 -43.91 L 23.1 -43.91 Q 17.44 -43.91 14.52 -38.9 Q 11.6 -33.89 11.6 -24.33 L 11.6 -24.33 Q 11.6 -15.47 14.75 -10.62 Q 17.89 -5.77 23.55 -5.77 L 23.55 -5.77 Q 29.81 -5.77 36.42 -11.21 L 36.42 -11.21 Q 37.69 -10.37 38.79 -8.96 Q 39.9 -7.56 40.25 -6.26 L 40.25 -6.26 Q 37.09 -3.09 32.33 -1.07 Q 27.56 0.95 22.25 0.95 L 22.25 0.95 Q 18.25 0.95 15.03 -0.47 Q 11.81 -1.9 9.7 -4.27 Q 7.59 -6.64 6.17 -9.93 Q 4.75 -13.22 4.13 -16.8 Q 3.52 -20.39 3.52 -24.33 Z M 51.26 -3.02 Q 46.13 -8.16 46.13 -17.79 Q 46.13 -27.42 51.26 -32.55 L 51.26 -32.55 Q 55.2 -36.49 61.66 -36.49 L 61.66 -36.49 Q 68.17 -36.49 72.11 -32.55 L 72.11 -32.55 Q 77.24 -27.42 77.24 -17.79 Q 77.24 -8.16 72.11 -3.02 L 72.11 -3.02 Q 68.13 0.95 61.66 0.95 L 61.66 0.95 Q 55.23 0.95 51.26 -3.02 L 51.26 -3.02 Z M 53.82 -17.79 L 53.82 -17.79 Q 53.82 -15.08 54.19 -12.9 Q 54.56 -10.72 55.41 -8.81 Q 56.25 -6.89 57.85 -5.82 Q 59.45 -4.75 61.66 -4.75 Q 63.88 -4.75 65.5 -5.82 Q 67.11 -6.89 67.97 -8.79 Q 68.84 -10.69 69.22 -12.9 Q 69.61 -15.12 69.61 -17.79 L 69.61 -17.79 Q 69.61 -20.43 69.22 -22.64 Q 68.84 -24.86 67.97 -26.77 Q 67.11 -28.69 65.5 -29.76 Q 63.88 -30.83 61.66 -30.83 Q 59.45 -30.83 57.85 -29.76 Q 56.25 -28.69 55.41 -26.77 Q 54.56 -24.86 54.19 -22.66 Q 53.82 -20.46 53.82 -17.79 Z M 83.95 -32.1 L 83.95 -32.1 Q 84.23 -33.15 85.01 -34.31 Q 85.78 -35.47 86.7 -36.07 L 86.7 -36.07 Q 91.65 -35.05 93.27 -29.67 L 93.27 -29.67 Q 96.15 -36.07 102.69 -36.07 L 102.69 -36.07 Q 104.41 -36.07 106.49 -35.65 L 106.49 -35.65 Q 106.49 -31.43 104.7 -28.58 L 104.7 -28.58 Q 104.03 -28.76 101.74 -28.93 L 101.74 -28.93 Q 96.82 -28.93 94.04 -23.48 L 94.04 -23.48 L 94.04 0 Q 92.67 0.28 90.39 0.28 L 90.39 0.28 Q 88 0.28 86.63 0 L 86.63 0 L 86.63 -24.68 Q 86.63 -29.57 83.95 -32.1 Z M 109.05 -2.67 L 109.05 -2.67 Q 109.13 -3.94 109.85 -5.45 Q 110.57 -6.96 111.52 -7.84 L 111.52 -7.84 Q 117.32 -4.68 121.61 -4.68 L 121.61 -4.68 Q 124.56 -4.68 126.28 -5.89 Q 128 -7.1 128.07 -9.14 L 128.07 -9.14 Q 128.07 -10.65 126.9 -11.94 Q 125.72 -13.22 123.54 -14.03 L 123.54 -14.03 L 119.5 -15.54 Q 110.36 -18.91 110.36 -25.84 L 110.36 -25.84 Q 110.36 -30.69 113.94 -33.59 Q 117.53 -36.49 123.05 -36.49 L 123.05 -36.49 Q 125.86 -36.49 129.18 -35.75 Q 132.5 -35.02 134.86 -33.93 L 134.86 -33.93 Q 134.86 -32.48 134.23 -30.88 Q 133.59 -29.29 132.61 -28.44 L 132.61 -28.44 Q 127.55 -30.83 123.05 -30.83 L 123.05 -30.83 Q 120.69 -30.83 119.27 -29.67 Q 117.84 -28.51 117.84 -26.65 L 117.84 -26.65 Q 117.84 -25.14 118.9 -24.15 Q 119.95 -23.17 122.31 -22.25 L 122.31 -22.25 L 126.63 -20.6 Q 135.77 -17.16 135.77 -9.81 L 135.77 -9.81 Q 135.77 -4.85 131.96 -1.95 Q 128.14 0.95 122.03 0.95 L 122.03 0.95 Q 115.07 0.95 109.05 -2.67 Z M 146.67 -3.02 Q 141.54 -8.16 141.54 -17.79 Q 141.54 -27.42 146.67 -32.55 L 146.67 -32.55 Q 150.61 -36.49 157.08 -36.49 L 157.08 -36.49 Q 163.58 -36.49 167.52 -32.55 L 167.52 -32.55 Q 172.65 -27.42 172.65 -17.79 Q 172.65 -8.16 167.52 -3.02 L 167.52 -3.02 Q 163.55 0.95 157.08 0.95 L 157.08 0.95 Q 150.64 0.95 146.67 -3.02 L 146.67 -3.02 Z M 149.24 -17.79 L 149.24 -17.79 Q 149.24 -15.08 149.61 -12.9 Q 149.98 -10.72 150.82 -8.81 Q 151.66 -6.89 153.26 -5.82 Q 154.86 -4.75 157.08 -4.75 Q 159.29 -4.75 160.91 -5.82 Q 162.53 -6.89 163.39 -8.79 Q 164.25 -10.69 164.64 -12.9 Q 165.02 -15.12 165.02 -17.79 L 165.02 -17.79 Q 165.02 -20.43 164.64 -22.64 Q 164.25 -24.86 163.39 -26.77 Q 162.53 -28.69 160.91 -29.76 Q 159.29 -30.83 157.08 -30.83 Q 154.86 -30.83 153.26 -29.76 Q 151.66 -28.69 150.82 -26.77 Q 149.98 -24.86 149.61 -22.66 Q 149.24 -20.46 149.24 -17.79 Z M 179.89 -34.42 L 179.89 -34.42 Q 181.72 -36 184.57 -36 L 184.57 -36 Q 186.68 -36 187.59 -34.86 Q 188.51 -33.71 188.51 -31.32 L 188.51 -31.32 L 188.51 -12.97 Q 188.51 -9.25 189.46 -7.65 Q 190.41 -6.05 192.97 -6.05 L 192.97 -6.05 Q 195.12 -6.05 197.58 -7.22 Q 200.04 -8.4 201.97 -10.44 L 201.97 -10.44 L 201.97 -35.58 Q 204.01 -35.86 205.73 -35.86 L 205.73 -35.86 Q 207.28 -35.86 209.46 -35.58 L 209.46 -35.58 L 209.46 -10.09 Q 209.46 -5.1 211.5 -3.23 L 211.5 -3.23 Q 211.18 -2.18 210.39 -1.11 Q 209.6 -0.04 208.69 0.49 L 208.69 0.49 Q 204.19 -0.32 202.64 -4.68 L 202.64 -4.68 Q 197.09 0.63 190.62 0.63 L 190.62 0.63 Q 185.84 0.63 183.48 -2.62 Q 181.13 -5.87 181.13 -11.14 L 181.13 -11.14 L 181.13 -27.95 Q 181.13 -32.27 179.89 -34.42 Z M 220.78 0 L 220.78 0 L 220.78 -35.44 L 221.2 -35.86 L 224.02 -35.86 Q 227.92 -35.86 228.13 -31.39 L 228.13 -31.39 Q 233.44 -36.21 239.55 -36.21 L 239.55 -36.21 Q 242.82 -36.21 245.04 -34.61 Q 247.25 -33.01 248.2 -30.43 Q 249.15 -27.84 249.15 -24.4 L 249.15 -24.4 L 249.15 -7.63 Q 249.15 -3.27 250.35 -1.09 L 250.35 -1.09 Q 248.38 0.49 245.67 0.49 L 245.67 0.49 Q 243.53 0.49 242.63 -0.67 Q 241.73 -1.83 241.73 -4.25 L 241.73 -4.25 L 241.73 -22.54 Q 241.73 -26.26 240.77 -27.86 Q 239.8 -29.46 237.27 -29.46 L 237.27 -29.46 Q 235.05 -29.46 232.56 -28.27 Q 230.06 -27.07 228.2 -25 L 228.2 -25 L 228.2 0 Q 226.83 0.28 224.51 0.28 L 224.51 0.28 Q 222.22 0.28 220.78 0 Z M 257.63 -17.37 L 257.63 -17.37 Q 257.63 -22.01 258.8 -25.68 Q 259.98 -29.36 261.95 -31.59 Q 263.92 -33.82 266.34 -34.98 Q 268.77 -36.14 271.44 -36.14 L 271.44 -36.14 Q 275.38 -36.14 279.6 -33.79 L 279.6 -33.79 L 279.6 -52.49 L 280.09 -52.91 L 282.9 -52.91 Q 285.15 -52.91 286.01 -51.82 Q 286.88 -50.73 286.88 -48.16 L 286.88 -48.16 L 286.88 -10.16 Q 286.88 -5.13 288.88 -3.3 L 288.88 -3.3 Q 288.6 -2.29 287.81 -1.16 Q 287.02 -0.04 286.14 0.49 L 286.14 0.49 Q 282.09 -0.21 280.44 -3.97 L 280.44 -3.97 Q 278.47 -1.72 275.78 -0.39 Q 273.09 0.95 270 0.95 L 270 0.95 Q 264.02 0.95 260.82 -4.04 Q 257.63 -9.04 257.63 -17.37 Z M 265.18 -17.3 L 265.18 -17.3 Q 265.18 -11.25 267.06 -8.26 Q 268.95 -5.27 271.76 -5.27 L 271.76 -5.27 Q 273.8 -5.27 275.91 -6.42 Q 278.02 -7.56 279.6 -9.81 L 279.6 -9.81 L 279.6 -27.63 Q 275.59 -30.23 272.46 -30.23 L 272.46 -30.23 Q 269.26 -30.23 267.22 -26.93 Q 265.18 -23.63 265.18 -17.3 Z" stroke-linecap="round" />
</g>
</svg>