<svg width="93" height="77" viewBox="0 0 93 77" fill="none" xmlns="http://www.w3.org/2000/svg">
<path d="M40.9126 3.06234L46.7378 0.192291C46.7378 0.192291 48.1623 -0.407164 50.0402 0.510752C51.9182 1.42867 70.8011 10.7062 70.8011 10.7062C70.8011 10.7062 73.305 11.4375 73.305 15.1225C73.305 18.8074 73.305 34.8171 73.305 34.8171C73.305 34.8171 73.3683 36.6677 71.5035 37.6465C69.6388 38.6253 66.9405 40.0046 66.9405 40.0046C66.9405 40.0046 68.0731 38.719 68.1293 35.3892C68.1324 31.2867 68.1293 19.3944 68.1293 19.3944V16.7702C68.1293 16.7702 68.3174 14.6955 65.2873 13.2156C62.2573 11.7365 47.267 4.34321 47.267 4.34321C47.267 4.34321 43.8997 2.25214 40.9126 3.06234Z" fill="url(#paint0_linear_1_447)"/>
<path d="M20.3308 13.6607L26.156 10.7906C26.156 10.7906 27.5805 10.1912 29.4585 11.1091C31.3364 12.027 50.2193 21.3045 50.2193 21.3045C50.2193 21.3045 52.7232 22.0359 52.7232 25.7208C52.7232 29.4057 52.7232 45.4154 52.7232 45.4154C52.7232 45.4154 52.7865 47.2661 50.9218 48.2449C49.0578 49.2229 46.3587 50.6029 46.3587 50.6029C46.3587 50.6029 47.4913 49.3173 47.5475 45.9875C47.5506 41.885 47.5475 29.9927 47.5475 29.9927V27.3685C47.5475 27.3685 47.7356 25.2938 44.7055 23.8139C41.6755 22.3348 26.6852 14.9415 26.6852 14.9415C26.6852 14.9415 23.3179 12.8505 20.3308 13.6607H20.3308Z" fill="url(#paint1_linear_1_447)"/>
<path d="M60.1559 15.8187C58.8727 15.188 41.2817 6.54507 39.4724 5.66072C37.5944 4.7428 36.1699 5.34225 36.1699 5.34225L30.3447 8.2123C33.3319 7.4021 36.6991 9.49317 36.6991 9.49317C36.6991 9.49317 51.6894 16.8857 54.7195 18.3656C54.8186 18.414 54.9138 18.4631 55.0059 18.5123C55.9176 18.0237 59.0608 16.3885 60.1559 15.8195V15.8187Z" fill="url(#paint2_linear_1_447)"/>
<path d="M62.7368 20.2725C62.7368 20.0953 62.729 19.9275 62.7181 19.7636L57.5611 22.3456V24.5436C57.5611 24.5436 57.5642 36.4367 57.5611 40.5385C57.5049 43.8683 56.3723 45.1538 56.3723 45.1538C56.3723 45.1538 59.0714 43.7746 60.9354 42.7958C62.7993 41.8178 62.7368 39.9663 62.7368 39.9663C62.7368 39.9663 62.7368 23.9559 62.7368 20.2717V20.2725Z" fill="url(#paint3_linear_1_447)"/>
<path d="M39.3502 26.3636C39.3502 26.3636 40.6927 27.0075 41.414 28.0574C41.8909 28.8395 42.0228 29.9057 42.0228 31.5167V46.123L26.4697 38.5681L24.6448 37.6393C24.6448 37.6393 23.915 37.1366 23.7574 37.0031C23.5997 36.8697 22.4211 36.2718 22.4367 33.9364C22.4523 31.601 22.4367 18.0571 22.4367 18.0571L39.3502 26.3628V26.3636Z" fill="url(#paint4_linear_1_447)"/>
<path d="M7.99988 66.4363C7.66068 66.0802 7.26637 65.8046 6.81693 65.6095C6.3675 65.406 5.90535 65.3043 5.43048 65.3043C4.80297 65.3043 4.22634 65.4569 3.70059 65.7622C3.17483 66.0674 2.75932 66.483 2.45405 67.0087C2.14877 67.526 1.99613 68.0984 1.99613 68.7259C1.99613 69.3449 2.14877 69.9173 2.45405 70.4431C2.75932 70.9688 3.17483 71.3843 3.70059 71.6896C4.22634 71.9949 4.80297 72.1475 5.43048 72.1475C5.89687 72.1475 6.35478 72.0542 6.80421 71.8677C7.25365 71.6726 7.6522 71.4098 7.99988 71.079L8.73762 71.8804C8.28819 72.3213 7.76668 72.669 7.17309 72.9234C6.5795 73.1693 5.97743 73.2923 5.36688 73.2923C4.51889 73.2923 3.74298 73.093 3.03916 72.6945C2.33533 72.2874 1.7799 71.7362 1.37286 71.0409C0.96583 70.3455 0.762313 69.5781 0.762313 68.7386C0.762313 67.9076 0.96583 67.1486 1.37286 66.4618C1.78838 65.7664 2.35229 65.2195 3.0646 64.8209C3.7769 64.4224 4.56129 64.2231 5.41776 64.2231C6.03679 64.2231 6.63462 64.3418 7.21125 64.5792C7.79636 64.8082 8.30091 65.1347 8.7249 65.5587L7.99988 66.4363ZM14.1384 64.2231C14.9948 64.2231 15.7792 64.4224 16.4915 64.8209C17.2123 65.2195 17.7805 65.7664 18.196 66.4618C18.6115 67.1486 18.8192 67.9076 18.8192 68.7386C18.8192 69.5696 18.6115 70.3371 18.196 71.0409C17.7805 71.7362 17.2123 72.2874 16.4915 72.6945C15.7792 73.093 14.9948 73.2923 14.1384 73.2923C13.2819 73.2923 12.4933 73.093 11.7725 72.6945C11.0602 72.2874 10.4963 71.7362 10.0808 71.0409C9.66524 70.3371 9.45748 69.5696 9.45748 68.7386C9.45748 67.9076 9.66524 67.1486 10.0808 66.4618C10.4963 65.7664 11.0602 65.2195 11.7725 64.8209C12.4848 64.4224 13.2734 64.2231 14.1384 64.2231ZM14.1511 65.317C13.5321 65.317 12.9554 65.4696 12.4212 65.7749C11.8954 66.0802 11.4757 66.4957 11.1619 67.0214C10.8482 67.5387 10.6913 68.1111 10.6913 68.7386C10.6913 69.3661 10.8482 69.9427 11.1619 70.4685C11.4757 70.9942 11.8954 71.414 12.4212 71.7278C12.9554 72.033 13.5321 72.1857 14.1511 72.1857C14.7701 72.1857 15.3383 72.033 15.8555 71.7278C16.3813 71.414 16.7968 70.9942 17.1021 70.4685C17.4158 69.9427 17.5727 69.3661 17.5727 68.7386C17.5727 68.1111 17.4158 67.5387 17.1021 67.0214C16.7968 66.4957 16.3813 66.0802 15.8555 65.7749C15.3383 65.4696 14.7701 65.317 14.1511 65.317ZM26.3179 73.2032L24.5498 70.4049C24.3463 70.4219 24.1809 70.4303 24.0537 70.4303H21.7896V73.2032H20.5685V64.2994H24.0537C25.1816 64.2994 26.0507 64.5623 26.6613 65.088C27.2803 65.6053 27.5898 66.343 27.5898 67.3013C27.5898 68.0221 27.4202 68.6284 27.0811 69.1202C26.7503 69.612 26.2712 69.9682 25.6437 70.1887L27.717 73.2032H26.3179ZM24.0537 69.3237C24.8169 69.3237 25.402 69.1584 25.8091 68.8276C26.2161 68.4884 26.4196 67.9924 26.4196 67.3394C26.4196 66.7034 26.2161 66.2243 25.8091 65.9021C25.402 65.5714 24.8169 65.406 24.0537 65.406H21.7896V69.3237H24.0537ZM34.9629 66.1565C34.5474 65.8936 34.115 65.6986 33.6655 65.5714C33.2246 65.4357 32.8175 65.3679 32.4444 65.3679C31.9272 65.3679 31.5116 65.4696 31.1979 65.6731C30.8926 65.8682 30.74 66.1395 30.74 66.4872C30.74 66.801 30.8333 67.0596 31.0198 67.2631C31.2064 67.4581 31.4353 67.615 31.7067 67.7337C31.978 67.844 32.3554 67.9754 32.8387 68.1281C33.4408 68.3146 33.9284 68.4927 34.3015 68.6623C34.6746 68.8319 34.9926 69.0863 35.2555 69.4255C35.5184 69.7562 35.6498 70.1971 35.6498 70.7483C35.6498 71.2571 35.5099 71.7023 35.2301 72.0839C34.9587 72.4655 34.5729 72.7623 34.0726 72.9743C33.5807 73.1778 33.0126 73.2796 32.3681 73.2796C31.7152 73.2796 31.0792 73.1524 30.4601 72.898C29.8411 72.6436 29.3069 72.3044 28.8574 71.8804L29.4044 70.8246C29.8284 71.2402 30.3033 71.5624 30.829 71.7914C31.3632 72.0118 31.8805 72.1221 32.3808 72.1221C32.9744 72.1221 33.4408 72.0076 33.78 71.7786C34.1277 71.5412 34.3015 71.2232 34.3015 70.8246C34.3015 70.5109 34.2082 70.2523 34.0217 70.0487C33.8351 69.8452 33.5977 69.6841 33.3094 69.5654C33.0295 69.4467 32.6479 69.3152 32.1646 69.1711C31.571 68.993 31.0877 68.8192 30.7145 68.6496C30.3414 68.48 30.0234 68.2298 29.7606 67.8991C29.5062 67.5684 29.379 67.1317 29.379 66.589C29.379 66.1141 29.5104 65.6943 29.7733 65.3297C30.0361 64.9651 30.405 64.6852 30.8799 64.4902C31.3548 64.2952 31.906 64.1976 32.5335 64.1976C33.0677 64.1976 33.5892 64.2782 34.098 64.4393C34.6153 64.5919 35.0732 64.7997 35.4717 65.0626L34.9629 66.1565ZM41.4909 64.2231C42.3474 64.2231 43.1317 64.4224 43.844 64.8209C44.5648 65.2195 45.133 65.7664 45.5485 66.4618C45.964 67.1486 46.1718 67.9076 46.1718 68.7386C46.1718 69.5696 45.964 70.3371 45.5485 71.0409C45.133 71.7362 44.5648 72.2874 43.844 72.6945C43.1317 73.093 42.3474 73.2923 41.4909 73.2923C40.6344 73.2923 39.8458 73.093 39.125 72.6945C38.4127 72.2874 37.8488 71.7362 37.4333 71.0409C37.0178 70.3371 36.81 69.5696 36.81 68.7386C36.81 67.9076 37.0178 67.1486 37.4333 66.4618C37.8488 65.7664 38.4127 65.2195 39.125 64.8209C39.8373 64.4224 40.6259 64.2231 41.4909 64.2231ZM41.5036 65.317C40.8846 65.317 40.3079 65.4696 39.7737 65.7749C39.248 66.0802 38.8282 66.4957 38.5145 67.0214C38.2007 67.5387 38.0438 68.1111 38.0438 68.7386C38.0438 69.3661 38.2007 69.9427 38.5145 70.4685C38.8282 70.9942 39.248 71.414 39.7737 71.7278C40.3079 72.033 40.8846 72.1857 41.5036 72.1857C42.1226 72.1857 42.6908 72.033 43.2081 71.7278C43.7338 71.414 44.1493 70.9942 44.4546 70.4685C44.7684 69.9427 44.9252 69.3661 44.9252 68.7386C44.9252 68.1111 44.7684 67.5387 44.4546 67.0214C44.1493 66.4957 43.7338 66.0802 43.2081 65.7749C42.6908 65.4696 42.1226 65.317 41.5036 65.317ZM48.9513 69.5654C48.9513 70.3879 49.1761 71.0324 49.6255 71.4988C50.0834 71.9567 50.7109 72.1857 51.508 72.1857C52.2966 72.1857 52.9157 71.9567 53.3651 71.4988C53.8145 71.0324 54.0393 70.3879 54.0393 69.5654V64.2994H55.2604V69.5654C55.2604 70.7271 54.9254 71.6387 54.2555 72.3001C53.5941 72.9616 52.6782 73.2923 51.508 73.2923C50.3293 73.2923 49.405 72.9616 48.7351 72.3001C48.0652 71.6387 47.7302 70.7271 47.7302 69.5654V64.2994H48.9513V69.5654ZM63.9444 64.2994H65.1528V73.2032H63.919L58.831 66.3091V73.2032H57.6099V64.2994H58.8438L63.9444 71.2062V64.2994ZM71.3339 64.2994C72.1988 64.2994 72.979 64.4944 73.6743 64.8845C74.3782 65.2661 74.9294 65.7961 75.3279 66.4745C75.7265 67.1529 75.9257 67.9118 75.9257 68.7513C75.9257 69.5908 75.7222 70.3498 75.3152 71.0282C74.9166 71.7066 74.3655 72.2408 73.6616 72.6309C72.9578 73.0125 72.1692 73.2032 71.2957 73.2032H67.7088V64.2994H71.3339ZM71.3593 72.0966C71.9784 72.0966 72.538 71.9525 73.0384 71.6642C73.5471 71.3758 73.9457 70.9773 74.234 70.4685C74.5308 69.9597 74.6792 69.3915 74.6792 68.764C74.6792 68.1281 74.5308 67.5557 74.234 67.0469C73.9372 66.5381 73.5302 66.1395 73.0129 65.8512C72.5041 65.5544 71.936 65.406 71.3085 65.406H68.9299V72.0966H71.3593ZM87.6142 73.2032L86.673 71.0409H81.9794L81.0508 73.2032H79.7661L83.722 64.2994H84.994L88.9371 73.2032H87.6142ZM82.4627 69.9343H86.2023L84.3198 65.6095L82.4627 69.9343ZM90.2292 64.2994H91.4503V73.2032H90.2292V64.2994Z" fill="white"/>
<defs>
<linearGradient id="paint0_linear_1_447" x1="49.8779" y1="13.353" x2="77.2889" y2="30.6139" gradientUnits="userSpaceOnUse">
<stop stop-color="#37B2B9"/>
<stop offset="1" stop-color="#69C28E"/>
</linearGradient>
<linearGradient id="paint1_linear_1_447" x1="36.8127" y1="9.26076" x2="36.296" y2="45.9399" gradientUnits="userSpaceOnUse">
<stop offset="0.09" stop-color="#3DC3D8"/>
<stop offset="1" stop-color="#592C7D"/>
</linearGradient>
<linearGradient id="paint2_linear_1_447" x1="58.6924" y1="16.9075" x2="28.7977" y2="4.36891" gradientUnits="userSpaceOnUse">
<stop stop-color="#6AC28B"/>
<stop offset="1" stop-color="#5FC199"/>
</linearGradient>
<linearGradient id="paint3_linear_1_447" x1="59.5554" y1="45.9703" x2="59.5554" y2="13.5521" gradientUnits="userSpaceOnUse">
<stop stop-color="#6FC493"/>
<stop offset="1" stop-color="#47BEA7"/>
</linearGradient>
<linearGradient id="paint4_linear_1_447" x1="32.3683" y1="22.2478" x2="31.8516" y2="58.927" gradientUnits="userSpaceOnUse">
<stop stop-color="#3DC3D8"/>
<stop offset="0.5" stop-color="#592C7D"/>
</linearGradient>
</defs>
</svg>
