<svg width="58" height="57" viewBox="0 0 58 57" fill="none" xmlns="http://www.w3.org/2000/svg">
<path fill-rule="evenodd" clip-rule="evenodd" d="M48.9215 49.2742V54.2811H9.07776V49.2742H48.9215Z" fill="white"/>
<path fill-rule="evenodd" clip-rule="evenodd" d="M2.04651 56.625H55.9528C56.6002 56.625 57.1246 56.1006 57.1246 55.4531C57.1246 54.8057 56.6002 54.2812 55.9528 54.2812H2.04651C1.39905 54.2812 0.874634 54.8057 0.874634 55.4531C0.874634 56.1006 1.39905 56.625 2.04651 56.625Z" fill="white"/>
<path fill-rule="evenodd" clip-rule="evenodd" d="M2.04651 27.3286H7.90588C8.55334 27.3286 9.07776 26.8041 9.07776 26.1567C9.07776 25.5092 8.55334 24.9848 7.90588 24.9848H2.04651C1.39905 24.9848 0.874634 25.5092 0.874634 26.1567C0.874634 26.8041 1.39905 27.3286 2.04651 27.3286Z" fill="white"/>
<path fill-rule="evenodd" clip-rule="evenodd" d="M9.11299 7.92753L13.2555 12.0701C13.7126 12.5271 14.4567 12.5271 14.9137 12.0701C15.3707 11.613 15.3707 10.8689 14.9137 10.4119L10.7712 6.26935C10.3141 5.81232 9.56996 5.81232 9.11299 6.26935C8.65601 6.72639 8.65595 7.47055 9.11299 7.92753Z" fill="white"/>
<path fill-rule="evenodd" clip-rule="evenodd" d="M47.2287 6.26927L43.0862 10.4118C42.6291 10.8689 42.6291 11.613 43.0862 12.07C43.5432 12.527 44.2874 12.527 44.7444 12.07L48.8869 7.92744C49.3439 7.47042 49.3439 6.72624 48.8869 6.26927C48.4299 5.81229 47.6857 5.81223 47.2287 6.26927Z" fill="white"/>
<path fill-rule="evenodd" clip-rule="evenodd" d="M50.0938 27.3286H55.9531C56.6006 27.3286 57.125 26.8041 57.125 26.1567C57.125 25.5092 56.6006 24.9848 55.9531 24.9848H50.0938C49.4463 24.9848 48.9219 25.5092 48.9219 26.1567C48.9219 26.8041 49.4463 27.3286 50.0938 27.3286Z" fill="white"/>
<path fill-rule="evenodd" clip-rule="evenodd" d="M30.1714 7.40625V1.54688C30.1714 0.899415 29.647 0.375 28.9996 0.375C28.3521 0.375 27.8277 0.899415 27.8277 1.54688V7.40625C27.8277 8.05371 28.3521 8.57813 28.9996 8.57813C29.647 8.57813 30.1714 8.05371 30.1714 7.40625Z" fill="white"/>
<path fill-rule="evenodd" clip-rule="evenodd" d="M44.234 28.4999V46.9304H13.7653V28.4969C13.7653 20.0827 20.5856 13.2652 28.997 13.2652H28.9999C37.4142 13.2652 44.2339 20.0855 44.2339 28.4992L44.234 28.4999ZM29 39.0464C30.295 39.0464 31.3438 40.0952 31.3438 41.3902C31.3438 42.6851 30.295 43.7339 29 43.7339C27.7051 43.7339 26.6563 42.6851 26.6563 41.3902C26.6563 40.0952 27.7051 39.0464 29 39.0464ZM31.3438 20.2964C31.3438 19.0015 30.295 17.9527 29 17.9527C27.7051 17.9527 26.6563 19.0015 26.6563 20.2964V32.3347C26.6563 33.6296 27.7051 34.6784 29 34.6784C30.295 34.6784 31.3438 33.6296 31.3438 32.3347V20.2964Z" fill="white"/>
</svg>
