<svg width="40" height="40" viewBox="0 0 40 40" fill="none" xmlns="http://www.w3.org/2000/svg">
<path d="M24.17 31.6219C17.2807 28.6985 11.7395 23.3059 8.62532 16.5233L8.62405 16.5206L7.78215 14.6687C6.63047 12.1354 7.48096 9.14078 9.79227 7.59101L11.9581 6.13875C12.6575 5.66982 13.5992 5.81277 14.1279 6.4681L18.0764 11.3625C18.6563 12.0814 18.5213 13.1385 17.7792 13.6884L15.7362 15.2024C17.6526 19.0875 20.8068 22.2417 24.6919 24.1582L26.2059 22.1151C26.7559 21.373 27.8129 21.238 28.5318 21.8179L33.4261 25.7663C34.0815 26.2951 34.2244 27.237 33.7552 27.9364L32.312 30.0874C30.771 32.3844 27.8009 33.2396 25.2743 32.1139L24.17 31.6219Z" fill="white"/>
<path d="M22.8437 15.125C22.8437 15.4483 22.9721 15.7582 23.2007 15.9868C23.4293 16.2154 23.7393 16.3438 24.0625 16.3438H30.2837C30.9568 16.3438 31.5024 15.7981 31.5024 15.125C31.5024 14.4519 30.9568 13.9063 30.2837 13.9063H27.0048L32.1382 8.77288C32.6142 8.29693 32.6142 7.52526 32.1382 7.04931C31.6623 6.57335 30.8906 6.57335 30.4146 7.04931L25.2812 12.1827V8.90382C25.2812 8.23073 24.7356 7.68508 24.0625 7.68507C23.3894 7.68507 22.8437 8.23073 22.8437 8.90382V15.125Z" fill="white"/>
</svg>
