<svg width="66" height="28" viewBox="0 0 66 28" fill="none" xmlns="http://www.w3.org/2000/svg">
<path fill-rule="evenodd" clip-rule="evenodd" d="M33.8458 14.9209H31.814L29.3473 12.143C29.1855 11.9623 28.9388 11.8852 28.7027 11.9383C28.4667 11.9942 28.2783 12.1723 28.212 12.4062L26.5516 18.2943L24.6313 7.88704C24.5729 7.56539 24.2891 7.33678 23.9629 7.34475C23.6366 7.35272 23.3661 7.59463 23.321 7.91894L21.6553 20.2296L19.8623 1.52338C19.8305 1.18312 19.544 0.925261 19.2045 0.922607C18.8623 0.922607 18.5759 1.18046 18.5414 1.52073L16.6662 20.3256L14.9871 7.91969C14.9447 7.59538 14.6715 7.35347 14.3453 7.3455C14.0217 7.33752 13.7379 7.56613 13.6769 7.88779L11.7592 18.295L10.0961 12.4069C10.0298 12.1704 9.84149 11.9922 9.60277 11.9391C9.3667 11.8859 9.12003 11.9657 8.95824 12.1491L6.52864 14.9217H1.17873C0.812695 14.9217 0.515625 15.2194 0.515625 15.5862C0.515625 15.9531 0.812695 16.2508 1.17873 16.2508H6.82836C7.01933 16.2508 7.20235 16.1684 7.32702 16.0249L9.15188 13.9434L11.2553 21.3972C11.3401 21.6949 11.616 21.8943 11.9237 21.881C12.2314 21.8677 12.4886 21.6418 12.547 21.3387L14.2287 12.2102L16.1092 26.0942C16.1543 26.4291 16.4407 26.6764 16.7776 26.6711C17.1145 26.6631 17.393 26.4079 17.4275 26.0729L19.1887 8.40042L20.8836 26.0702C20.9154 26.4052 21.1939 26.663 21.5308 26.671C21.8676 26.6763 22.1541 26.4291 22.1992 26.0941L24.0797 12.2101L25.764 21.3386C25.8197 21.6417 26.077 21.8676 26.3847 21.8809C26.6924 21.8942 26.9682 21.6948 27.0531 21.3971L29.1591 13.9325L31.0211 16.0272C31.1458 16.1707 31.3262 16.2505 31.5171 16.2505H34.1457C34.2412 16.2505 34.334 16.2292 34.4189 16.192C34.5011 16.1548 34.578 16.0989 34.6417 16.0245L36.4665 13.9431L38.5726 21.3968C38.6548 21.6946 38.9333 21.8939 39.241 21.8807C39.5487 21.8674 39.806 21.6414 39.8617 21.3384L41.546 12.2098L43.4239 26.0939C43.469 26.4288 43.7581 26.676 44.0949 26.6707C44.4291 26.6627 44.7076 26.4075 44.7421 26.0726L46.506 8.40008L48.1982 26.0699C48.2301 26.4048 48.5086 26.6627 48.8454 26.6706C49.1823 26.676 49.4714 26.4287 49.5165 26.0938L51.3944 12.2097L53.0787 21.3383C53.1344 21.6413 53.3917 21.8673 53.6993 21.8806C54.007 21.8939 54.2855 21.6945 54.3704 21.3968L56.4764 13.9321L58.3358 16.0268C58.4631 16.1704 58.6435 16.2501 58.8318 16.2501H64.8369C65.2029 16.2501 65.5 15.9524 65.5 15.5856C65.5 15.2187 65.2029 14.921 64.8369 14.921H59.1289L56.6622 12.1431C56.5004 11.9623 56.2537 11.8852 56.0177 11.9384C55.7816 11.9942 55.5959 12.1723 55.5296 12.4063L53.8666 18.2943L51.9462 7.8871C51.8879 7.56545 51.6041 7.33684 51.2778 7.34481C50.9542 7.35279 50.681 7.59469 50.6386 7.919L48.9702 20.2297L47.1799 1.52344C47.1454 1.18318 46.8616 0.925324 46.5194 0.92267C46.1799 0.92267 45.8935 1.18053 45.859 1.52079L43.9837 20.3257L42.3021 7.91975C42.2596 7.59544 41.9864 7.35353 41.6628 7.34556C41.3366 7.33758 41.0528 7.5662 40.9944 7.88785L39.0741 18.2951L37.411 12.407C37.3447 12.1704 37.1564 11.9923 36.9203 11.9391C36.6816 11.886 36.435 11.9657 36.2758 12.1491L33.8458 14.9209Z" fill="#1DB6E7"/>
</svg>
