<svg width="50" height="16" viewBox="0 0 50 16" fill="none" xmlns="http://www.w3.org/2000/svg">
<path d="M39.237 10.8272C38.8033 10.8272 38.448 10.5128 38.448 10.1291V5.23806C38.448 4.85428 38.8033 4.53992 39.237 4.53992C39.6707 4.53992 40.026 4.85428 40.026 5.23806V10.1277C40.026 10.5128 39.6707 10.8272 39.237 10.8272V10.8272Z" fill="#A6AEB6"/>
<path d="M46.3426 10.1291C45.9089 10.1291 45.5536 9.81472 45.5536 9.43094V5.93755C45.5536 5.55378 45.9089 5.23941 46.3426 5.23941C46.7763 5.23941 47.1316 5.55378 47.1316 5.93755V9.43094C47.1316 9.81472 46.7763 10.1291 46.3426 10.1291Z" fill="#A6AEB6"/>
<path d="M41.6055 9.08123C41.1718 9.08123 40.8165 8.76687 40.8165 8.38309V6.98546C40.8165 6.60169 41.1718 6.28732 41.6055 6.28732C42.0392 6.28732 42.3945 6.60169 42.3945 6.98546V8.38309C42.3945 8.76687 42.0392 9.08123 41.6055 9.08123Z" fill="#A6AEB6"/>
<path d="M43.9741 11.5253C43.5403 11.5253 43.1851 11.211 43.1851 10.8272V4.53991C43.1851 4.15613 43.5403 3.84177 43.9741 3.84177C44.4078 3.84177 44.763 4.15613 44.763 4.53991V10.8272C44.763 11.211 44.4078 11.5253 43.9741 11.5253Z" fill="#A6AEB6"/>
<path d="M36.8685 12.923C36.4347 12.923 36.0795 12.6086 36.0795 12.2249V3.14232C36.0795 2.75855 36.4347 2.44418 36.8685 2.44418C37.3022 2.44418 37.6575 2.75855 37.6575 3.14232V12.2235C37.6575 12.6086 37.3022 12.923 36.8685 12.923V12.923Z" fill="#A6AEB6"/>
<path d="M22.6575 9.7793C22.2238 9.7793 21.8685 9.46494 21.8685 9.08116V6.28725C21.8685 5.90348 22.2238 5.58911 22.6575 5.58911C23.0912 5.58911 23.4465 5.90348 23.4465 6.28725V9.08116C23.4465 9.46494 23.0912 9.7793 22.6575 9.7793Z" fill="#A6AEB6"/>
<path d="M20.289 8.73145C19.8553 8.73145 19.5 8.41708 19.5 8.03331V7.33516C19.5 6.95139 19.8553 6.63702 20.289 6.63702C20.7227 6.63702 21.078 6.95139 21.078 7.33516V8.03331C21.078 8.41708 20.7227 8.73145 20.289 8.73145Z" fill="#A6AEB6"/>
<path d="M25.0261 11.5253C24.5923 11.5253 24.2371 11.211 24.2371 10.8272V4.53991C24.2371 4.15613 24.5923 3.84177 25.0261 3.84177C25.4598 3.84177 25.8151 4.15613 25.8151 4.53991V10.8272C25.8151 11.211 25.4598 11.5253 25.0261 11.5253Z" fill="#A6AEB6"/>
<path d="M27.3945 9.08123C26.9607 9.08123 26.6055 8.76687 26.6055 8.38309V6.98546C26.6055 6.60169 26.9607 6.28732 27.3945 6.28732C27.8282 6.28732 28.1835 6.60169 28.1835 6.98546V8.38309C28.1835 8.76687 27.8282 9.08123 27.3945 9.08123Z" fill="#A6AEB6"/>
<path d="M29.763 10.8272C29.3293 10.8272 28.974 10.5128 28.974 10.1291V5.23806C28.974 4.85428 29.3293 4.53992 29.763 4.53992C30.1967 4.53992 30.552 4.85428 30.552 5.23806V10.1277C30.552 10.5128 30.1967 10.8272 29.763 10.8272V10.8272Z" fill="#A6AEB6"/>
<path d="M32.1315 12.923C31.6978 12.923 31.3425 12.6086 31.3425 12.2249V3.14232C31.3425 2.75855 31.6978 2.44418 32.1315 2.44418C32.5652 2.44418 32.9205 2.75855 32.9205 3.14232V12.2235C32.9205 12.6086 32.5652 12.923 32.1315 12.923V12.923Z" fill="#A6AEB6"/>
<path d="M34.5 15.3685C34.0663 15.3685 33.711 15.0541 33.711 14.6704V0.698141C33.711 0.314364 34.0663 0 34.5 0C34.9337 0 35.289 0.314364 35.289 0.698141V14.6704C35.289 15.0541 34.9337 15.3685 34.5 15.3685Z" fill="#A6AEB6"/>
<path d="M48.711 8.73145C48.2773 8.73145 47.922 8.41708 47.922 8.03331V7.33516C47.922 6.95139 48.2773 6.63702 48.711 6.63702C49.1447 6.63702 49.5 6.95139 49.5 7.33516V8.03331C49.5 8.41708 49.1447 8.73145 48.711 8.73145Z" fill="#A6AEB6"/>
<path d="M20.237 10.8272C19.8033 10.8272 19.448 10.5128 19.448 10.1291V5.23806C19.448 4.85428 19.8033 4.53992 20.237 4.53992C20.6707 4.53992 21.026 4.85428 21.026 5.23806V10.1277C21.026 10.5128 20.6707 10.8272 20.237 10.8272V10.8272Z" fill="#A6AEB6"/>
<path d="M27.3426 10.1291C26.9089 10.1291 26.5536 9.81472 26.5536 9.43094V5.93755C26.5536 5.55378 26.9089 5.23941 27.3426 5.23941C27.7763 5.23941 28.1316 5.55378 28.1316 5.93755V9.43094C28.1316 9.81472 27.7763 10.1291 27.3426 10.1291Z" fill="#A6AEB6"/>
<path d="M22.6055 9.08123C22.1718 9.08123 21.8165 8.76687 21.8165 8.38309V6.98546C21.8165 6.60169 22.1718 6.28732 22.6055 6.28732C23.0392 6.28732 23.3945 6.60169 23.3945 6.98546V8.38309C23.3945 8.76687 23.0392 9.08123 22.6055 9.08123Z" fill="#A6AEB6"/>
<path d="M24.9741 11.5253C24.5403 11.5253 24.1851 11.211 24.1851 10.8272V4.53991C24.1851 4.15613 24.5403 3.84177 24.9741 3.84177C25.4078 3.84177 25.763 4.15613 25.763 4.53991V10.8272C25.763 11.211 25.4078 11.5253 24.9741 11.5253Z" fill="#A6AEB6"/>
<path d="M17.8685 12.923C17.4347 12.923 17.0795 12.6086 17.0795 12.2249V3.14232C17.0795 2.75855 17.4347 2.44418 17.8685 2.44418C18.3022 2.44418 18.6575 2.75855 18.6575 3.14232V12.2235C18.6575 12.6086 18.3022 12.923 17.8685 12.923V12.923Z" fill="#A6AEB6"/>
<path d="M3.65753 9.7793C3.22381 9.7793 2.86853 9.46494 2.86853 9.08116V6.28725C2.86853 5.90348 3.22381 5.58911 3.65753 5.58911C4.09125 5.58911 4.44652 5.90348 4.44652 6.28725V9.08116C4.44652 9.46494 4.09125 9.7793 3.65753 9.7793Z" fill="#A6AEB6"/>
<path d="M1.28899 8.73145C0.855275 8.73145 0.5 8.41708 0.5 8.03331V7.33516C0.5 6.95139 0.855275 6.63702 1.28899 6.63702C1.72271 6.63702 2.07799 6.95139 2.07799 7.33516V8.03331C2.07799 8.41708 1.72271 8.73145 1.28899 8.73145Z" fill="#A6AEB6"/>
<path d="M6.02606 11.5253C5.59234 11.5253 5.23706 11.211 5.23706 10.8272V4.53991C5.23706 4.15613 5.59234 3.84177 6.02606 3.84177C6.45978 3.84177 6.81505 4.15613 6.81505 4.53991V10.8272C6.81505 11.211 6.45978 11.5253 6.02606 11.5253Z" fill="#A6AEB6"/>
<path d="M8.39446 9.08123C7.96074 9.08123 7.60547 8.76687 7.60547 8.38309V6.98546C7.60547 6.60169 7.96074 6.28732 8.39446 6.28732C8.82818 6.28732 9.18346 6.60169 9.18346 6.98546V8.38309C9.18346 8.76687 8.82818 9.08123 8.39446 9.08123Z" fill="#A6AEB6"/>
<path d="M10.763 10.8272C10.3293 10.8272 9.974 10.5128 9.974 10.1291V5.23806C9.974 4.85428 10.3293 4.53992 10.763 4.53992C11.1967 4.53992 11.552 4.85428 11.552 5.23806V10.1277C11.552 10.5128 11.1967 10.8272 10.763 10.8272V10.8272Z" fill="#A6AEB6"/>
<path d="M13.1315 12.923C12.6978 12.923 12.3425 12.6086 12.3425 12.2249V3.14232C12.3425 2.75855 12.6978 2.44418 13.1315 2.44418C13.5652 2.44418 13.9205 2.75855 13.9205 3.14232V12.2235C13.9205 12.6086 13.5652 12.923 13.1315 12.923V12.923Z" fill="#A6AEB6"/>
<path d="M15.5 15.3685C15.0663 15.3685 14.711 15.0541 14.711 14.6704V0.698141C14.711 0.314364 15.0663 0 15.5 0C15.9337 0 16.289 0.314364 16.289 0.698141V14.6704C16.289 15.0541 15.9337 15.3685 15.5 15.3685Z" fill="#A6AEB6"/>
<path d="M29.711 8.73145C29.2773 8.73145 28.922 8.41708 28.922 8.03331V7.33516C28.922 6.95139 29.2773 6.63702 29.711 6.63702C30.1447 6.63702 30.5 6.95139 30.5 7.33516V8.03331C30.5 8.41708 30.1447 8.73145 29.711 8.73145Z" fill="#A6AEB6"/>
</svg>
