<svg width="28" height="29" viewBox="0 0 28 29" fill="none" xmlns="http://www.w3.org/2000/svg">
<g clip-path="url(#clip0_148_680)">
<path d="M14 7.08864H8.91071L12.6983 3.3162C13.3447 2.67089 13.3447 1.62307 12.6983 0.977756C12.053 0.331348 11.0051 0.331348 10.3598 0.977756L3.77114 7.56644V7.56534C3.1335 8.20847 3.1335 9.24534 3.77114 9.88848L10.3598 16.4772V16.4761C11.0008 17.1225 12.0442 17.1257 12.6906 16.4848C13.3359 15.8428 13.3403 14.7994 12.6983 14.154L8.91069 10.3816H14C15.7642 10.3794 17.4714 11.0072 18.8157 12.1513C20.1588 13.2953 21.0502 14.8813 21.3281 16.6237C21.607 18.3661 21.2548 20.1512 20.3349 21.6573C19.4151 23.1623 17.9888 24.291 16.311 24.8389C14.6343 25.3869 12.8166 25.3191 11.1845 24.6464C9.55374 23.9738 8.21512 22.7411 7.41096 21.1705C7.22064 20.768 6.87501 20.4606 6.45392 20.3174C6.03173 20.1741 5.57018 20.2069 5.17314 20.4103C4.77719 20.6127 4.47969 20.9671 4.34846 21.3925C4.2183 21.818 4.26533 22.2785 4.47971 22.6689C5.64017 24.9385 7.57287 26.7191 9.92879 27.6904C12.2847 28.6628 14.9108 28.7623 17.3334 27.9715C19.756 27.1797 21.8179 25.5511 23.1467 23.3756C24.4757 21.2013 24.9853 18.6232 24.5828 16.1065C24.1814 13.5887 22.8952 11.2984 20.9549 9.6447C19.0146 7.99206 16.5482 7.08533 13.9997 7.08861L14 7.08864Z" fill="#BB1717"/>
</g>
<defs>
<clipPath id="clip0_148_680">
<rect width="28" height="28" fill="white" transform="translate(0 0.5)"/>
</clipPath>
</defs>
</svg>
