<svg width="33" height="27" viewBox="0 0 33 27" fill="none" xmlns="http://www.w3.org/2000/svg">
    <path fill-rule="evenodd" clip-rule="evenodd" d="M34.1022 15.0997H32.0548L29.5691 12.2863C29.4061 12.1033 29.1575 12.0252 28.9196 12.079C28.6818 12.1356 28.4919 12.316 28.4251 12.5528L26.7519 18.5161L24.8168 7.97598C24.758 7.65022 24.472 7.41869 24.1433 7.42676C23.8145 7.43483 23.5419 7.67983 23.4965 8.00829L21.818 20.4762L20.0112 1.53105C19.9791 1.18645 19.6904 0.925295 19.3483 0.922607C19.0035 0.922607 18.7149 1.18375 18.6801 1.52837L16.7905 20.5734L15.0984 8.00905C15.0557 7.68059 14.7804 7.43559 14.4517 7.42752C14.1256 7.41944 13.8396 7.65097 13.7782 7.97674L11.8457 18.5169L10.1698 12.5536C10.103 12.314 9.91324 12.1336 9.67269 12.0798C9.4348 12.0259 9.18623 12.1067 9.0232 12.2925L6.5749 15.1005H1.18383C0.814981 15.1005 0.515625 15.402 0.515625 15.7735C0.515625 16.145 0.814981 16.4465 1.18383 16.4465H6.87693C7.06937 16.4465 7.2538 16.3631 7.37943 16.2178L9.21833 14.1097L11.3379 21.6587C11.4234 21.9602 11.7014 22.1621 12.0115 22.1486C12.3215 22.1352 12.5807 21.9064 12.6396 21.5994L14.3342 12.3543L16.2292 26.4156C16.2746 26.7548 16.5632 27.0053 16.9027 26.9999C17.2422 26.9918 17.5229 26.7334 17.5576 26.3941L19.3324 8.49591L21.0403 26.3913C21.0724 26.7306 21.353 26.9917 21.6925 26.9998C22.0319 27.0052 22.3206 26.7548 22.366 26.4155L24.261 12.3542L25.9583 21.5993C26.0144 21.9063 26.2737 22.1351 26.5837 22.1485C26.8938 22.162 27.1717 21.9601 27.2573 21.6586L29.3795 14.0986L31.2558 16.2201C31.3815 16.3654 31.5633 16.4462 31.7556 16.4462H34.4045C34.5007 16.4462 34.5942 16.4247 34.6798 16.387C34.7626 16.3493 34.8401 16.2927 34.9043 16.2174L36.7431 14.1094L38.8654 21.6583C38.9482 21.9599 39.2289 22.1617 39.539 22.1483C39.849 22.1349 40.1083 21.906 40.1644 21.5991L41.8617 12.3539L43.754 26.4153C43.7995 26.7545 44.0908 27.0049 44.4302 26.9995C44.767 26.9914 45.0476 26.7329 45.0824 26.3938L46.8599 8.49557L48.5651 26.391C48.5972 26.7302 48.8779 26.9914 49.2173 26.9994C49.5567 27.0049 49.8481 26.7544 49.8935 26.4152L51.7859 12.3538L53.4831 21.599C53.5393 21.9059 53.7985 22.1348 54.1085 22.1482C54.4186 22.1617 54.6992 21.9598 54.7848 21.6583L56.907 14.0982L58.7807 16.2197C58.909 16.3651 59.0907 16.4458 59.2805 16.4458H65.3318C65.7006 16.4458 66 16.1443 66 15.7729C66 15.4013 65.7006 15.0998 65.3318 15.0998H59.5799L57.0942 12.2864C56.9312 12.1033 56.6826 12.0252 56.4447 12.0791C56.2068 12.1356 56.0197 12.316 55.9529 12.5529L54.2771 18.5161L52.3419 7.97604C52.2832 7.65028 51.9972 7.41875 51.6684 7.42682C51.3423 7.43491 51.067 7.6799 51.0243 8.00835L49.343 20.4763L47.5389 1.53111C47.5042 1.18651 47.2182 0.925359 46.8734 0.922671C46.5312 0.922671 46.2426 1.18382 46.2079 1.52843L44.3181 20.5735L42.6236 8.00911C42.5808 7.68065 42.3055 7.43566 41.9794 7.42758C41.6507 7.4195 41.3647 7.65104 41.3058 7.9768L39.3708 18.517L37.6949 12.5537C37.6281 12.314 37.4383 12.1337 37.2004 12.0798C36.9599 12.026 36.7114 12.1067 36.5509 12.2925L34.1022 15.0997Z" fill="#1DB6E7"/>
</svg>
