<svg width="33" height="27" viewBox="0 0 33 27" fill="none" xmlns="http://www.w3.org/2000/svg">
    <path fill-rule="evenodd" clip-rule="evenodd" d="M-0.845798 14.9209H1.186L3.6527 12.143C3.8145 11.9623 4.0612 11.8852 4.2973 11.9383C4.5333 11.9942 4.7217 12.1723 4.788 12.4062L6.4484 18.2943L8.3687 7.88704C8.4271 7.56539 8.7109 7.33678 9.0371 7.34475C9.3634 7.35272 9.6339 7.59463 9.679 7.91894L11.3447 20.2296L13.1377 1.52338C13.1695 1.18312 13.456 0.925261 13.7955 0.922607C14.1377 0.922607 14.4241 1.18046 14.4586 1.52073L16.3338 20.3256L18.0129 7.91969C18.0553 7.59538 18.3285 7.35347 18.6547 7.3455C18.9783 7.33752 19.2621 7.56613 19.3231 7.88779L21.2408 18.295L22.9039 12.4069C22.9702 12.1704 23.1585 11.9922 23.3972 11.9391C23.6333 11.8859 23.88 11.9657 24.0418 12.1491L26.4714 14.9217H31.8213C32.1873 14.9217 32.4844 15.2194 32.4844 15.5862C32.4844 15.9531 32.1873 16.2508 31.8213 16.2508H26.1716C25.9807 16.2508 25.7976 16.1684 25.673 16.0249L23.8481 13.9434L21.7447 21.3972C21.6599 21.6949 21.384 21.8943 21.0763 21.881C20.7686 21.8677 20.5114 21.6418 20.453 21.3387L18.7713 12.2102L16.8908 26.0942C16.8457 26.4291 16.5593 26.6764 16.2224 26.6711C15.8855 26.6631 15.607 26.4079 15.5725 26.0729L13.8113 8.40042L12.1164 26.0702C12.0846 26.4052 11.8061 26.663 11.4692 26.671C11.1324 26.6763 10.8459 26.4291 10.8008 26.0941L8.9203 12.2101L7.236 21.3386C7.1803 21.6417 6.923 21.8676 6.6153 21.8809C6.3076 21.8942 6.0318 21.6948 5.9469 21.3971L3.8409 13.9325L1.9789 16.0272C1.8542 16.1707 1.6738 16.2505 1.4829 16.2505H-1.1457C-1.2412 16.2505 -1.334 16.2292 -1.4189 16.192C-1.5011 16.1548 -1.578 16.0989 -1.6417 16.0245L-3.4665 13.9431L-5.5726 21.3968C-5.6548 21.6946 -5.9333 21.8939 -6.241 21.8807C-6.5487 21.8674 -6.806 21.6414 -6.8617 21.3384L-8.546 12.2098L-10.4239 26.0939C-10.469 26.4288 -10.7581 26.676 -11.0949 26.6707C-11.4291 26.6627 -11.7076 26.4075 -11.7421 26.0726L-13.506 8.40008L-15.1982 26.0699C-15.2301 26.4048 -15.5086 26.6627 -15.8454 26.6706C-16.1823 26.676 -16.4714 26.4287 -16.5165 26.0938L-18.3944 12.2097L-20.0787 21.3383C-20.1344 21.6413 -20.3917 21.8673 -20.6993 21.8806C-21.007 21.8939 -21.2855 21.6945 -21.3704 21.3968L-23.4764 13.9321L-25.3358 16.0268C-25.4631 16.1704 -25.6435 16.2501 -25.8318 16.2501H-31.8369C-32.2029 16.2501 -32.5 15.9524 -32.5 15.5856C-32.5 15.2187 -32.2029 14.921 -31.8369 14.921H-26.1289L-23.6622 12.1431C-23.5004 11.9623 -23.2537 11.8852 -23.0177 11.9384C-22.7816 11.9942 -22.5959 12.1723 -22.5296 12.4063L-20.8666 18.2943L-18.9462 7.8871C-18.8879 7.56545 -18.6041 7.33684 -18.2778 7.34481C-17.9542 7.35279 -17.681 7.59469 -17.6386 7.919L-15.9702 20.2297L-14.1799 1.52344C-14.1454 1.18318 -13.8616 0.925324 -13.5194 0.92267C-13.1799 0.92267 -12.8935 1.18053 -12.859 1.52079L-10.9837 20.3257L-9.3021 7.91975C-9.2596 7.59544 -8.9864 7.35353 -8.6628 7.34556C-8.3366 7.33758 -8.0528 7.5662 -7.9944 7.88785L-6.0741 18.2951L-4.411 12.407C-4.3447 12.1704 -4.1564 11.9923 -3.9203 11.9391C-3.6816 11.886 -3.435 11.9657 -3.2758 12.1491L-0.845798 14.9209Z" fill="#1DB6E7"/>
</svg>
