<svg width="12" height="14" viewBox="0 0 12 14" fill="none" xmlns="http://www.w3.org/2000/svg">
<path d="M10.1598 2.80241C8.08882 0.740097 4.86411 0.522724 2.54373 2.14069L2.40052 0.97571C2.36446 0.678109 2.08871 0.468381 1.79771 0.503925C1.50062 0.540998 1.28936 0.810665 1.32542 1.10724L1.58797 3.25236C1.59254 3.28842 1.60574 3.32194 1.61793 3.35647C1.6225 3.36967 1.62352 3.38339 1.62911 3.39659C1.65399 3.4555 1.68954 3.50882 1.73372 3.55452C1.73677 3.55909 1.73829 3.56519 1.74235 3.56874C1.75099 3.57738 1.76216 3.58042 1.77181 3.58855C1.80787 3.62105 1.84849 3.64695 1.89318 3.66879C1.91096 3.67793 1.92772 3.68605 1.94701 3.69265C1.95971 3.69621 1.96987 3.70434 1.98155 3.70789L4.06934 4.29039C4.11809 4.3041 4.16735 4.31121 4.2156 4.31121C4.45276 4.31121 4.67012 4.15429 4.73715 3.91509C4.81739 3.62612 4.64878 3.32803 4.36135 3.24779L3.28015 2.94613C5.16825 1.70853 7.73798 1.91673 9.39714 3.57027C10.6226 4.79163 11.1045 6.58684 10.6576 8.25665C10.5794 8.54613 10.7526 8.8427 11.0405 8.92041C11.0877 8.9331 11.135 8.9397 11.1807 8.9397C11.4204 8.9397 11.6398 8.77973 11.7043 8.53749C12.2487 6.4939 11.657 4.29651 10.1599 2.80247L10.1598 2.80241Z" fill="#101010"/>
<path d="M10.2848 10.6435C10.2802 10.6303 10.2792 10.617 10.2736 10.6033C10.2487 10.5444 10.2132 10.4926 10.169 10.4459C10.1654 10.4413 10.1639 10.4352 10.1598 10.4317C10.1507 10.4225 10.139 10.42 10.1299 10.4124C10.0943 10.3804 10.0537 10.3545 10.009 10.3322C9.99124 10.323 9.97448 10.3144 9.95518 10.3078C9.9435 10.3037 9.93334 10.2966 9.92115 10.293L7.83336 9.71004C7.54439 9.63082 7.24681 9.79841 7.16606 10.0863C7.08633 10.3738 7.25443 10.6734 7.54237 10.7531L8.62356 11.0553C6.73546 12.2919 4.16625 12.0837 2.5071 10.4307C1.28269 9.20981 0.799709 7.41514 1.24664 5.7448C1.32434 5.45533 1.15218 5.15875 0.863725 5.08105C0.573236 5.00182 0.278184 5.175 0.200478 5.46295C-0.346463 7.50653 0.24466 9.7034 1.74224 11.1974C2.90215 12.3538 4.42624 12.9328 5.95019 12.9328C7.14565 12.9328 8.33804 12.5717 9.35782 11.8607L9.50103 13.0247C9.53404 13.2989 9.76765 13.5 10.0373 13.5C10.0597 13.5 10.0815 13.499 10.1038 13.4965C10.4009 13.4599 10.6122 13.1902 10.5756 12.8922L10.3141 10.7475C10.31 10.7125 10.2968 10.6785 10.2846 10.6434L10.2848 10.6435Z" fill="#101010"/>
</svg>
