<svg width="98" height="95" viewBox="0 0 98 95" fill="none" xmlns="http://www.w3.org/2000/svg">
<g clip-path="url(#clip0_148_603)">
<path d="M56.3923 15.4867C54.8531 15.4867 53.322 15.4867 51.7827 15.4867C51.0293 15.4867 50.4136 16.0392 50.3245 16.7786C50.3083 16.9005 50.3083 17.0142 50.3245 17.128C50.3893 17.9243 51.0374 18.5012 51.9448 18.5012C54.3346 18.5012 56.7245 18.5012 59.1143 18.5012C59.171 17.4774 59.3006 16.4699 59.5113 15.4867H56.4004H56.3923Z" fill="white"/>
<path d="M75.5597 38.798V43.8682C75.5597 44.7782 76.1835 45.412 77.0584 45.4039C77.4959 45.4039 77.8604 45.2414 78.1197 44.9732C78.3789 44.7051 78.5328 44.3232 78.5328 43.8763C78.5328 42.2594 78.5328 40.6425 78.5409 39.0255C77.5364 39.0255 76.5399 38.9443 75.5597 38.7899V38.798Z" fill="white"/>
<path d="M59.1224 81.5045C58.8146 81.862 58.531 82.2439 58.2961 82.6501C58.0044 83.1539 58.1341 83.6252 58.5958 84.0477C59.1305 84.5433 59.649 84.6489 60.127 84.2996C60.451 84.0558 60.7426 83.747 61.01 83.4383C65.4332 78.2381 67.6044 72.1929 67.6449 65.3677C67.6449 64.9045 67.653 64.4414 67.6449 63.9783C67.5881 62.1582 67.3451 60.3625 66.9725 58.5831C65.9517 53.7079 63.5943 49.5478 60.3295 45.867C59.8515 45.3308 59.1953 45.3226 58.6687 45.8102C58.0125 46.4114 58.0126 47.2564 58.7012 48.0202C60.289 49.7997 61.6095 51.7578 62.6221 53.9192C64.7689 58.4856 65.5223 63.2795 64.8986 68.2846C64.2829 73.2573 62.3791 77.6775 59.1305 81.4963L59.1224 81.5045Z" fill="white"/>
<path d="M53.5488 50.1329C52.9574 49.5316 51.9529 49.5154 51.3939 50.0517C50.8268 50.596 50.843 51.3111 51.4668 52.0423C52.0096 52.6842 52.601 53.2855 53.1195 53.9437C56.0035 57.5432 57.2511 61.687 56.9918 66.2778C56.8136 69.3898 55.7604 72.2174 53.9782 74.7525C53.2005 75.8656 52.2769 76.8732 51.4101 77.9213C51.1671 78.222 50.9888 78.547 50.9969 79.067C50.9969 79.4976 51.2238 79.8876 51.7017 80.1395C52.3741 80.497 53.1195 80.302 53.7919 79.5951C54.9341 78.3845 55.9873 77.1169 56.8622 75.695C59.2115 71.8599 60.2161 67.6916 59.8191 63.2065C59.4546 59.1276 58.0369 55.455 55.4769 52.2617C54.8774 51.5142 54.2212 50.8154 53.5488 50.1329Z" fill="white"/>
<path d="M51.5883 65.1322C51.5559 64.6853 51.5235 64.0272 51.4668 63.3853C51.1184 59.7533 49.7493 56.5519 47.3838 53.7893C47.1408 53.5049 46.8572 53.318 46.4765 53.3018C45.9337 53.2774 45.5124 53.5293 45.2289 53.9762C44.9129 54.4881 44.9778 55.0325 45.2775 55.5281C45.4881 55.8775 45.7474 56.2106 45.9985 56.5438C48.1534 59.3876 49.1985 62.5646 48.8825 66.1641C48.6395 68.9511 47.7079 71.4536 45.9499 73.6393C45.6177 74.0456 45.2937 74.4925 45.0993 74.9638C44.8562 75.5488 45.1641 76.2232 45.715 76.5563C46.1848 76.8407 46.76 76.7513 47.2299 76.2963C47.3757 76.1582 47.5053 76.0038 47.6349 75.8494C50.203 72.8187 51.5154 69.3167 51.5883 65.1322Z" fill="white"/>
<path d="M77.0504 65.8389C76.1592 65.8389 75.5597 66.4889 75.5597 67.4315C75.5597 73.9642 75.5435 80.505 75.5678 87.0378C75.5759 89.6053 73.5587 91.271 71.4119 91.2548C64.9796 91.206 58.5473 91.2385 52.1068 91.2385H52.0825C51.9772 91.2385 51.8719 91.2385 51.7666 91.2385C50.7701 91.3117 50.0977 92.2461 50.3732 93.1723C50.5838 93.8711 51.159 94.2692 51.9691 94.2692C58.5392 94.2692 65.1173 94.2692 71.6874 94.2692C71.7117 94.2692 71.7279 94.2692 71.7522 94.2692C72.06 94.2692 72.3679 94.2286 72.6676 94.1799C72.7243 94.1717 72.7891 94.1636 72.8458 94.1555C76.1835 93.5298 78.5491 90.6616 78.5491 87.249V77.4987V77.2143C78.5491 73.9154 78.5491 70.6166 78.5491 67.3177C78.5491 66.4727 77.901 65.8389 77.0666 65.8389H77.0504Z" fill="white"/>
<path d="M32.3723 33.7767C29.9095 30.2422 27.8275 26.2689 27.4387 21.9788C27.4306 21.865 27.4225 21.7513 27.4144 21.6375L11.5847 21.54C10.1184 21.5319 8.50623 21.5725 7.40447 22.5394C6.08397 23.6851 5.99486 25.6758 6.00296 27.4227C6.02726 32.9966 6.05967 38.5706 6.08397 44.1445C6.08397 44.8108 6.08397 45.5095 5.79233 46.1108C5.50069 46.7121 4.82829 47.1834 4.1802 47.0208C3.24856 46.7771 3.06223 45.5583 3.06223 44.5914C3.04603 39.0256 3.03793 33.4679 3.02173 27.9021C3.02173 25.302 3.11894 22.4175 4.9093 20.5406C6.2865 19.0943 8.2956 18.6312 10.3371 18.493C14.4444 18.493 18.5436 18.493 22.6509 18.493C23.6149 18.493 24.5709 18.5011 25.5349 18.5093C25.6645 18.5093 25.7698 18.5093 25.8671 18.493H26.6205C27.5197 18.493 28.1678 17.9161 28.2407 17.128C28.2488 17.0142 28.2407 16.9005 28.2407 16.7786C28.1516 16.0392 27.544 15.4948 26.7825 15.4867C26.5719 15.4867 26.3693 15.4867 26.1587 15.4867C26.0615 15.4785 25.9481 15.4704 25.8104 15.4704L9.91583 15.446C9.31634 15.446 8.69255 15.4542 8.07686 15.4867H6.88599C5.65461 15.4867 4.47994 15.8442 3.45919 16.4455C2.45464 16.9086 1.57972 17.583 0.980229 18.558C0.405045 19.4843 0.170111 20.5487 0.0728966 21.6456C0.0728966 21.6863 0.0566942 21.7269 0.0566942 21.7756C0.0242895 22.1656 0.0161883 22.5557 0.00808716 22.9457C0.00808716 23.2382 0.00808716 23.5307 0.00808716 23.8151C0.00808716 24.6682 0.00808716 25.5295 0.00808716 26.3827C0.00808716 28.0321 0.00808716 29.6896 0.00808716 31.3391C0.00808716 33.8092 0.0161883 36.2792 0.0242895 38.7493C0.0323907 47.7196 0.0404919 56.698 0.0485931 65.6683C0.0485931 65.7333 0.0323907 65.7983 0.0323907 65.8715C0.0242895 70.0479 0.0161883 74.2243 0.00808716 78.4088C0.00808716 81.1145 0.00808716 83.8121 0.00808716 86.5178C0.00808716 87.0053 0.00808716 87.4928 0.0566942 87.9803C0.356438 91.4742 3.39438 94.2693 6.87789 94.2693H8.00395C8.61154 94.2937 9.21103 94.3018 9.79431 94.3018C13.5209 94.2937 17.2555 94.2774 20.982 94.2693H22.1567C23.6959 94.2693 25.2271 94.2693 26.7663 94.2693C27.5197 94.2693 28.1354 93.7168 28.2245 92.9774C28.2407 92.8555 28.2407 92.7417 28.2245 92.628C28.1597 91.8317 27.5116 91.2629 26.6043 91.2629C20.4798 91.2629 14.3472 91.2629 8.22268 91.2629C7.01561 90.9867 5.88954 90.5073 5.00652 89.6379C3.57261 88.2241 3.12704 86.2009 2.98932 84.129C2.98932 81.6589 2.98932 79.1969 2.98932 76.7268C2.98932 73.6474 2.98932 70.5679 2.98932 67.4965V65.3027C2.99742 64.4821 3.10274 63.4989 3.83184 63.1333C4.50424 62.792 5.36297 63.2551 5.72752 63.9133C6.09207 64.5714 6.09207 65.3677 6.09207 66.1234C6.05967 71.5592 6.01916 76.995 5.98676 82.4308C5.97056 84.4946 6.17309 86.9566 7.96345 87.9803C8.83838 88.476 9.89153 88.4922 10.8961 88.4922C17.5228 88.4922 24.1415 88.4922 30.7683 88.4922C31.1328 88.4922 31.5217 88.4841 31.8052 88.2566C32.0888 88.0291 32.1941 87.6391 32.2427 87.2816C32.8665 83.1133 29.8852 78.7663 31.384 74.8255C31.8862 73.5174 32.8422 72.0304 32.0726 70.8604C31.7242 70.3322 31.1166 70.0641 30.5252 69.8447C27.6979 68.8209 24.6114 68.5528 21.8732 67.3096C21.4924 67.139 21.0793 66.8953 20.9982 66.4809C20.8767 65.8552 21.5896 65.4165 22.1891 65.1808C25.462 63.897 28.7349 62.6051 32.0159 61.3213C32.4209 61.1588 32.8422 60.9882 33.1338 60.6632C33.9115 59.7938 33.3444 58.3718 32.5019 57.5593C31.6594 56.7468 30.5495 56.1374 30.0635 55.0811C29.942 54.813 29.8609 54.4961 29.9906 54.2361C30.1121 53.9842 30.3794 53.8542 30.6306 53.7323C33.8791 52.2291 37.2735 50.8235 39.8335 48.3209C40.3115 47.8577 40.7732 47.3134 40.8704 46.6552C40.9839 45.8914 40.5788 45.152 40.1737 44.4939C37.8487 40.7319 34.8837 37.4087 32.3642 33.7848L32.3723 33.7767Z" fill="white"/>
<path d="M92.2968 5.712C88.6431 2.05563 83.7014 -6.10352e-05 78.541 -6.10352e-05C73.3805 -6.10352e-05 68.4307 2.05563 64.7852 5.712C62.0956 8.40959 60.2809 11.8141 59.5113 15.4867C59.3007 16.478 59.171 17.4855 59.1143 18.5012C59.0981 18.8343 59.09 19.1756 59.09 19.5087C59.09 24.6845 61.1396 29.6491 64.7852 33.3054C67.7259 36.2549 71.5091 38.1562 75.5597 38.79C76.54 38.9444 77.5364 39.0256 78.541 39.0256C83.7014 39.0256 88.6431 36.9699 92.2968 33.3135C95.9423 29.6491 97.9919 24.6926 97.9919 19.5168C97.9919 14.341 95.9423 9.3765 92.2968 5.72013V5.712ZM87.7358 16.3399L78.5572 25.5458L76.2402 27.8696C76.0377 28.0646 75.8028 28.2028 75.5597 28.284C74.944 28.4953 74.2392 28.3571 73.7532 27.8696L68.4469 22.5476C68.1147 22.2144 67.9284 21.7594 67.9284 21.2881C67.9284 20.8169 68.1147 20.3619 68.4469 20.0287C69.1355 19.3381 70.2535 19.3381 70.9421 20.0287L75.0088 24.1076L75.5597 23.5551L78.3384 20.7681L85.2487 13.8373C85.9535 13.236 86.9986 13.2766 87.6467 13.9267C88.3029 14.5848 88.3434 15.633 87.7358 16.3317V16.3399Z" fill="white"/>
</g>
<defs>
<clipPath id="clip0_148_603">
<rect width="98" height="94.3019" fill="white"/>
</clipPath>
</defs>
</svg>
