<svg width="29" height="29" viewBox="0 0 29 29" fill="none" xmlns="http://www.w3.org/2000/svg">
<g opacity="0.7" clip-path="url(#clip0_409_1405)">
<path d="M19.1738 1.12356C21.581 1.12356 23.9912 1.12356 26.3984 1.12356C26.524 1.12356 26.6526 1.13551 26.7722 1.16539C27.451 1.33572 27.8876 1.91542 27.8876 2.64453C27.8876 3.91748 27.8876 5.19342 27.8876 6.46637V10.4466C27.8876 10.7813 28.1178 11.0143 28.4408 11.0113C28.6023 11.0113 28.7368 10.9516 28.8325 10.853C28.9282 10.7544 28.985 10.6139 28.985 10.4496C28.988 8.91367 28.991 7.37776 28.994 5.83886C28.994 4.84381 28.994 3.85174 28.994 2.85668C28.994 2.6774 28.994 2.49811 28.9761 2.31882C28.8684 1.04288 27.7441 0.0149536 26.4582 0.0149536H20.8155C20.2474 0.0149536 19.6822 0.0149536 19.114 0.0149536C18.8359 0.0149536 18.6087 0.218148 18.5758 0.49007C18.5698 0.534892 18.5698 0.576726 18.5758 0.61856C18.5997 0.911399 18.8389 1.12356 19.1738 1.12356Z" fill="#101010"/>
<path d="M19.1738 1.12356C21.581 1.12356 23.9912 1.12356 26.3984 1.12356C26.524 1.12356 26.6526 1.13551 26.7722 1.16539C27.451 1.33572 27.8876 1.91542 27.8876 2.64453C27.8876 3.91748 27.8876 5.19342 27.8876 6.46637V10.4466C27.8876 10.7813 28.1178 11.0143 28.4408 11.0113C28.6023 11.0113 28.7368 10.9516 28.8325 10.853C28.9282 10.7544 28.985 10.6139 28.985 10.4496C28.988 8.91367 28.991 7.37776 28.994 5.83886C28.994 4.84381 28.994 3.85174 28.994 2.85668C28.994 2.6774 28.994 2.49811 28.9761 2.31882C28.8684 1.04288 27.7441 0.0149536 26.4582 0.0149536H20.8155C20.2474 0.0149536 19.6822 0.0149536 19.114 0.0149536C18.8359 0.0149536 18.6087 0.218148 18.5758 0.49007C18.5698 0.534892 18.5698 0.576726 18.5758 0.61856C18.5997 0.911399 18.8389 1.12356 19.1738 1.12356Z" fill="#101010"/>
<path d="M22.1941 25.3246C22.3137 25.2349 22.4214 25.1214 22.52 25.0078C24.1527 23.0954 24.9541 20.8722 24.9691 18.3622C24.9691 18.1918 24.9721 18.0215 24.9691 17.8512C24.9482 17.1819 24.8585 16.5215 24.7209 15.8671C24.3441 14.0742 23.4739 12.5442 22.2688 11.1906C22.0924 10.9934 21.8502 10.9904 21.6558 11.1697C21.4136 11.3908 21.4136 11.7016 21.6678 11.9825C22.2539 12.6369 22.7413 13.357 23.1151 14.1519C23.9075 15.8312 24.1856 17.5942 23.9554 19.4349C23.7281 21.2637 23.0254 22.8892 21.8263 24.2936C21.7126 24.4251 21.608 24.5656 21.5213 24.715C21.4136 24.9002 21.4615 25.0736 21.6319 25.2289C21.8293 25.4112 22.0207 25.4501 22.1971 25.3216L22.1941 25.3246Z" fill="#101010"/>
<path d="M19.9274 21.8105C19.6404 22.2199 19.2995 22.5904 18.9795 22.9759C18.8898 23.0864 18.824 23.206 18.827 23.3972C18.827 23.5556 18.9107 23.699 19.0871 23.7916C19.3353 23.9231 19.6105 23.8514 19.8586 23.5914C20.2803 23.1462 20.669 22.68 20.992 22.1571C21.8592 20.7467 22.23 19.2138 22.0834 17.5643C21.9489 16.0643 21.4256 14.7136 20.4806 13.5393C20.2593 13.2644 20.0171 13.0074 19.7689 12.7564C19.5506 12.5353 19.1798 12.5293 18.9735 12.7265C18.7642 12.9267 18.7702 13.1897 19.0004 13.4586C19.2008 13.6947 19.4191 13.9158 19.6105 14.1578C20.675 15.4816 21.1355 17.0055 21.0398 18.6939C20.974 19.8383 20.5853 20.8782 19.9274 21.8105Z" fill="#101010"/>
<path d="M19.0423 18.2696C19.0303 18.1052 19.0184 17.8632 18.9974 17.6271C18.8689 16.2914 18.3635 15.1141 17.4903 14.0981C17.4006 13.9935 17.296 13.9248 17.1554 13.9188C16.9551 13.9098 16.7996 14.0025 16.6949 14.1668C16.5783 14.3551 16.6022 14.5553 16.7128 14.7376C16.7906 14.8661 16.8863 14.9886 16.979 15.1111C17.7744 16.1569 18.1602 17.3253 18.0435 18.6491C17.9538 19.674 17.6099 20.5943 16.961 21.3981C16.8384 21.5476 16.7188 21.7119 16.6471 21.8852C16.5574 22.1004 16.671 22.3484 16.8743 22.4709C17.0478 22.5755 17.2601 22.5426 17.4335 22.3753C17.4873 22.3245 17.5352 22.2677 17.583 22.2109C18.531 21.0963 19.0154 19.8085 19.0423 18.2696Z" fill="#101010"/>
<path d="M28.4408 18.5295C28.1119 18.5295 27.8906 18.7686 27.8906 19.1152C27.8906 21.5177 27.8846 23.9232 27.8936 26.3256C27.8966 27.2699 27.152 27.8825 26.3596 27.8765C23.9852 27.8585 21.6109 27.8705 19.2336 27.8705H19.2247C19.1858 27.8705 19.1469 27.8705 19.1081 27.8705C18.7402 27.8974 18.4921 28.241 18.5937 28.5817C18.6715 28.8387 18.8838 28.9851 19.1828 28.9851C21.608 28.9851 24.0361 28.9851 26.4612 28.9851C26.4702 28.9851 26.4762 28.9851 26.4851 28.9851C26.5988 28.9851 26.7124 28.9701 26.823 28.9522C26.844 28.9492 26.8679 28.9462 26.8888 28.9432C28.1208 28.7132 28.994 27.6583 28.994 26.4033V22.8175V22.713C28.994 21.4998 28.994 20.2866 28.994 19.0734C28.994 18.7626 28.7548 18.5295 28.4468 18.5295H28.4408Z" fill="#101010"/>
<path d="M11.9493 6.73828C11.0402 5.43843 10.2717 3.97723 10.1282 2.39948C10.1252 2.35765 10.1222 2.31582 10.1192 2.27398L4.27614 2.23812C3.73489 2.23514 3.13982 2.25008 2.73314 2.60567C2.24572 3.027 2.21283 3.75909 2.21582 4.40155C2.22479 6.45142 2.23675 8.50129 2.24572 10.5512C2.24572 10.7962 2.24572 11.0532 2.13807 11.2743C2.03042 11.4954 1.78222 11.6687 1.543 11.609C1.19911 11.5193 1.13034 11.0711 1.13034 10.7155C1.12436 8.66862 1.12137 6.62473 1.11538 4.57785C1.11538 3.62164 1.15127 2.56084 1.81213 1.87058C2.32048 1.33869 3.06207 1.16837 3.81563 1.11757C5.33172 1.11757 6.84481 1.11757 8.3609 1.11757C8.71675 1.11757 9.0696 1.12056 9.42545 1.12354C9.47329 1.12354 9.51217 1.12354 9.54805 1.11757H9.82615C10.1581 1.11757 10.3973 0.905409 10.4242 0.615559C10.4272 0.573725 10.4242 0.531891 10.4242 0.487068C10.3913 0.215147 10.167 0.0149407 9.88596 0.0119526C9.80821 0.0119526 9.73345 0.0119526 9.6557 0.0119526C9.61982 0.00896445 9.57795 0.0059763 9.52712 0.0059763L3.65715 0C3.43586 0 3.20561 0.00298815 2.97835 0.0149408H2.53877C2.08424 0.0149408 1.65065 0.146419 1.27387 0.367542C0.903073 0.537867 0.58012 0.785883 0.358837 1.14446C0.149515 1.48511 0.0627965 1.87955 0.0269128 2.27996C0.0269128 2.2949 0.0209322 2.30984 0.0209322 2.32777C0.00897092 2.4712 0.00598061 2.61463 0.00299031 2.75806C0 2.86564 0 2.97321 0 3.08078C0 3.39454 0 3.71128 0 4.02504C0 4.63163 0 5.24122 0 5.84781C0 6.75621 0.00299031 7.66461 0.00598061 8.573C0.00897092 11.8719 0.0119612 15.1738 0.0149515 18.4727C0.0149515 18.4966 0.00897092 18.5206 0.00897092 18.5474C0.00598061 20.0834 0.00299031 21.6193 0 23.1582C0 24.1532 0 25.1453 0 26.1403C0 26.3196 0 26.4989 0.0179418 26.6782C0.128583 27.9631 1.24995 28.991 2.53578 28.991H2.95143C3.17571 29 3.39699 29.003 3.61229 29.003C4.98783 29 6.36636 28.994 7.74191 28.991H8.1755C8.74366 28.991 9.30883 28.991 9.87698 28.991C10.1551 28.991 10.3823 28.7878 10.4152 28.5159C10.4212 28.4711 10.4212 28.4293 10.4152 28.3874C10.3913 28.0946 10.1521 27.8854 9.81718 27.8854C7.55651 27.8854 5.29284 27.8854 3.03217 27.8854C2.58662 27.7838 2.17096 27.6075 1.84502 27.2878C1.31574 26.7678 1.15127 26.0238 1.10043 25.2618C1.10043 24.3534 1.10043 23.448 1.10043 22.5396C1.10043 21.4071 1.10043 20.2746 1.10043 19.1451V18.3383C1.10342 18.0365 1.1423 17.6749 1.41142 17.5404C1.65962 17.4149 1.97659 17.5853 2.11116 17.8273C2.24572 18.0693 2.24572 18.3622 2.24572 18.6401C2.23376 20.6392 2.21881 22.6382 2.20685 24.6373C2.20087 25.3963 2.27562 26.3017 2.93648 26.6782C3.25943 26.8605 3.64817 26.8665 4.01897 26.8665C6.46504 26.8665 8.90813 26.8665 11.3542 26.8665C11.4888 26.8665 11.6323 26.8635 11.737 26.7798C11.8416 26.6961 11.8805 26.5527 11.8984 26.4212C12.1287 24.8883 11.0283 23.2896 11.5815 21.8404C11.7669 21.3593 12.1197 20.8125 11.8356 20.3822C11.7071 20.1879 11.4828 20.0893 11.2645 20.0087C10.2209 19.6321 9.08156 19.5335 8.07084 19.0764C7.93029 19.0136 7.77779 18.924 7.74789 18.7716C7.70303 18.5415 7.96618 18.3801 8.18746 18.2935C9.39555 17.8213 10.6036 17.3462 11.8147 16.8741C11.9642 16.8143 12.1197 16.7516 12.2274 16.632C12.5144 16.3123 12.3051 15.7894 11.9941 15.4906C11.6831 15.1918 11.2735 14.9676 11.094 14.5792C11.0492 14.4806 11.0193 14.364 11.0671 14.2684C11.112 14.1758 11.2107 14.128 11.3034 14.0832C12.5025 13.5303 13.7554 13.0134 14.7003 12.093C14.8768 11.9227 15.0472 11.7225 15.0831 11.4805C15.125 11.1996 14.9755 10.9277 14.8259 10.6856C13.9677 9.30211 12.8733 8.07996 11.9433 6.74724L11.9493 6.73828Z" fill="#101010"/>
</g>
<defs>
<clipPath id="clip0_409_1405">
<rect width="29" height="29" fill="white"/>
</clipPath>
</defs>
</svg>
