<svg width="34" height="34" viewBox="0 0 34 34" fill="none" xmlns="http://www.w3.org/2000/svg">
<g clip-path="url(#clip0_227_2889)">
<path d="M21.1553 3.26482C23.5435 3.26482 25.9346 3.26482 28.3228 3.26482C28.4474 3.26482 28.5749 3.27668 28.6936 3.30632C29.367 3.4753 29.8002 4.05042 29.8002 4.77377C29.8002 6.03666 29.8002 7.30251 29.8002 8.5654V12.5142C29.8002 12.8462 30.0286 13.0774 30.349 13.0745C30.5092 13.0745 30.6427 13.0152 30.7376 12.9173C30.8326 12.8195 30.8889 12.6802 30.8889 12.5171C30.8919 10.9934 30.8949 9.46959 30.8978 7.94285C30.8978 6.95566 30.8978 5.97144 30.8978 4.98425C30.8978 4.80638 30.8978 4.6285 30.88 4.45063C30.7732 3.18478 29.6578 2.16498 28.3821 2.16498H22.784C22.2203 2.16498 21.6596 2.16498 21.0959 2.16498C20.82 2.16498 20.5946 2.36657 20.5619 2.63634C20.556 2.68081 20.556 2.72231 20.5619 2.76381C20.5857 3.05434 20.823 3.26482 21.1553 3.26482Z" fill="#585858"/>
<path d="M21.1553 3.26482C23.5435 3.26482 25.9346 3.26482 28.3228 3.26482C28.4474 3.26482 28.5749 3.27668 28.6936 3.30632C29.367 3.4753 29.8002 4.05042 29.8002 4.77377C29.8002 6.03666 29.8002 7.30251 29.8002 8.5654V12.5142C29.8002 12.8462 30.0286 13.0774 30.349 13.0745C30.5092 13.0745 30.6427 13.0152 30.7376 12.9173C30.8326 12.8195 30.8889 12.6802 30.8889 12.5171C30.8919 10.9934 30.8949 9.46959 30.8978 7.94285C30.8978 6.95566 30.8978 5.97144 30.8978 4.98425C30.8978 4.80638 30.8978 4.6285 30.88 4.45063C30.7732 3.18478 29.6578 2.16498 28.3821 2.16498H22.784C22.2203 2.16498 21.6596 2.16498 21.0959 2.16498C20.82 2.16498 20.5946 2.36657 20.5619 2.63634C20.556 2.68081 20.556 2.72231 20.5619 2.76381C20.5857 3.05434 20.823 3.26482 21.1553 3.26482Z" fill="#585858"/>
<path d="M24.1516 27.2745C24.2703 27.1856 24.3771 27.073 24.475 26.9603C26.0948 25.063 26.8899 22.8574 26.9047 20.3672C26.9047 20.1982 26.9077 20.0292 26.9047 19.8602C26.8839 19.1962 26.7949 18.541 26.6585 17.8918C26.2847 16.1131 25.4214 14.5952 24.2258 13.2523C24.0508 13.0566 23.8105 13.0537 23.6176 13.2316C23.3773 13.4509 23.3773 13.7592 23.6295 14.0379C24.211 14.6871 24.6945 15.4016 25.0654 16.1902C25.8515 17.8562 26.1274 19.6053 25.899 21.4315C25.6735 23.2457 24.9764 24.8584 23.7867 26.2518C23.674 26.3822 23.5702 26.5216 23.4841 26.6698C23.3773 26.8536 23.4248 27.0255 23.5939 27.1797C23.7897 27.3605 23.9796 27.3991 24.1546 27.2716L24.1516 27.2745Z" fill="#585858"/>
<path d="M21.9028 23.7883C21.618 24.1944 21.2798 24.562 20.9624 24.9444C20.8734 25.0541 20.8081 25.1727 20.8111 25.3624C20.8111 25.5195 20.8941 25.6618 21.0692 25.7537C21.3154 25.8842 21.5883 25.813 21.8346 25.5551C22.2529 25.1134 22.6385 24.6509 22.959 24.1321C23.8193 22.7329 24.1872 21.2121 24.0418 19.5757C23.9083 18.0875 23.3891 16.7475 22.4516 15.5824C22.2321 15.3097 21.9918 15.0547 21.7456 14.8057C21.529 14.5864 21.1611 14.5804 20.9564 14.7761C20.7488 14.9747 20.7547 15.2356 20.9831 15.5024C21.1819 15.7366 21.3985 15.956 21.5883 16.1961C22.6445 17.5094 23.1014 19.0213 23.0064 20.6963C22.9412 21.8317 22.5555 22.8633 21.9028 23.7883Z" fill="#585858"/>
<path d="M21.0246 20.2753C21.0128 20.1122 21.0009 19.8721 20.9801 19.6379C20.8526 18.3128 20.3512 17.1447 19.4849 16.1368C19.3959 16.033 19.2921 15.9649 19.1527 15.9589C18.9539 15.95 18.7996 16.0419 18.6958 16.205C18.5801 16.3918 18.6038 16.5904 18.7136 16.7712C18.7907 16.8987 18.8857 17.0202 18.9776 17.1418C19.7668 18.1794 20.1495 19.3385 20.0338 20.6518C19.9448 21.6686 19.6036 22.5817 18.9598 23.3792C18.8382 23.5274 18.7195 23.6904 18.6483 23.8624C18.5593 24.0758 18.6721 24.3219 18.8738 24.4434C19.0459 24.5472 19.2565 24.5146 19.4286 24.3486C19.482 24.2982 19.5294 24.2418 19.5769 24.1855C20.5173 23.0797 20.9979 21.802 21.0246 20.2753Z" fill="#585858"/>
<path d="M30.349 20.5332C30.0227 20.5332 29.8031 20.7704 29.8031 21.1143C29.8031 23.4977 29.7972 25.8842 29.8061 28.2677C29.8091 29.2045 29.0704 29.8122 28.2842 29.8063C25.9287 29.7885 23.5731 29.8003 21.2146 29.8003H21.2057C21.1671 29.8003 21.1286 29.8003 21.09 29.8003C20.7251 29.827 20.4789 30.1679 20.5797 30.5059C20.6569 30.7608 20.8675 30.9061 21.1642 30.9061C23.5702 30.9061 25.9791 30.9061 28.3851 30.9061C28.394 30.9061 28.3999 30.9061 28.4088 30.9061C28.5215 30.9061 28.6343 30.8913 28.744 30.8735C28.7648 30.8705 28.7885 30.8676 28.8093 30.8646C30.0316 30.6363 30.8978 29.5898 30.8978 28.3447V24.7873V24.6835C30.8978 23.4799 30.8978 22.2763 30.8978 21.0727C30.8978 20.7644 30.6605 20.5332 30.3549 20.5332H30.349Z" fill="#585858"/>
<path d="M13.9878 8.83517C13.0859 7.54559 12.3235 6.09594 12.1811 4.53067C12.1781 4.48916 12.1751 4.44766 12.1722 4.40616L6.37528 4.37058C5.83831 4.36762 5.24794 4.38244 4.84447 4.73522C4.36091 5.15322 4.32827 5.87953 4.33124 6.5169C4.34014 8.55057 4.35201 10.5842 4.36091 12.6179C4.36091 12.861 4.36091 13.116 4.25411 13.3353C4.14731 13.5547 3.90107 13.7266 3.66374 13.6674C3.32257 13.5784 3.25434 13.1337 3.25434 12.781C3.2484 10.7503 3.24544 8.72251 3.2395 6.69181C3.2395 5.74316 3.2751 4.69075 3.93074 4.00594C4.43507 3.47826 5.17081 3.30928 5.91841 3.25888C7.42251 3.25888 8.92365 3.25888 10.4277 3.25888C10.7808 3.25888 11.1309 3.26185 11.4839 3.26481C11.5314 3.26481 11.5699 3.26481 11.6055 3.25888H11.8814C12.2107 3.25888 12.4481 3.0484 12.4748 2.76084C12.4777 2.71934 12.4748 2.67783 12.4748 2.63337C12.4421 2.36359 12.2196 2.16497 11.9408 2.162C11.8636 2.162 11.7895 2.162 11.7123 2.162C11.6767 2.15904 11.6352 2.15608 11.5848 2.15608L5.76117 2.15015C5.54164 2.15015 5.31321 2.15311 5.08774 2.16497H4.65164C4.20071 2.16497 3.77054 2.29541 3.39674 2.51478C3.02887 2.68376 2.70847 2.92982 2.48894 3.28556C2.28127 3.62352 2.19523 4.01484 2.15963 4.41208C2.15963 4.42691 2.1537 4.44173 2.1537 4.45952C2.14183 4.60181 2.13887 4.74411 2.1359 4.88641C2.13293 4.99313 2.13293 5.09986 2.13293 5.20658C2.13293 5.51785 2.13293 5.8321 2.13293 6.14337C2.13293 6.74517 2.13293 7.34994 2.13293 7.95174C2.13293 8.85295 2.1359 9.75417 2.13887 10.6554C2.14183 13.9282 2.1448 17.204 2.14777 20.4769C2.14777 20.5006 2.14183 20.5243 2.14183 20.551C2.13887 22.0748 2.1359 23.5985 2.13293 25.1253C2.13293 26.1125 2.13293 27.0967 2.13293 28.0839C2.13293 28.2617 2.13293 28.4396 2.15073 28.6175C2.2605 29.8922 3.373 30.912 4.64867 30.912H5.06104C5.28354 30.9209 5.50307 30.9239 5.71667 30.9239C7.08134 30.9209 8.44898 30.915 9.81365 30.912H10.2438C10.8075 30.912 11.3682 30.912 11.9319 30.912C12.2078 30.912 12.4332 30.7104 12.4659 30.4407C12.4718 30.3962 12.4718 30.3547 12.4659 30.3132C12.4421 30.0227 12.2048 29.8152 11.8725 29.8152C9.62972 29.8152 7.38394 29.8152 5.14114 29.8152C4.69911 29.7144 4.28674 29.5395 3.96337 29.2223C3.43827 28.7064 3.2751 27.9683 3.22467 27.2123C3.22467 26.3111 3.22467 25.4128 3.22467 24.5116C3.22467 23.3881 3.22467 22.2645 3.22467 21.1439V20.3435C3.22764 20.0441 3.2662 19.6854 3.5332 19.552C3.77944 19.4274 4.0939 19.5964 4.22741 19.8365C4.36091 20.0767 4.36091 20.3672 4.36091 20.6429C4.34904 22.6262 4.33421 24.6094 4.32234 26.5927C4.31641 27.3457 4.39057 28.244 5.04621 28.6175C5.36661 28.7983 5.75227 28.8043 6.12014 28.8043C8.54688 28.8043 10.9707 28.8043 13.3974 28.8043C13.5309 28.8043 13.6733 28.8013 13.7771 28.7183C13.881 28.6353 13.9195 28.493 13.9373 28.3625C14.1658 26.8417 13.074 25.2557 13.6229 23.8179C13.8068 23.3406 14.1569 22.7981 13.875 22.3712C13.7475 22.1785 13.525 22.0807 13.3084 22.0007C12.273 21.6271 11.1427 21.5293 10.14 21.0757C10.0005 21.0135 9.84925 20.9245 9.81958 20.7733C9.77508 20.5451 10.0361 20.385 10.2557 20.299C11.4542 19.8306 12.6528 19.3593 13.8543 18.8909C14.0026 18.8316 14.1569 18.7693 14.2637 18.6507C14.5485 18.3335 14.3408 17.8147 14.0323 17.5183C13.7237 17.2218 13.3173 16.9995 13.1393 16.6141C13.0948 16.5163 13.0651 16.4007 13.1126 16.3058C13.1571 16.2139 13.255 16.1665 13.347 16.122C14.5366 15.5735 15.7796 15.0607 16.7171 14.1476C16.8921 13.9786 17.0612 13.78 17.0968 13.5399C17.1384 13.2612 16.99 12.9914 16.8417 12.7513C15.9903 11.3787 14.9045 10.1662 13.9818 8.84406L13.9878 8.83517Z" fill="#585858"/>
</g>
<mask id="path-8-outside-1_227_2889" maskUnits="userSpaceOnUse" x="0" y="0.484234" width="35.2435" height="34.038" fill="black">
<rect fill="white" y="0.484234" width="35.2435" height="34.038"/>
<path d="M0.659236 32.3228C0.29515 31.9433 0.307687 31.3404 0.687237 30.9764L31.7708 1.1593C32.1503 0.795212 32.7531 0.807752 33.1172 1.1873C33.4813 1.56685 33.4688 2.16969 33.0892 2.53378L2.00571 32.3508C1.62616 32.7149 1.02332 32.7024 0.659236 32.3228Z"/>
</mask>
<path d="M0.659236 32.3228C0.29515 31.9433 0.307687 31.3404 0.687237 30.9764L31.7708 1.1593C32.1503 0.795212 32.7531 0.807752 33.1172 1.1873C33.4813 1.56685 33.4688 2.16969 33.0892 2.53378L2.00571 32.3508C1.62616 32.7149 1.02332 32.7024 0.659236 32.3228Z" fill="#585858"/>
<path d="M0 31.6356L32.458 0.500066L0 31.6356ZM33.1172 1.1873C34.1657 2.28027 34.1296 4.01623 33.0366 5.06467L4.5366 32.4035C3.44363 33.4519 1.70768 33.4158 0.659236 32.3228L0.659236 32.3228C0.540433 32.199 0.457306 32.0453 0.418645 31.8781C0.379985 31.7109 0.387227 31.5364 0.439607 31.3729L0.766578 31.0591L32.1772 0.928198C32.3428 0.882832 32.5175 0.882853 32.6829 0.928429C32.8484 0.974009 32.9984 1.06345 33.1172 1.1873L33.1172 1.1873ZM1.31847 33.0101L0 31.6356L1.31847 33.0101ZM32.458 0.500066L33.7765 1.87454L32.458 0.500066Z" fill="white" mask="url(#path-8-outside-1_227_2889)"/>
<defs>
<clipPath id="clip0_227_2889">
<rect width="28.7708" height="28.7708" fill="white" transform="translate(2.13293 2.15015)"/>
</clipPath>
</defs>
</svg>
