<svg width="45" height="45" viewBox="0 0 45 45" fill="none" xmlns="http://www.w3.org/2000/svg">
<path d="M43.0997 31.2243L28.7155 6.30911C27.4358 4.0925 25.0522 2.71613 22.4947 2.71613C19.9371 2.71613 17.5537 4.0925 16.2739 6.30911L1.72449 31.5091C0.444778 33.7257 0.446579 36.4785 1.72449 38.6916C3.0042 40.9082 5.38776 42.2845 7.94529 42.2845H37.0495C37.0706 42.2845 37.0899 42.2845 37.111 42.2828C41.045 42.2529 44.2354 39.0414 44.2354 35.1003C44.2354 33.7169 43.8434 32.381 43.0999 31.2243L43.0997 31.2243ZM22.5001 13.1469C24.7501 13.1469 25.2985 14.8396 25.1597 15.8064L23.8097 26.3058C23.764 27.2551 23.0274 27.6154 22.5001 27.6154C21.9095 27.6154 21.2415 27.3043 21.1905 26.3058L19.8405 15.8064C19.7016 14.8098 20.2641 13.1469 22.5001 13.1469ZM24.4442 33.7434C23.9362 34.2566 23.2261 34.5537 22.5001 34.5537C21.7724 34.5537 21.0622 34.2566 20.5489 33.7434C20.0374 33.2301 19.7456 32.5199 19.7456 31.7922C19.7456 31.0697 20.0374 30.3596 20.5489 29.8481C21.0622 29.3348 21.7724 29.0447 22.5001 29.0447C23.2261 29.0447 23.938 29.3365 24.4442 29.8481C24.961 30.3613 25.2546 31.0715 25.2546 31.7922C25.2546 32.5217 24.9628 33.2318 24.4442 33.7434Z" fill="#FFA902"/>
</svg>
