<svg width="390" height="195" viewBox="0 0 390 195" fill="none" xmlns="http://www.w3.org/2000/svg">
<path d="M-101.98 13.3746C-97.861 13.6706 -93.6229 14.1443 -89.2662 14.8154C-57.8774 20.3023 -6.92261 61.592 58.7859 113.875C93.3433 141.468 133.822 159.645 175.826 154.06C217.473 148.395 260.347 127.218 301.975 125.343C377.229 122.382 438.996 171.823 492.129 182.304V194.521C468.721 191.896 443.274 185.284 416.737 173.738C354.672 146.52 288.191 136.277 212.64 156.843C177.588 166.178 141.011 168.172 106.552 157.553C70.8067 146.54 37.7545 122.856 6.16763 103.494C-30.5483 80.8948 -72.0172 77.0856 -101.96 89.2831V13.3746H-101.98Z" fill="url(#paint0_linear_148_910)"/>
<path d="M-101.98 10.4929C-98.257 10.789 -94.4349 11.2232 -90.5336 11.8548C-59.1448 17.3417 -8.19003 58.6315 57.5185 110.915C92.0956 138.507 132.555 156.685 174.558 151.099C216.205 145.415 259.08 124.257 300.707 122.382C376.555 119.362 438.699 169.632 492.129 179.56V191.679C468.385 189.152 442.482 182.501 415.45 170.738C353.385 143.52 286.904 133.277 211.353 153.862C176.301 163.198 139.723 165.191 105.265 154.573C69.5195 143.56 36.4672 119.875 4.8804 100.513C-31.3009 78.2303 -72.1162 74.2039 -101.98 85.7896V10.4929Z" fill="url(#paint1_linear_148_910)"/>
<path d="M-101.98 56.8354C-52.57 102.941 -1.0607 138.724 55.1024 152.323C120.554 168.152 195.669 163.317 266.13 129.053C327.442 98.6976 385.685 37.2169 448.027 25.7299C462.741 23.0062 477.494 24.6049 492.129 29.48V94.7305C488.961 92.5199 485.753 90.4278 482.525 88.4738C440.442 63.6644 393.012 71.1842 346.889 97.4344C259.674 147.369 164.973 172.514 75.9557 170.718C12.782 169.376 -46.9062 156.961 -101.98 129.172V56.8354Z" fill="url(#paint2_linear_148_910)"/>
<path d="M-101.98 94.0791C-67.4426 106.06 -28.3898 106.356 13.5346 96.6647C51.5774 88.0594 91.7986 86.9344 129.029 102.132C168.32 118.178 206.046 143.777 245.653 144.389C286.429 145.237 326.69 118.968 368.139 102.448C407.627 86.5594 449.294 89.3423 486.228 108.132C488.208 109.178 490.169 110.224 492.129 111.29V169.889C473.534 155.382 454.443 142.277 433.649 134.876C402.102 123.704 366.475 130.731 331.66 143.974C291.617 159.488 250.129 169.968 211.195 160.494C171.786 150.902 133.664 129.507 95.2246 130.415C52.0725 131.816 11.0195 160.02 -29.7166 178.85C-53.9563 189.942 -78.6713 194.146 -102 191.106V94.0791H-101.98Z" fill="url(#paint3_linear_148_910)"/>
<path d="M-101.98 90.3884C-67.3831 102.428 -28.2709 102.763 13.7326 93.0529C51.7754 84.4476 92.0164 83.3225 129.228 98.52C168.518 114.566 206.244 140.165 245.851 140.777C286.627 141.626 326.888 115.356 368.337 98.8358C407.825 82.9475 449.492 85.7305 486.426 104.52C488.327 105.527 490.228 106.553 492.129 107.56V166.1C473.593 151.652 454.582 138.606 433.867 131.244C402.32 120.073 366.693 127.099 331.878 140.343C291.835 155.856 250.347 166.336 211.413 156.863C172.003 147.27 133.881 125.876 95.4425 126.783C52.2903 128.185 11.2374 156.389 -29.4987 175.218C-53.7978 186.35 -78.592 190.554 -101.98 187.455V90.3884Z" fill="url(#paint4_linear_148_910)"/>
<path d="M-101.98 48.9407C-52.57 96.2108 -1.21915 133.356 55.0826 147.724C120.336 164.461 195.768 158.876 266.11 123.468C327.521 91.77 385.606 28.8682 448.106 16.4339C462.78 13.5326 477.514 14.9931 492.129 19.8287V85.1187C488.981 82.9081 485.792 80.8357 482.584 78.9015C440.541 54.2895 393.012 62.7172 346.909 90.0529C259.852 142.06 164.914 168.882 75.9161 166.356C12.7227 164.402 -47.0052 150.764 -101.98 121.573V48.9407Z" fill="url(#paint5_linear_148_910)"/>
<path d="M-101.98 84.3488C-77.3444 81.783 -52.9463 75.7633 -28.4492 70.908C8.12817 63.5263 48.9435 63.4474 83.9761 74.9146C124.178 88.0594 158.438 110.994 199.471 114.487C224.523 116.777 260.407 109.731 292.825 91.6318C331.284 70.3158 365.386 39.5656 402.815 18.6839C434.204 1.15741 468.682 -3.71763 492.129 4.13769V16.3352C490.109 15.5852 488.05 14.8944 485.911 14.3022C462.186 7.53246 428.916 14.3022 397.963 31.9669C363.346 51.5657 331.284 79.5922 292.766 99.9411C260.169 117.152 221.057 123.389 189.015 117.625C146.675 110.066 112.592 87.6055 73.0841 77.0264C38.0119 67.75 -0.407196 70.4737 -35.8161 77.3225C-57.6793 81.6251 -79.7604 86.2436 -102 88.0594V84.3883L-101.98 84.3488Z" fill="url(#paint6_linear_148_910)"/>
<defs>
<linearGradient id="paint0_linear_148_910" x1="-128.571" y1="85.461" x2="612.358" y2="128.067" gradientUnits="userSpaceOnUse">
<stop stop-color="#4FE6F0"/>
<stop offset="1" stop-color="#00386E"/>
</linearGradient>
<linearGradient id="paint1_linear_148_910" x1="194.144" y1="66.0307" x2="224.439" y2="221.862" gradientUnits="userSpaceOnUse">
<stop offset="0.09" stop-color="#00DCFF"/>
<stop offset="1" stop-color="#AA3FFF"/>
</linearGradient>
<linearGradient id="paint2_linear_148_910" x1="373.111" y1="194.359" x2="5.82914" y2="-44.5029" gradientUnits="userSpaceOnUse">
<stop offset="0.09" stop-color="#3DC2D7"/>
<stop offset="1" stop-color="#592C7D"/>
</linearGradient>
<linearGradient id="paint3_linear_148_910" x1="-138.658" y1="124.621" x2="528.388" y2="162.978" gradientUnits="userSpaceOnUse">
<stop offset="0.09" stop-color="#45E6FF"/>
<stop offset="1" stop-color="#9109FF"/>
</linearGradient>
<linearGradient id="paint4_linear_148_910" x1="409.744" y1="116.157" x2="-53.5071" y2="146.106" gradientUnits="userSpaceOnUse">
<stop offset="0.09" stop-color="#36FFDB" stop-opacity="0"/>
<stop offset="0.92" stop-color="#00FFCD"/>
</linearGradient>
<linearGradient id="paint5_linear_148_910" x1="46.0032" y1="150.355" x2="594.061" y2="264.788" gradientUnits="userSpaceOnUse">
<stop offset="0.09" stop-color="#00DCFF"/>
<stop offset="1" stop-color="#9006FF"/>
</linearGradient>
<linearGradient id="paint6_linear_148_910" x1="-260.173" y1="12.6352" x2="544.529" y2="50.7122" gradientUnits="userSpaceOnUse">
<stop offset="0.09" stop-color="#0FDEFF"/>
<stop offset="1" stop-color="#A738FF"/>
</linearGradient>
</defs>
</svg>
